<svg width="46" height="65" viewBox="0 0 46 65" fill="none" xmlns="http://www.w3.org/2000/svg">
<rect x="11.5" width="34.5" height="64.4" fill="white"/>
<rect width="11.5" height="64.4" fill="url(#paint0_linear)"/>
<rect x="1.1499" y="1.1499" width="9.2" height="1.15" rx="0.575" fill="white"/>
<rect x="13.7998" y="4.6001" width="9.2" height="1.15" rx="0.575" fill="#80FF90"/>
<rect x="13.7998" y="25.3" width="9.2" height="1.15" rx="0.575001" fill="#80FF90"/>
<rect x="13.7998" y="46" width="9.2" height="1.15" rx="0.575001" fill="#80FF90"/>
<rect x="13.7998" y="6.8999" width="29.9" height="0.575" rx="0.2875" fill="#1F2421"/>
<rect x="13.7998" y="27.6001" width="29.9" height="0.574999" rx="0.287499" fill="#1F2421"/>
<rect x="13.7998" y="48.3" width="29.9" height="0.575001" rx="0.2875" fill="#1F2421"/>
<rect x="13.7998" y="9.19995" width="29.9" height="0.575" rx="0.2875" fill="#1F2421"/>
<rect x="13.7998" y="29.8999" width="29.9" height="0.575003" rx="0.287501" fill="#1F2421"/>
<rect x="13.7998" y="50.6001" width="29.9" height="0.575001" rx="0.2875" fill="#1F2421"/>
<rect x="13.7998" y="11.5" width="29.9" height="0.575" rx="0.2875" fill="#1F2421"/>
<rect x="13.7998" y="32.2" width="29.9" height="0.574997" rx="0.287498" fill="#1F2421"/>
<rect x="13.7998" y="52.8999" width="29.9" height="0.574997" rx="0.287498" fill="#1F2421"/>
<rect x="13.7998" y="13.8" width="29.9" height="0.575" rx="0.2875" fill="#1F2421"/>
<rect x="13.7998" y="16.1001" width="29.9" height="0.574999" rx="0.287499" fill="#1F2421"/>
<rect x="13.7998" y="34.5" width="29.9" height="0.575001" rx="0.2875" fill="#1F2421"/>
<rect x="13.7998" y="55.2" width="29.9" height="0.574997" rx="0.287498" fill="#1F2421"/>
<rect x="13.7998" y="36.8" width="29.9" height="0.574997" rx="0.287498" fill="#1F2421"/>
<rect x="13.7998" y="57.5" width="29.9" height="0.575001" rx="0.2875" fill="#1F2421"/>
<rect x="21.8501" y="1.1499" width="13.8" height="2.3" rx="1" fill="#00460F"/>
<rect x="1.1499" y="19.55" width="9.2" height="1.15" rx="0.575" fill="white"/>
<rect x="1.1499" y="37.95" width="9.2" height="1.15" rx="0.574999" fill="white"/>
<ellipse cx="1.7249" cy="4.02495" rx="0.575" ry="0.575" fill="white"/>
<ellipse cx="1.7249" cy="22.4251" rx="0.575" ry="0.575001" fill="white"/>
<ellipse cx="1.7249" cy="40.825" rx="0.575" ry="0.574999" fill="white"/>
<ellipse cx="1.7249" cy="6.325" rx="0.575" ry="0.575" fill="white"/>
<ellipse cx="1.7249" cy="24.7249" rx="0.575" ry="0.575" fill="white"/>
<ellipse cx="1.7249" cy="43.125" rx="0.575" ry="0.575001" fill="white"/>
<ellipse cx="1.7249" cy="8.62505" rx="0.575" ry="0.575" fill="white"/>
<ellipse cx="1.7249" cy="27.025" rx="0.575" ry="0.575" fill="white"/>
<ellipse cx="1.7249" cy="45.4251" rx="0.575" ry="0.574999" fill="white"/>
<ellipse cx="1.7249" cy="10.9251" rx="0.575" ry="0.575" fill="white"/>
<ellipse cx="1.7249" cy="29.325" rx="0.575" ry="0.575" fill="white"/>
<ellipse cx="1.7249" cy="47.7249" rx="0.575" ry="0.574999" fill="white"/>
<rect x="3.4502" y="3.73755" width="6.9" height="0.575" rx="0.2875" fill="white"/>
<rect x="3.4502" y="22.1375" width="6.9" height="0.575001" rx="0.2875" fill="white"/>
<rect x="3.4502" y="40.5376" width="6.9" height="0.575001" rx="0.2875" fill="white"/>
<rect x="3.4502" y="6.0376" width="6.9" height="0.575" rx="0.2875" fill="white"/>
<rect x="3.4502" y="24.4375" width="6.9" height="0.575001" rx="0.2875" fill="white"/>
<rect x="3.4502" y="42.8374" width="6.9" height="0.574997" rx="0.287498" fill="white"/>
<rect x="3.4502" y="8.3374" width="6.9" height="0.575" rx="0.2875" fill="white"/>
<rect x="3.4502" y="26.7375" width="6.9" height="0.575001" rx="0.2875" fill="white"/>
<rect x="3.4502" y="45.1375" width="6.9" height="0.574997" rx="0.287498" fill="white"/>
<rect x="3.4502" y="10.6375" width="6.9" height="0.575002" rx="0.287501" fill="white"/>
<rect x="3.4502" y="29.0376" width="6.9" height="0.575001" rx="0.2875" fill="white"/>
<rect x="3.4502" y="47.4375" width="6.9" height="0.575001" rx="0.2875" fill="white"/>
<defs>
<linearGradient id="paint0_linear" x1="5.75" y1="0" x2="5.75" y2="64.4" gradientUnits="userSpaceOnUse">
<stop stop-color="#00460F"/>
<stop offset="1" stop-color="#1F2421"/>
</linearGradient>
</defs>
</svg>
