<svg width="557" height="560" viewBox="0 0 557 560" fill="none" xmlns="http://www.w3.org/2000/svg">
<circle cx="295" cy="246" r="21" fill="white"/>
<path d="M175.468 242.952C174.217 243.642 173.516 245.031 173.69 246.449C185.124 339.85 254.102 413.126 341.626 433.522C343.714 434.009 345.736 432.524 345.933 430.389L351.609 368.952C351.741 367.525 351.007 366.16 349.756 365.461C300.751 338.077 265.722 287.661 260.461 227.478C260.42 227.008 260.381 226.538 260.344 226.068C260.198 224.237 258.719 222.781 256.882 222.746C227.353 222.17 199.596 229.638 175.468 242.952Z" fill="white"/>
<path d="M287.913 113.563C289.2 113.657 290.441 113.062 291.179 112.003C319.849 70.7949 365.897 42.1412 419.781 37.4223C468.613 33.1459 514.517 49.3464 549.03 78.9164C549.769 79.5492 550.729 79.8638 551.698 79.779L553.179 79.6493C556.057 79.3972 557.452 76.0232 555.534 73.8622C511.018 23.7162 444.196 -5.44716 372.302 0.848828C294.646 7.64949 229.994 54.1648 196.572 118.653C195.114 121.465 197.854 124.558 200.881 123.626C228.827 115.018 258.437 111.414 287.913 113.563Z" fill="white"/>
<path d="M185.357 322.687C184.856 321.708 183.864 321.075 182.765 321.029C132.162 318.912 82.872 294.966 50.0127 251.318C20.4588 212.06 9.87415 164.406 16.7129 119.366C16.8351 118.561 16.6321 117.74 16.1424 117.089L14.4359 114.823C12.9777 112.886 9.9541 113.393 9.25956 115.716C-10.0633 180.343 0.51796 252.995 44.1868 311.002C91.286 373.566 165.354 403.791 237.977 397.679C240.602 397.458 241.603 394.179 239.632 392.432C217.552 372.866 198.936 349.202 185.357 322.687Z" fill="white"/>
<path d="M354.983 351.471C354.021 352.227 352.688 352.317 351.64 351.686C327.834 337.352 307.337 316.876 293.053 290.833C292.331 289.517 292.723 287.877 293.93 286.986C294.441 286.609 294.95 286.23 295.458 285.846C343.768 249.406 367.919 192.78 365.022 136.543C364.96 135.343 365.604 134.215 366.677 133.674L422.653 105.473C424.258 104.665 426.213 105.444 426.799 107.143C456.572 193.368 430.172 292.342 354.983 351.471Z" fill="white"/>
<path d="M411.944 305.751C411.364 306.65 411.299 307.789 411.77 308.75C433.845 353.814 436.543 407.988 414.553 457.425C394.58 502.331 358.074 534.7 315.405 550.549C314.641 550.832 314.021 551.409 313.69 552.153L312.534 554.753C311.549 556.967 313.458 559.363 315.825 558.845C381.663 544.43 440.014 499.944 469.528 433.59C501.515 361.677 491.767 281.755 450.72 221.029C449.226 218.819 445.829 219.6 445.321 222.218C439.598 251.698 428.393 280.243 411.944 305.751Z" fill="white"/>
<path d="M350.653 140.411C351.754 140.853 352.49 141.914 352.508 143.101C352.919 171.05 346.282 199.443 331.529 225.464C330.761 226.818 329.074 227.328 327.659 226.678C327.019 226.383 326.375 226.092 325.729 225.804C270.469 201.176 209.284 207.485 161.552 237.284C160.532 237.921 159.23 237.904 158.237 237.226L106.456 201.891C104.972 200.879 104.706 198.795 105.906 197.458C165.994 130.5 263.431 105.392 350.653 140.411Z" fill="white"/>
</svg>
