<svg width="3059" height="560" viewBox="0 0 3059 560" fill="none" xmlns="http://www.w3.org/2000/svg">
<circle cx="2797" cy="246" r="21" fill="white"/>
<path d="M2677.47 242.952C2676.22 243.642 2675.52 245.031 2675.69 246.449C2687.12 339.85 2756.1 413.126 2843.63 433.522C2845.71 434.009 2847.74 432.524 2847.93 430.389L2853.61 368.952C2853.74 367.525 2853.01 366.16 2851.76 365.461C2802.75 338.077 2767.72 287.661 2762.46 227.478C2762.42 227.008 2762.38 226.538 2762.34 226.068C2762.2 224.237 2760.72 222.781 2758.88 222.746C2729.35 222.17 2701.6 229.638 2677.47 242.952Z" fill="white"/>
<path d="M2789.91 113.563C2791.2 113.657 2792.44 113.062 2793.18 112.003C2821.85 70.7949 2867.9 42.1412 2921.78 37.4223C2970.61 33.1459 3016.52 49.3464 3051.03 78.9164C3051.77 79.5492 3052.73 79.8638 3053.7 79.779L3055.18 79.6493C3058.06 79.3972 3059.45 76.0232 3057.53 73.8622C3013.02 23.7162 2946.2 -5.44716 2874.3 0.848828C2796.65 7.64949 2731.99 54.1648 2698.57 118.653C2697.11 121.465 2699.85 124.558 2702.88 123.626C2730.83 115.018 2760.44 111.414 2789.91 113.563Z" fill="white"/>
<path d="M2687.36 322.687C2686.86 321.708 2685.86 321.075 2684.77 321.029C2634.16 318.912 2584.87 294.966 2552.01 251.318C2522.46 212.06 2511.87 164.406 2518.71 119.366C2518.84 118.561 2518.63 117.74 2518.14 117.089L2516.44 114.823C2514.98 112.886 2511.95 113.393 2511.26 115.716C2491.94 180.343 2502.52 252.995 2546.19 311.002C2593.29 373.566 2667.35 403.791 2739.98 397.679C2742.6 397.458 2743.6 394.179 2741.63 392.432C2719.55 372.866 2700.94 349.202 2687.36 322.687Z" fill="white"/>
<path d="M2856.98 351.471C2856.02 352.227 2854.69 352.317 2853.64 351.686C2829.83 337.352 2809.34 316.876 2795.05 290.833C2794.33 289.517 2794.72 287.877 2795.93 286.986C2796.44 286.609 2796.95 286.23 2797.46 285.846C2845.77 249.406 2869.92 192.78 2867.02 136.543C2866.96 135.343 2867.6 134.215 2868.68 133.674L2924.65 105.473C2926.26 104.665 2928.21 105.444 2928.8 107.143C2958.57 193.368 2932.17 292.342 2856.98 351.471Z" fill="white"/>
<path d="M2913.94 305.751C2913.36 306.65 2913.3 307.789 2913.77 308.75C2935.84 353.814 2938.54 407.988 2916.55 457.425C2896.58 502.331 2860.07 534.7 2817.41 550.549C2816.64 550.832 2816.02 551.409 2815.69 552.153L2814.53 554.753C2813.55 556.967 2815.46 559.363 2817.83 558.845C2883.66 544.43 2942.01 499.944 2971.53 433.59C3003.51 361.677 2993.77 281.755 2952.72 221.029C2951.23 218.819 2947.83 219.6 2947.32 222.218C2941.6 251.698 2930.39 280.243 2913.94 305.751Z" fill="white"/>
<path d="M2852.65 140.411C2853.75 140.853 2854.49 141.914 2854.51 143.101C2854.92 171.05 2848.28 199.443 2833.53 225.464C2832.76 226.818 2831.07 227.328 2829.66 226.678C2829.02 226.383 2828.38 226.092 2827.73 225.804C2772.47 201.176 2711.28 207.485 2663.55 237.284C2662.53 237.921 2661.23 237.904 2660.24 237.226L2608.46 201.891C2606.97 200.879 2606.71 198.795 2607.91 197.458C2667.99 130.5 2765.43 105.392 2852.65 140.411Z" fill="white"/>
<path d="M36.1963 303.914V53.2881H0V478.221H429.435L36.1963 303.914ZM275.751 445.008L37.5834 444.302V338.775L275.751 445.008Z" fill="white"/>
<path d="M366.124 53.2881V305.798L367.694 321.501C370.049 351.102 386.721 380.677 385.151 380.468C416.819 428.468 418.416 423.547 426.424 432.053C440.479 446.997 455.842 456.289 474.477 465.03C496.484 474.641 520.188 479.766 544.2 480.105C559.615 478.928 577.203 481.519 595.55 475.394C617.907 467.915 638.939 456.944 657.866 442.888C673.936 430.561 692.073 410.042 701.207 392.952C711.671 372.392 718.825 350.311 722.407 327.521V53.2881H366.124ZM690.476 322.391C689.211 332.867 686.923 343.193 683.645 353.222C680.246 363.409 675.493 373.092 669.512 382.012C633.944 431.608 593.927 440.69 579.375 444.825C563.803 449.222 535.406 451.028 515.62 443.569C499.419 437.445 489.107 438.177 475.419 428.494C446.001 407.713 413.914 375.835 402.555 334.588C397.321 315.874 400.095 326.736 397.321 307.578C395.777 296.795 397.321 82.4963 397.321 82.4963H690.45L690.476 322.391Z" fill="white"/>
<path d="M544.201 286.381C556.487 286.381 566.447 276.42 566.447 264.134C566.447 251.848 556.487 241.888 544.201 241.888C531.914 241.888 521.954 251.848 521.954 264.134C521.954 276.42 531.914 286.381 544.201 286.381Z" fill="white"/>
<path d="M997.346 352.908V178.915L1200.26 53.2879L1137.6 53L998.891 137.458V53.2879H965.626V157.558L917.888 185.824V53.2879H883.864V207.181L791.528 264.341L882.607 321.501L883.994 478.221H918.018L919.72 343.486L964.945 371.124L965.573 478.221H997.294V393.737L1140.14 478.221H1202.43L997.346 352.908ZM883.994 280.62L855.755 265.074L884.047 247.669L883.994 280.62ZM965.128 332.572L918.254 301.951L918.725 228.223L964.919 197.628L965.128 332.572Z" fill="white"/>
<path d="M1279.33 53.2881L1492.21 478.221L1559.92 352.594L1627.97 478.221L1840.43 53.2881H1279.33ZM1492.55 411.848L1330.02 81.1354H1428.48L1542.49 311.006L1492.55 411.848ZM1466.17 81.1092H1653.67L1559.92 276.145L1466.17 81.1092ZM1628.62 413.89L1578.89 313.467C1576.56 313.467 1692.25 81.1092 1692.25 81.1092H1791.7L1628.62 413.89Z" fill="white"/>
<path d="M1825.78 265.677L1720.46 478.222H1932.93L1825.78 265.677ZM1773.01 448.228L1826.72 338.697L1880.9 447.993L1773.01 448.228Z" fill="white"/>
<path d="M1933.95 53.2881L1850.2 214.876L1978.1 478.221H2147.7L1933.95 53.2881ZM2000.5 448.306L1886.39 213.933L1934.84 117.829L2097.34 448.306H2000.5Z" fill="white"/>
<path d="M2054.03 53.2881L2222.44 261.227L2221.82 478.221H2253.22L2254.37 261.227L2421.56 53.2881H2054.03ZM2237.83 227.752L2116.92 79.6697H2360.01L2237.83 227.752Z" fill="white"/>
</svg>
