<?xml version="1.0" encoding="utf-8"?>
<!-- Generator: Adobe Illustrator 24.0.2, SVG Export Plug-In . SVG Version: 6.00 Build 0)  -->
<svg version="1.1" id="Capa_1" xmlns="http://www.w3.org/2000/svg" xmlns:xlink="http://www.w3.org/1999/xlink" x="0px" y="0px"
	 viewBox="0 0 280 280" style="enable-background:new 0 0 280 280;" xml:space="preserve">
<style type="text/css">
	.st0{fill:#FFFFFF;}
	.st1{fill:url(#SVGID_1_);}
	.st2{fill:url(#SVGID_2_);}
	.st3{fill:url(#SVGID_3_);}
	.st4{fill:url(#SVGID_4_);}
	.st5{fill:url(#SVGID_5_);}
	.st6{fill:url(#SVGID_6_);}
	.st7{fill:#1A1A1A;}
</style>
<title>Recurso 2</title>
<g id="Capa_2_1_">
	<g id="Capa_1-2">
		<circle class="st0" cx="140" cy="140" r="140"/>
		<g id="Capa_2-2">
			<g id="Capa_1-2-2">
				
					<linearGradient id="SVGID_1_" gradientUnits="userSpaceOnUse" x1="63.8309" y1="87.7741" x2="175.9921" y2="87.7741" gradientTransform="matrix(1 0 0 1 0 28.25)">
					<stop  offset="0.54" style="stop-color:#000000"/>
					<stop  offset="1" style="stop-color:#017B1F"/>
				</linearGradient>
				<path class="st1" d="M64.1,120.9l17.9,16.2c0.3,0.3,0.8,0.3,1.2,0c4-3.2,8.4-5.9,13-8.2c19.9-9.7,38.8-7.5,45.8-6.6
					c6.6,0.9,13.1,2.5,19.3,4.8c0.4,0.2,0.9,0,1.1-0.4l13.5-21.4c0.3-0.4,0.1-1-0.3-1.2l0,0l-0.1-0.1c-9.3-4-19-6.7-29-8.1
					c-8.3-1.2-35.5-4.5-63.4,10.4c-6.8,3.6-13.2,8.1-18.9,13.2C63.8,119.9,63.7,120.4,64.1,120.9L64.1,120.9z"/>
				
					<linearGradient id="SVGID_2_" gradientUnits="userSpaceOnUse" x1="178.9644" y1="55.8303" x2="178.9644" y2="155.918" gradientTransform="matrix(1 0 0 1 0 28.25)">
					<stop  offset="0.54" style="stop-color:#000000"/>
					<stop  offset="1" style="stop-color:#017B1F"/>
				</linearGradient>
				<path class="st2" d="M205.4,84.1l-26.5,4c-0.5,0.1-0.8,0.5-0.8,1c0.7,5.1,1.1,10.2,1.1,15.4c0,2.2-0.1,14.1-2.9,23.9
					c-5,17.4-19,28.6-26.2,33.6c-0.4,0.3-0.5,0.8-0.3,1.2c4.5,7.2,9.4,14.1,14.9,20.7c0.3,0.4,0.8,0.4,1.2,0.1
					c15.3-10.6,27.3-25.3,34.7-42.4c10.5-24.5,7.4-47.5,5.7-56.7C206.4,84.3,205.9,84,205.4,84.1L205.4,84.1z"/>
				
					<linearGradient id="SVGID_3_" gradientUnits="userSpaceOnUse" x1="169.6536" y1="148.0829" x2="93.7471" y2="148.0829" gradientTransform="matrix(1 0 0 1 0 28.25)">
					<stop  offset="0.54" style="stop-color:#000000"/>
					<stop  offset="1" style="stop-color:#017B1F"/>
				</linearGradient>
				<path class="st3" d="M160.1,218l9.5-26.4c0.2-0.5-0.1-1-0.5-1.1l0,0c-8.9-3.4-17-8.3-24.2-14.5c-5.5-4.8-10.3-10.4-14.1-16.6
					c-2.2-3.6-4.6-7.6-5.4-12.6c-0.1-0.9-0.7-2.7-1.3-6.7c-0.3-1.6-0.4-3.8-0.5-5c0-0.5-0.4-0.8-0.9-0.8l-28-0.1
					c-0.5,0-0.9,0.4-0.9,0.9c-0.2,3.1,0,6.3,0.5,9.4c0.7,4,1.8,7.9,3.5,11.6c4.5,10.6,10.5,20.5,17.6,29.5
					c6.4,7.4,13.7,14.1,21.7,19.7c6.9,5.1,14.2,9.5,21.9,13.3C159.5,218.7,160,218.4,160.1,218c0.1,0,0.1,0,0.1,0L160.1,218
					L160.1,218z"/>
				
					<linearGradient id="SVGID_4_" gradientUnits="userSpaceOnUse" x1="69.2152" y1="57.9523" x2="69.2152" y2="167.5439" gradientTransform="matrix(1 0 0 1 0 28.25)">
					<stop  offset="0.54" style="stop-color:#000000"/>
					<stop  offset="1" style="stop-color:#017B1F"/>
				</linearGradient>
				<path class="st4" d="M99.3,170.4l12.2,24.1c0.2,0.4,0,1-0.4,1.2c0,0,0,0,0,0c-0.1,0.1-0.3,0.1-0.4,0.1
					c-10.2-0.3-20.2-2.3-29.7-5.9c-14.5-5.5-27.4-14.5-37.5-26.2c-7.4-9.4-12.4-20.6-14.4-32.4l0,0c-2.7-10.5-3-21.4-1-32
					c0.6-3.2,1.5-6.4,2.7-9.5c0.4-1,0.8-2,1.2-2.9c0.3-0.6,0.9-0.8,1.5-0.6l0,0c0.4,0.2,0.7,0.6,0.7,1.1c-0.5,8-0.2,16.1,1.1,24
					c0.8,5.2,2.1,10.4,3.7,15.4c0,0,0,0.1,0,0.1c4.6,10.1,11.8,18.8,20.7,25.4c5.7,4.5,11.9,8.3,18.5,11.3c6.5,2.9,13.3,5,20.3,6.3
					C98.9,169.9,99.2,170.1,99.3,170.4z"/>
				
					<linearGradient id="SVGID_5_" gradientUnits="userSpaceOnUse" x1="236.6331" y1="38.6527" x2="100.11" y2="38.6527" gradientTransform="matrix(1 0 0 1 0 28.25)">
					<stop  offset="0.54" style="stop-color:#000000"/>
					<stop  offset="1" style="stop-color:#017B1F"/>
				</linearGradient>
				<path class="st5" d="M131.5,88.4H101c-0.5,0-0.9-0.4-0.9-0.9l0,0c0-0.1,0-0.2,0.1-0.3c0.8-2.1,1.8-4.1,2.9-6
					c4.6-7.7,10.4-12.2,16.4-16.7c8.6-6.3,18-11.3,28.1-14.7c10.4-3.8,21.6-5.2,32.7-4c6.2,0.3,12.4,1.4,18.4,3
					c4.4,1.2,8.7,2.8,12.9,4.8c4.1,2,8.1,4.3,11.9,6.9c2.7,1.7,5.2,3.7,7.6,5.8c2,1.8,3.8,3.8,5.5,5.9c0.4,0.6,0.2,1.3-0.4,1.7
					c-0.4,0.2-0.9,0.2-1.3,0c-3.1-2.1-6.4-4-9.7-5.8c-5-2.8-10.3-5-15.8-6.6c-5.4-1.4-11-2.1-16.6-2c-6.5,0-12.9,0.8-19.2,2.6
					c-4,1.2-7.8,2.6-11.5,4.4c-5.2,2.5-10.2,5.4-14.9,8.7c-3.1,2.2-5.5,4.1-6.9,5.3c-2.9,2.4-5.7,5-8.3,7.8
					C131.8,88.4,131.6,88.5,131.5,88.4z"/>
				
					<linearGradient id="SVGID_6_" gradientUnits="userSpaceOnUse" x1="188.6699" y1="230.9779" x2="188.6699" y2="109.7747" gradientTransform="matrix(1 0 0 1 0 28.25)">
					<stop  offset="0.54" style="stop-color:#000000"/>
					<stop  offset="1" style="stop-color:#017B1F"/>
				</linearGradient>
				<path class="st6" d="M196.2,161.2l17.6-22.9c0.3-0.4,0.9-0.5,1.2-0.2c0,0,0,0,0,0h0.1c2.4,2.4,4.5,5.1,6.1,8.1
					c2.9,5.5,3.4,10.5,4.1,16.8c0.5,4.4,0.6,8.8,0.4,13.3c0.2,8.4-1.2,16.7-4,24.7c-2.7,8.7-6.7,16.9-11.6,24.5
					c-5.8,8.5-13.2,15.8-21.9,21.5c-6.8,4.9-14.7,8.4-22.9,10.1c-2.9,0.7-5.8,1.3-8.7,1.6l-4.1,0.5c-0.5,0.1-0.9-0.3-1-0.8
					c0,0,0,0,0,0c-0.1-0.4,0.2-0.8,0.6-1c3-1.1,6.2-2.5,9.6-4.1c3.6-1.7,6.9-3.5,9.9-5.3l0.1-0.1c6.8-4.8,12.7-10.8,17.5-17.6v-0.1
					c5.1-6,8.4-13.4,9.6-21.2V209c1-3.9,1.7-7.9,2-11.9c0.4-4.7,0.8-8.7,0.4-12.1c0-2.8-0.2-5.7-0.7-8.5c-0.2-1.8-0.5-3.7-1-5.5
					c-0.4-1.6-1-3.2-1.6-4.9C197.4,164.5,196.8,162.8,196.2,161.2z"/>
				<path class="st7" d="M147.7,131.1c-5.4-0.9-10.6,2.7-11.5,8.2s2.7,10.6,8.2,11.5c5.4,0.9,10.6-2.7,11.5-8.2
					c0.2-1.1,0.2-2.3,0-3.4C155.1,135.1,151.9,131.8,147.7,131.1z"/>
			</g>
		</g>
	</g>
</g>
</svg>
