<?xml version="1.0" encoding="utf-8"?>
<!-- Generator: Adobe Illustrator 24.0.2, SVG Export Plug-In . SVG Version: 6.00 Build 0)  -->
<svg version="1.1" id="Capa_1" xmlns="http://www.w3.org/2000/svg" xmlns:xlink="http://www.w3.org/1999/xlink" x="0px" y="0px"
	 viewBox="0 0 50 62.5" style="enable-background:new 0 0 50 62.5;" xml:space="preserve">
<style type="text/css">
	.st0{fill:url(#SVGID_1_);}
	.st1{fill:none;stroke:#000000;stroke-width:2;}
	.st2{clip-path:url(#SVGID_3_);}
	.st3{fill:#202040;}
</style>
<g>
	
		<linearGradient id="SVGID_1_" gradientUnits="userSpaceOnUse" x1="25" y1="63.4646" x2="25" y2="0.9646" gradientTransform="matrix(1 0 0 -1 0 63.4646)">
		<stop  offset="0" style="stop-color:#0CCA98"/>
		<stop  offset="1" style="stop-color:#00FFCC"/>
	</linearGradient>
	<path class="st0" d="M10,0h30c5.5,0,10,4.5,10,10v42.5c0,5.5-4.5,10-10,10H10c-5.5,0-10-4.5-10-10V10C0,4.5,4.5,0,10,0z"/>
	<path class="st1" d="M10,1h30c5,0,9,4,9,9v42.5c0,5-4,9-9,9H10c-5,0-9-4-9-9V10C1,5,5,1,10,1z"/>
</g>
<g>
	<defs>
		<rect id="SVGID_2_" x="8.3" y="15.4" width="31.2" height="31.8"/>
	</defs>
	<clipPath id="SVGID_3_">
		<use xlink:href="#SVGID_2_"  style="overflow:visible;"/>
	</clipPath>
	<g class="st2">
		<path class="st3" d="M13.8,26.6l2.7,2.4c0,0,0.1,0,0.1,0c0,0,0.1,0,0.1,0c0.6-0.5,1.2-0.9,1.9-1.2c3-1.4,5.8-1.1,6.8-1
			c1,0.1,1.9,0.4,2.9,0.7c0,0,0.1,0,0.1,0c0,0,0.1,0,0.1-0.1l2-3.2c0,0,0-0.1,0-0.1c0,0,0-0.1-0.1-0.1l0,0c-1.4-0.6-2.8-1-4.3-1.2
			c-1.2-0.2-5.3-0.7-9.4,1.5c-1,0.5-2,1.2-2.8,2c0,0,0,0,0,0c0,0,0,0,0,0.1C13.8,26.5,13.8,26.5,13.8,26.6
			C13.8,26.5,13.8,26.6,13.8,26.6L13.8,26.6z"/>
		<path class="st3" d="M34.8,21.1l-3.9,0.6c0,0-0.1,0-0.1,0.1c0,0,0,0.1,0,0.1c0.1,0.8,0.2,1.5,0.2,2.3c0,0.3,0,2.1-0.4,3.5
			c-0.7,2.6-2.8,4.3-3.9,5c0,0,0,0-0.1,0.1c0,0,0,0.1,0,0.1c0.7,1.1,1.4,2.1,2.2,3.1c0,0,0.1,0,0.1,0c0,0,0.1,0,0.1,0
			c2.3-1.6,4.1-3.8,5.2-6.3c1.6-3.6,1.1-7.1,0.9-8.4C34.9,21.2,34.9,21.2,34.8,21.1C34.9,21.1,34.8,21.1,34.8,21.1L34.8,21.1z"/>
		<path class="st3" d="M28.1,41l1.4-3.9c0,0,0,0,0,0c0,0,0,0,0,0c0,0,0,0,0,0c0,0,0,0,0,0l0,0c-1.3-0.5-2.5-1.2-3.6-2.2
			c-0.8-0.7-1.5-1.5-2.1-2.5c-0.3-0.5-0.7-1.1-0.8-1.9c0-0.1-0.1-0.4-0.2-1c0-0.2-0.1-0.6-0.1-0.7c0,0,0-0.1,0-0.1c0,0-0.1,0-0.1,0
			l-4.2,0c0,0-0.1,0-0.1,0c0,0,0,0.1,0,0.1c0,0.5,0,0.9,0.1,1.4c0.1,0.6,0.3,1.2,0.5,1.7c0.7,1.6,1.6,3,2.6,4.4
			c0.9,1.1,2,2.1,3.2,2.9c1,0.8,2.1,1.4,3.2,2c0,0,0,0,0.1,0C28,41.1,28,41.1,28.1,41C28,41.1,28,41.1,28.1,41
			C28.1,41,28.1,41,28.1,41L28.1,41z"/>
		<path class="st3" d="M19,33.9l1.8,3.6c0,0,0,0.1,0,0.1c0,0,0,0.1-0.1,0.1c0,0,0,0-0.1,0c-1.5,0-3-0.3-4.4-0.9
			c-2.2-0.8-4.1-2.2-5.6-3.9c-1.1-1.4-1.8-3.1-2.1-4.8v0c-0.4-1.6-0.5-3.2-0.1-4.8c0.1-0.5,0.2-1,0.4-1.4C8.9,21.8,9,21.7,9,21.5
			c0,0,0,0,0-0.1c0,0,0,0,0.1,0c0,0,0,0,0.1,0c0,0,0,0,0.1,0c0,0,0.1,0,0.1,0.1c0,0,0,0.1,0,0.1c-0.1,1.2,0,2.4,0.2,3.6
			c0.1,0.8,0.3,1.5,0.5,2.3c0,0,0,0,0,0c0.7,1.5,1.7,2.8,3.1,3.8c0.8,0.7,1.8,1.2,2.8,1.7c1,0.4,2,0.7,3,0.9
			C18.9,33.9,19,33.9,19,33.9C19,33.9,19,33.9,19,33.9L19,33.9z"/>
		<path class="st3" d="M23.8,21.8h-4.5c0,0,0,0-0.1,0c0,0,0,0,0,0c0,0,0,0,0,0c0,0,0,0,0-0.1c0,0,0,0,0-0.1c0.1-0.3,0.3-0.6,0.4-0.9
			c0.7-1.1,1.5-1.8,2.4-2.5c1.3-0.9,2.7-1.7,4.2-2.2c1.6-0.6,3.2-0.8,4.9-0.6c0.9,0.1,1.8,0.2,2.7,0.4c0.7,0.2,1.3,0.4,1.9,0.7
			c0.6,0.3,1.2,0.6,1.8,1c0.4,0.3,0.8,0.5,1.1,0.9c0.3,0.3,0.6,0.6,0.8,0.9c0,0,0,0.1,0,0.1c0,0,0,0.1,0,0.1c0,0-0.1,0.1-0.1,0.1
			c0,0-0.1,0-0.1,0c-0.5-0.3-0.9-0.6-1.4-0.9c-0.7-0.4-1.5-0.7-2.3-1c-0.8-0.2-1.6-0.3-2.5-0.3c-1,0-1.9,0.1-2.8,0.4
			c-0.6,0.2-1.2,0.4-1.7,0.7c-0.8,0.4-1.5,0.8-2.2,1.3c-0.5,0.3-0.8,0.6-1,0.8C24.7,21,24.3,21.3,23.8,21.8
			C23.9,21.8,23.9,21.8,23.8,21.8C23.8,21.8,23.8,21.8,23.8,21.8L23.8,21.8z"/>
		<path class="st3" d="M33.4,32.6l2.6-3.4c0,0,0.1,0,0.1-0.1c0,0,0.1,0,0.1,0l0,0c0.4,0.3,0.7,0.8,0.9,1.2c0.4,0.8,0.5,1.6,0.6,2.5
			c0.1,0.7,0.1,1.3,0.1,2c0,1.2-0.2,2.5-0.6,3.7c-0.4,1.3-1,2.5-1.7,3.6c-0.9,1.3-2,2.4-3.2,3.2c-1,0.7-2.2,1.2-3.4,1.5
			c-0.4,0.1-0.9,0.2-1.3,0.2l-0.6,0.1c0,0-0.1,0-0.1,0c0,0,0,0-0.1-0.1c0,0,0-0.1,0-0.1c0,0,0-0.1,0.1-0.1c0.4-0.2,0.9-0.4,1.4-0.6
			c0.5-0.3,1-0.5,1.5-0.8l0,0c1-0.7,1.9-1.6,2.6-2.6v0c0.8-0.9,1.3-2,1.4-3.2v0c0.2-0.6,0.3-1.2,0.3-1.8c0.1-0.7,0.1-1.3,0.1-1.8
			c0-0.4,0-0.8-0.1-1.3c0-0.3-0.1-0.5-0.1-0.8c-0.1-0.2-0.1-0.5-0.2-0.7C33.6,33.1,33.5,32.8,33.4,32.6z"/>
		<path class="st3" d="M26.2,28.1c-0.3-0.1-0.6,0-0.9,0.1c-0.3,0.1-0.5,0.4-0.7,0.6c-0.1,0.3-0.2,0.6-0.1,0.9c0,0.3,0.2,0.6,0.4,0.8
			c0.2,0.2,0.5,0.4,0.8,0.4c0.3,0,0.6,0,0.9-0.1s0.5-0.4,0.6-0.7c0.1-0.3,0.2-0.6,0.1-0.9c-0.1-0.3-0.2-0.6-0.4-0.8
			C26.8,28.3,26.5,28.2,26.2,28.1L26.2,28.1z"/>
	</g>
</g>
</svg>
