<?xml version="1.0" encoding="utf-8"?>
<!-- Generator: Adobe Illustrator 24.0.2, SVG Export Plug-In . SVG Version: 6.00 Build 0)  -->
<svg version="1.1" id="Capa_1" xmlns="http://www.w3.org/2000/svg" xmlns:xlink="http://www.w3.org/1999/xlink" x="0px" y="0px"
	 viewBox="0 0 41 41.1" style="enable-background:new 0 0 41 41.1;" xml:space="preserve">
<style type="text/css">
	.st0{fill:#FFFFFF;}
	.st1{fill:#009B3A;}
</style>
<circle class="st0" cx="20.6" cy="20.6" r="20.6"/>
<g>
	<path class="st1" d="M20.6,13.4L16,10.4l4.6-4.9l4.6,4.9L20.6,13.4z"/>
	<path class="st1" d="M12.7,15.7l1.3-2.3l6.5,3.9l6.2-3.9l1.6,2.3l-7.8,4.9L12.7,15.7z"/>
	<path class="st1" d="M11.1,21.9l0.7-2.9l8.8,5.5l8.8-5.5l0.7,2.9l-9.5,5.9L11.1,21.9z"/>
	<path class="st1" d="M20.6,31.6l-9.1-5.5c2.1,4.4,4,6.5,9.1,9.5c5.1-3,7-5.1,9.1-9.5L20.6,31.6z"/>
</g>
</svg>
