<?xml version="1.0" encoding="utf-8"?>
<!-- Generator: Adobe Illustrator 24.0.2, SVG Export Plug-In . SVG Version: 6.00 Build 0)  -->
<svg version="1.1" id="Layer_1" xmlns="http://www.w3.org/2000/svg" xmlns:xlink="http://www.w3.org/1999/xlink" x="0px" y="0px"
	 viewBox="0 0 141.7 141.5" style="enable-background:new 0 0 141.7 141.5;" xml:space="preserve">
<style type="text/css">
	.st0{fill:#FFFFFF;}
	.st1{fill:#2A73CC;}
</style>
<circle class="st0" cx="70.9" cy="70.7" r="70.9"/>
<g>
	<path class="st1" d="M133,69.7c0-0.5-0.1-1-0.1-1.4c0,0,0,0,0,0c0,0,0,0,0,0c-0.5-5.2-2.2-10-5.1-14.4c-1.3-2-2.8-3.7-4.4-5.3
		c-2.4-2.3-5.2-4.3-8.4-5.8c-4.8-2.3-10-3.4-15.6-3.4c-0.6,0-1.1,0-1.7,0c-3.9,0.2-7.8,0.9-11.3,2.2c-3.6,1.3-6.8,3-9.3,5.1
		c-0.5,0.4-1.1,0.9-1.7,1.5l-0.4,0.4l-0.6,0.6l0,0l0,0L74,49.6l-0.1,0.2l-0.7,0.8c-0.5,0.6-1,1.2-1.5,1.8v0l0,0
		c-1,1.2-1.9,2.4-2.6,3.5c-0.5,0.7-0.9,1.5-1.3,2.2l-5.9,11.9l0,0l-0.3,0.6l-0.7,1.3c-1.3,2.6-2.7,5.2-4.2,7.3
		c-3.4,3.8-7.3,5.6-12.3,5.6c-0.3,0-0.7,0-1.1,0c-3-0.1-5.6-0.8-7.9-2.2c-0.2-0.2-0.5-0.3-0.7-0.5c-1.9-1.2-3.3-2.8-4.4-4.8
		c-1.2-2.3-1.8-4.6-1.7-7c0-0.1,0-0.1,0-0.2c0.2-3.9,1.6-6.9,4.6-9.5c0.7-0.6,1.5-1.2,2.3-1.6c0.1-0.1,0.2-0.1,0.3-0.2
		c2.2-1.2,4.8-1.8,7.6-1.8l0.9,0c4.6,0.2,8.1,1.6,11,4.4l8.9-15.9c-2.1-1.4-4.5-2.6-7.2-3.6c-0.1,0-0.2-0.1-0.3-0.1
		c-0.3-0.1-0.6-0.2-1-0.3c-2.8-0.9-5.8-1.5-8.8-1.8l0,0c-0.1,0-0.2,0-0.2,0c-0.5,0-0.9-0.1-1.4-0.1c-0.5,0-1,0-1.5,0h-0.3
		c-5.6,0-10.8,1.2-15.5,3.4c-5.3,2.6-9.6,6.3-12.8,11.1c-3.2,4.8-4.9,10.1-5.2,15.9c0,0.5,0,1,0,1.5c0,8,2.9,15,8.7,20.9
		c6,6.2,13.9,9.5,23.4,9.9c0.6,0,1.2,0,1.8,0c5.3,0,10.3-0.9,14.7-2.9c1.1-0.5,2.2-1,3.3-1.7c0.6-0.3,1.2-0.7,1.7-1.1l0.4-0.3
		l0.7-0.5c0.8-0.6,1.6-1.3,2.4-2l0.3-0.3c0.5-0.4,0.9-0.9,1.3-1.3l1.6-1.8l0.6-0.8l0.3-0.4l0.3-0.4c2.4-4,10.1-18.4,10.1-18.4v0
		l0.5-0.9l0.4-0.7c1.1-2.1,1.9-3.5,3-5.1l0,0c2.5-3.7,6.9-6.3,12-6.7c8.6-0.7,16.1,4.9,16.8,12.6s-5.7,14.6-14.3,15.3
		c-1.8,0.2-3.5,0-5.2-0.3l0,0c-6.3-1.3-10.3-5.9-12.3-8l-8.3,15.2c0,0,2.6,2.6,4.3,3.9c1.8,1.3,4.1,2.6,5.9,3.3
		c4.4,1.9,9.2,3,14.5,3c0.6,0,0.5,0,1.1,0c9.4-0.4,17.9-4,23.9-10.2c5.8-5.9,8.9-12.6,8.9-20.6V71C133,70.6,133,70.2,133,69.7
		L133,69.7z"/>
</g>
</svg>
