<?xml version="1.0" encoding="UTF-8" standalone="no"?>
<!DOCTYPE svg PUBLIC "-//W3C//DTD SVG 1.1//EN" "http://www.w3.org/Graphics/SVG/1.1/DTD/svg11.dtd">
<svg width="100%" height="100%" viewBox="0 0 130 130" version="1.1" xmlns="http://www.w3.org/2000/svg" xmlns:xlink="http://www.w3.org/1999/xlink" xml:space="preserve" xmlns:serif="http://www.serif.com/" style="fill-rule:evenodd;clip-rule:evenodd;stroke-linejoin:round;stroke-miterlimit:2;">
    <g transform="matrix(1,0,0,1,-377,-5)">
        <g transform="matrix(0.457516,0,0,1.4,372,7.72777e-05)">
            <g id="EDteam-isotipo">
                <g transform="matrix(2.73332,0,0,0.893239,-1036,-7.94595)">
                    <circle cx="435.004" cy="64.872" r="51.978" style="fill:white;"/>
                </g>
                <g transform="matrix(2.18572,0,0,0.714285,43.7145,14.2857)">
                    <path d="M48.421,80.74C37.827,80.092 27.682,73.612 22.75,64.142C18.173,55.354 18.245,44.314 22.923,35.593C28.16,25.831 38.548,19.878 50.046,19.366C50.046,19.366 52.903,19.183 54.81,18.1C60.468,14.885 61.313,5.395 55.232,1.52C53.595,0.477 51.641,-0.006 49.693,0C30.484,0.184 11.909,12.188 4.101,29.997C-2.461,44.966 -1.096,63.119 7.819,77C14.914,88.046 26.485,96.124 39.321,98.917C56.887,102.74 76.344,96.243 88.086,82.544C99.728,68.96 103.285,48.88 96.765,32.023C93.027,22.359 86.404,13.546 77.542,8.244C77.079,7.967 76.594,7.739 76.094,7.557C85.009,15.192 90.661,26.521 90.661,39.157C90.661,62.125 71.99,80.771 48.991,80.771C48.803,80.771 48.784,80.762 48.421,80.74Z" style="fill:rgb(18,146,238);"/>
                </g>
            </g>
        </g>
    </g>
</svg>
