<?xml version="1.0" encoding="utf-8"?>
<!-- Generator: Adobe Illustrator 24.0.2, SVG Export Plug-In . SVG Version: 6.00 Build 0)  -->
<svg version="1.1" id="Capa_1" xmlns="http://www.w3.org/2000/svg" xmlns:xlink="http://www.w3.org/1999/xlink" x="0px" y="0px"
	 viewBox="0 0 304.8 306.4" style="enable-background:new 0 0 304.8 306.4;" xml:space="preserve">
<style type="text/css">
	.st0{fill:#30333C;}
	.st1{fill:#2B2C34;}
	.st2{fill:#2C2D35;}
	.st3{fill:#2D2F37;}
	.st4{fill:#FE7262;}
	.st5{fill:#F14E1E;}
	.st6{fill:#2F323A;}
	.st7{fill:#2E3038;}
	.st8{fill:#0ACE82;}
	.st9{fill:#A159FE;}
	.st10{fill:#1ABBFD;}
	.st11{fill:#2E3039;}
</style>
<path class="st0" d="M249.9,0.5c3.4,0.8,6.7,1.6,10.1,2.4c4,1.9,8.2,3.3,12.1,5.6c9.3,5.4,16.9,12.7,22.6,21.8
	c0.2,0.3,0.5,0.6,0.8,0.9c4.7,7.9,7.6,16.4,8.6,25.6c0.3,3.3,0.4,6.5,0.4,9.8c0,59,0,118,0,177c0,5.2-1,10.3-2.7,15.2l0,0
	c-0.5,2.2-1.5,4.3-2.1,6.6c-0.2,0.8-0.5,1.6-1.4,1.8c-0.3,0-0.5-0.1-0.6-0.3c-0.7-1.6,0.6-2.8,0.9-4.2c0.2-0.8,0.8-1.6,1-2.4
	c2.7-8.3,3.4-16.9,3.4-25.5c0-10.1,0-20.1,0-30.2c-0.1-14.1-0.1-28.3,0-42.4c-0.1-19.5-0.1-39.1,0-58.6c0.3-13.1,0.2-26.2,0-39.2
	c-0.1-5.7-0.9-11.4-2.4-17c-0.7-2.5-3.2-2.7-4.5-4.2c-0.3-0.4-1,0.3-1.3,0.7c-0.9,1.3-2.1,1.6-3.6,1c-0.6-0.2-1.3-0.3-1.9,0
	c-1.2,0.4-1.9,0.1-2.6-1c-0.7-1.3-1.7-1.1-2.3,0.1c-1.2,2.1-2.6,3-5.1,1.8c-0.8-0.3-2.1-1-2.9,0.8c-0.5,1.1-3.6-0.7-3.8-2.4
	c-0.1-0.7,0.3-1.4,0.1-2.1c-0.2,0-0.3,0.2-0.3,0.3c0.3,3.8-1.3,5.6-4.9,2.9c-0.9-0.7-1.5-0.3-2.3,0.3c-1.6,1.3-2.1,1.1-2.6-0.9
	c-0.2-1-0.7-1.6-1.6-0.8c-1.3,1.1-2.6,0.5-3.8,0.1c-1.1-0.3-2.2-0.7-3.2,0c-1.3,0.9-2.6,1.3-4.3,0.7c-1.1-0.4-1.7,0.6-1.9,1.6
	c-0.1,0.5,0.2,1.1,0.2,1.7c-0.1,0.8-0.4,1.4-1.2,1.6c-0.8,0.2-1.3-0.4-1.7-1.1c-0.3-0.6-0.2-1.3-0.3-1.9c-0.2-1.1-0.8-1.6-1.8-0.8
	c-2.2,1.7-3.7,1.4-5.6-0.9c-0.2-0.3-0.3-0.7-0.5-1c-0.2,0.1-0.3,0.2-0.4,0.4c-0.3,1-0.2,2.5-1.7,2.5c-1.6,0.1-1.9-1.3-2.2-2.4
	c-0.3-1-0.7-1.8-1.9-2c0.4,0.9,2,1.4,1.3,2.5c-0.5,0.9-1.6,1.6-2.5,2.1c-1,0.7-1.7-0.3-2.2-1.2c-1.3-2.3-2.4-2.7-4.8-1.7
	c-0.8,0.3-1.5,0.5-2.3,0.2c-3-1.2-6.1,0.6-6.6,3.8c-0.7,0.3-1.3,0-1.8-0.4c-6.5-5.1-13.9-7.6-22.1-8c-0.9-0.3-1.9-0.2-2.9-0.2
	c-10.9,0-21.9-0.4-32.8,0.1c-14.2,0.6-28.4,0.2-42.5,0.5c-5.4,0.1-10.3,1.9-15,4.5c-1.3,0.7-2.5,1.7-4,2.1c-0.4,0-0.8-0.1-1.1-0.4
	c-1.1-1.5-2-2-3.6-0.3c-0.9,0.9-2,0.5-2.2-0.9c-0.2-1.3-0.5-2-1.9-0.9c-1.1,0.8-2.3,0.2-3.4-0.2c-1.4-0.5-2.6-0.5-3.9,0.4
	c-0.9,0.6-1.8,0.8-2.9,0.5c-1.7-0.5-2.5,0.2-2.4,2c0,0.3,0.1,0.6,0.1,0.9c0,0.9-0.3,1.6-1.3,1.8c-0.8,0.1-1.3-0.5-1.6-1.2
	c-0.3-0.5-0.2-1.1-0.3-1.6c-0.1-1.2-0.7-1.6-1.7-0.9c-0.8,0.6-1.4,1.9-2.6,1.3c-1.5-0.7-3-1.5-3.5-3.4c-0.1-0.1-0.2,0-0.2,0.2
	c-0.5,1-0.1,2.7-1.8,2.8c-1.7,0.1-1.9-1.4-2.3-2.6c-0.3-0.9-0.7-1.6-1.8-1.8c0.4,0.9,2.1,1.5,1.3,2.6c-0.6,0.8-1.6,1.6-2.5,2.1
	c-0.9,0.5-1.6-0.3-2.1-1.1c-1.5-2.6-2.2-2.8-5.1-1.8c-0.5,0.2-1.2,0.5-1.6,0.2c-2.6-2.1-4.3,0.4-6.2,1.3c-0.7,0.3-1.2,1.1-2,1.2
	c-1.2,0.2-2.3,0.2-2.3-1.5c0-1.3-0.4-2.4-1.3-3.7c-1,1.2-1.7,2-0.7,3.4c1,1.5-0.6,2.1-1.5,2.7c-1.2,0.8-2,0-2.4-1.1
	C27.9,45.3,28,44,27,42.8c-0.5,1.4-1.3,3.1-2.5,3c-2.3-0.1-4.2,0.6-6.3,1.3c-1.9,0.7-2.5-1.7-3.1-3.3c-0.8,0.2-1.5,0.7-2.3,1
	c-1.4,0.5-2.5,0.7-3-1.1c-0.1-0.5-0.5-0.8-1.1-0.8c-0.8,0.1-0.4,0.7-0.5,1.1c0,0.8-0.5,1.5-1.2,1.7c-3.7,1.2-4,4.6-4.4,7.5
	c-0.7,5.4-1.2,10.8-1.1,16.2C1.5,82,1.3,94.6,1.5,107.1c0.1,17.1,0.1,34.3,0,51.4c0.1,15.5,0.1,30.9,0,46.4
	c0,11.8-0.1,23.6,0.1,35.4c0.1,4,0.6,8.1,1.4,12.1c0.2,0.9,0.4,1.9,0.3,2.8c-0.1,0.5-0.3,0.9-0.7,1.2c-1.7-2.4-1.6-5.2-2-7.9
	c-1-6.1-0.5-12.2-0.5-18.4c0-56.3,0-112.7-0.1-169c0-7.6,1.7-14.6,4.3-21.6c4.4-11.1,11.9-19.8,21.2-27.1c0.5-0.4,1.1-0.7,1.6-1
	c5.2-3,10.4-6.1,16.2-8c3.6-1.2,7.4-1.7,11.1-2.9c29.2-0.8,58.4-0.3,87.7-0.4c32.4-0.1,64.8,0,97.3,0C242.9,0.1,246.4,0.3,249.9,0.5
	z"/>
<path class="st1" d="M6.6,268.2c0-0.4-0.1-0.8-0.1-1.2c-0.5-2-1.7-3.8-2-5.9c2.5-1.8,4.1-1.8,6.5,0.1c1.2,1,2.6,0.5,3.9,1
	c0.2,0.1,0.4,0.2,0.6,0.4c0.5,0.6,0.2,1.6,1.3,2.1c0.4-2.2,2.1-3.2,3.8-4.2c1.6-0.9,2.9-1.2,4.5,0.2c1.5,1.2,3.2,1,4.5-0.5
	c1.2-1.4,2.5-1.7,3.9-0.4c0.7,0.6,1.4,0.7,2.2,0.1c0.3-0.2-0.1,0,0.2-0.1c1.3-0.8,2.8-1,4,0c1.4,1.1,0.1,2.3-0.1,3.5
	c0.7-0.9,1.1-2.2,2.2-2.7c0.8-0.3,1.5-0.6,2.3-0.1c0.8,0.6,0.7,1.4,0.3,2.1c-0.3,0.5-0.4,1,0.1,1.5c1.3-1.1,2.2-2.6,3.2-4
	c0.5-0.7,1.4-1.1,2.4-0.7c0.9,0.4,0.6,1.2,0.5,1.9c-0.1,0.5-0.1,1,0.5,1.2c0.5,0.2,0.9-0.1,1.3-0.5c0.4-0.4,0.6-1,0.9-1.4
	c0.7-0.9,1.4-1.1,2.4-0.1c1.3,1.3,2.5,1,3.1-0.6c0.5-1.7,1.2-1.9,2.4-0.7c0.2,0.2,0.3,0.4,0.5,0.5c0.5,0.5,0.9,1.1,1.4,1.8
	c0-0.8,0.1-1.5,0.5-2.1c1-1.6,2.2-1.7,3.2,0c0.4,0.7,0.8,1.6,1.7,1.3c2.3-0.6,4.4-0.1,6.5,0.5c1.9,0.5,3.7-0.1,5.2-1.1
	c1.4-0.9,2.4-0.8,3.6,0.3c1.2,1,2.6,1.7,1.8,3.7c-0.2,0.4-0.4,0.8,0.1,1c0.4,0.2,0.8,0.1,1.1-0.2c0.4-0.3,0.5-0.7,0.2-1
	c-0.6-0.7-1.6-1.3-0.7-2.4c0.9-1,1.9-1.9,3.4-1.9c0.6,0,1.2-0.1,1.7,0.1c2,0.8,4.8-0.4,6.1,2.3c0.1,0.2,0.4,0.4,0.6,0.3
	c1.8-1.5,4-0.6,6-0.9c0.5-0.1,1-0.5,1.6-0.6c2.6,0,5.2,0.7,7.8,0.9c5.6,0.2,10.9-1.1,16.1-2.7c1.2,0,2.4,0.4,3.5,0.8
	c2,0.7,3.8,1.4,5.9,0.4c1.3-0.6,2.5,0.8,4.1,0.6c2.4-0.4,5,0.5,7.4-0.8c0.4-0.2,1.1-0.1,1.4,0.2c1.4,1.4,2.8,1.2,4.5,0.4
	c1-0.5,1.1-0.2,1.5,1.6c1.1,0,1.8-1.1,2.8-1.2c1.8-0.3,0.9,1.5,1.7,2.2c0.8-1.6,2.3-2,3.6-2.9c0.8-0.6,1.5-0.4,2.4,0.2
	c2.3,1.7,2.3,1.7,4.4-0.3c0.9-0.9,1.8-0.4,2.5,0.3c0.7,0.7,1.3,0.9,2.1,0.5c0.4-0.2,0.9-0.4,1.1-0.2c2,1.5,3.7,0,5.5-0.4
	c1.2-0.3,2.2-0.3,2.9,0.9c0.5,0.7,1.2,1,2,1.1c1.3,0,2.3,0.4,2.8,1.8c0.5,1.2,1.2,1.6,1.7,0c0.8-2.3,2.9-2.8,4.7-3.7
	c0.4-0.2,0.9-0.1,1.3,0.2c2.3,1.7,4.4,1.7,6.4,0c1.1-0.9,2.1-1.2,3.2-0.3c1.2,0.9,2.1,0.8,3.2-0.1c0.5-0.4,1.2-0.5,1.8-0.5
	c1.9-0.1,2.6,0.9,1.9,2.7c-0.2,0.4-0.5,0.8-0.4,1.7c0.9-0.6,1-1.7,1.6-2.3c0.8-0.8,1.9-1.4,3-0.9c1.1,0.6,0.8,1.6,0.2,2.4
	c-0.3,0.4-0.2,0.8,0.2,1c0.5,0.3,0.6-0.2,0.9-0.4c0.9-0.6,1.4-1.5,1.9-2.4c0.4-0.9,1.1-1.6,2.1-1.7c1.1-0.1,1.6,0.5,1.4,1.6
	c-0.1,0.6-0.3,1.3,0.5,1.6c0.7,0.3,1.2-0.2,1.6-0.8c1-1.4,1.8-2.8,3.5-0.6c0.6,0.7,1.8,0.4,2.5-0.5c0.4-0.7,0-2,1.3-1.9
	c1.1,0.1,1.7,1.1,2.4,1.9c0.3,0.3,0.4,0.7,0.9,1.2c-0.2-1-0.1-1.8,0.3-2.5c0.9-1.5,2.4-1.6,3.1,0c0.6,1.5,1.6,1.6,2.8,1.2
	c1.4-0.4,2.7-0.2,4.1,0.4c2,0.9,4.3,0.6,6.2-0.6c1.7-1.1,3.2-0.7,4.6,0.4c1.1,0.8,1.8,1.7,0.9,3c-0.3,0.4-0.6,0.9,0,1.2
	c0.5,0.3,1.1,0.2,1.6-0.1c0.5-0.3,0.4-0.7,0.2-1.3c-1-2.5,0.3-4.5,3-4c2.5,0.5,5.7-0.7,7.6,2.3c0.2,0.3,0.5,0.2,0.9,0.1
	c3.3-1.4,6.5-1.5,9.7,0.4c1,0.6,1.7,0,2.2-0.9c1-1.6,2.4-1.8,3.9-0.9c0.6,0.3,1.1,0.8,1.6-0.2c0.3-0.5,1.1-0.6,1.7-0.9
	c2.4-1,2.5-1,3.2,1.6c0.9-0.9,1.7-2,2.6-0.1c-0.9,1.7-1.7,3.4-2,5.3c-0.1,1.1-1,1.8-1.1,2.8c-0.8,3-2.8,5.4-4.4,7.9
	c-2.6,4-6.1,7.2-9.3,10.7c-1.9,2.6-4.5,4.3-7.1,6c-6.8,4.5-14.1,7.7-22.1,9.3c-3.7,0.7-7.5,1.4-11.4,1.4
	c-60.2,0-120.4,0.1-180.6-0.1c-14.4,0-27.2-5.1-38.2-14.3C16.4,284.1,10.6,276.8,6.6,268.2z"/>
<path class="st2" d="M299.8,261.1c-0.8-0.5-1.7-1.4-1.9,0.5c-0.1,0.5-0.3,1-0.9,0.9c-0.6-0.1-0.8-0.4-0.7-1c0.1-0.7,0.6-2.3-0.6-1.8
	c-1.2,0.5-3.6,0.1-3.4,2.7c-0.8-0.5-1.5-1.1-2.2-1.4c-1.1-0.4-2.2-0.5-2.7,0.9c-0.8,2-2,2.2-3.6,0.7c-0.7-0.7-1.6-1.2-2.6-0.9
	c-1.3,0.3-2.5,0.5-3.7,0c-1.7-0.7-1.9,2.2-3.3,1.5c-1-0.5-1-2.2-2.4-2.7c-1.5-0.5-0.9,1.4-1.8,1.3c-1.5-1.9-4.2-2.4-5.8-0.9
	c-0.7,0.7-1.5,1.5-0.1,2.2c0.6,0.3,1,0.9,0.7,1.6c-0.4,0.8-1.3,1.2-2.2,1.2c-0.8,0-1.7-0.2-2.1-0.8c-0.4-0.5,0.3-1,0.7-1.3
	c1.3-1.1,0.5-1.7-0.4-2.6c-1.9-1.7-3.5-0.6-5.1,0.2c-2.2,1.1-4.3,1-6.3-0.2c-1.6-0.9-2.9,0.1-4.4,0.3c-1.2,0.2-1.9,0.1-2-1.2
	c-0.1-1-0.3-2-1.5-1.5c-0.9,0.4-1.7,1.4-1,2.5c0.5,0.8,0.6,1.4-0.3,1.7c-0.9,0.3-0.9-0.5-1.1-1.1c-0.4-1.3-1.6-2-3.1-3.5
	c0.6,2.7,0.1,3.8-2.1,3.9c-1,0-1.6,0.3-1.9-0.9c-0.3-1.5-0.9-0.9-1.4-0.1c-0.3,0.4-0.4,0.9-0.7,1.3c-0.6,0.9-1.4,1.4-2.4,0.9
	c-1-0.5-1.3-1.3-0.7-2.3c0.2-0.3,0.5-0.7,0.1-1.1c-0.4-0.4-0.9-0.2-1.3,0c-0.5,0.2-3.3,4.6-3.4,5.4c-1-0.7-1.9-1.3-2.8-1.9
	c0.3-1.1,1.9-0.7,1.6-2c-0.1-0.6-0.5-0.8-1-0.8c-1.1,0.2-2,0.5-2.3,1.7c-0.1,0.2-0.1,0.5-0.3,0.7c-0.4,0.7-0.8,2-1.7,1.5
	c-0.8-0.4-0.5-1.7,0-2.6c0.4-0.6,1.2-1,0.5-1.8c-0.8-0.9-2-0.8-2.6-0.3c-1.7,1.3-3,2-4.8,0c-0.6-0.7-1.6-0.2-2.2,0.7
	c-0.9,1.4-2.4,1.7-3.8,1.3c-1.3-0.4-2.4-0.9-3.2,0.6c-0.9-0.6-0.3-1-0.1-1.3c0.2-0.3,0.4-0.6,0-0.8c-0.2-0.1-0.7-0.2-0.9,0
	c-1.7,1.4-4.4,1.5-4.6,4.6c-0.1,1.8-1.6,0.8-1.9,0c-0.8-1.8-2-2.8-4.1-2.7c-0.4,0-0.9-0.4-1.2-0.7c-1.5-1.5-3.3-1.6-4.8-0.1
	c-0.5,0.5-0.9,1.3-1.6,0.3c-0.9-1.3-1.8-1.2-3.1-0.5c-0.8,0.4-1.9,1-2-0.7c-0.7,0.1-1.3-2.2-2,0.2c-0.6,2-3.6,1.9-5-0.1
	c-0.7-1-1.4-0.9-1.9-0.3c-0.9,1.4-4,0.8-2.9,4.3c-1.1-1.5-3.5-1.5-1.1-4.2c-2.3,0.9-3.5,2.3-5.3,2.2c-0.4-0.8,0.8-1.3,0.3-2.2
	c-0.9-0.3-1.3,0.7-2,0.9c-1,0.3-1.9,1.2-2.9-0.6c-0.8-1.4-2.6-1.2-3.9,0.1c-0.7,0.8-1.3,1.2-2.4,0.3c-1-0.8-2.3-1-3.6-0.2
	c-0.3,0.2-1,0.4-1.1,0.3c-1.7-2.3-3.6,0.1-5.3-0.3c-2.1-0.4-4-1.3-6-2c0.6-1.7,2.1-2,3.6-2.2c1.9,1.3,1.5-0.4,1.7-1.3
	c1.5-1.9,3.6-3.1,5.3-4.8c7.3-7.3,10.8-16,10.9-26.2c0-6.1,0-12.1,0-18.2c0-1-0.1-2.1,0.3-3.1c0.2-0.4,0.5-0.6,0.9-0.6
	c0.2,0,0.5,0.1,0.6,0.3c0.4,0.6,0.4,1.4,1,1.9c0.4,0.4,0.9,1.7,1.5-0.1c0.6-1.6,1.7-0.6,2.3,0.3c1,1.5,1.1,3.3,2.1,4.8
	c-0.4-1.4,0.5-2.3,1.2-3.4c0.7-1.1,1.6-1.4,2.6-0.7c1.2,0.8,2.2,0.6,3.3-0.2c1.1-0.8,2.3-1.8,3.6-0.5c1.3,1.3,0.9,2.7-0.1,4
	c1.4-0.8,2.4-1.9,2.8-3.5c0.5-2.1,0.9-2.1,2.7-1c1.8,1.1,2.1,2.2,0.7,3.7c-0.3,0.3-0.6,0.8-0.3,1.3c0.5-2.9,3.1-4.3,5.3-2.8
	c1.2,0.8,1.7,0.1,2.4-0.6c0.9-0.9,1.8-1.7,3-0.3c0.4,0.5,0.8,0.3,1.3,0.2c2.2-0.8,3.2,0.7,4.3,2.1c0.3,0.4,0.1,1.4,1.2,1.1
	c0.8-0.3,1.7-0.4,2-1.5c0.1-0.5,0.2-0.9,0.1-1.4c-0.1-1.1,0.2-1.9,1.3-2.3c1-0.4,1.9,0,2.6,0.7c1,0.9,0.4,1.7,0,2.6
	c-0.1,0.3-0.3,0.6-0.2,1c0.7,0.1,1.1-0.5,1.5-0.9c1.3-1.5,2.7-2.9,4.9-1.6c0.4,0.2,0.8,0.1,1.1-0.1c2-1.2,3.4-0.3,4.3,1.5
	c0.5,1.1,1.1,1.4,2.2,0.9c0.7-0.3,1.4-0.4,2.1-0.2c0.9,0.3,1.7,0.1,2.4-0.5c2.3-1.7,3-1.7,5.2,0.1c0.5-0.7-0.5-2.4,0.9-2.3
	c1.5,0.1,3.3-1.1,4.6,0.6c0.7,0.9,1.8,0.7,2.4,0c1.5-1.7,2.4-1.7,3.3,0.3c0.6,1.4,0.8,2.3,2.5,0.9c1-0.9,2.3-0.2,3,1
	c0.5,0.8,1,1.4,1.7,0.2c1-1.7,2.5-1.8,4.1-1.1c1.3,0.5,2.5,0.8,2.8-1.2c0.1-0.8,0.8-1.1,1.6-1c0.9,0.2,1.2,0.8,1.1,1.6
	c-0.1,1.1,0.2,1.9,1.3,2.5c-1.2-1.2-1-2.1,0.3-2.9c1-0.7,1.3-1.7,1.1-3c-0.2-0.9-0.3-2,0.9-2.1c1.2-0.1,1.5,0.9,1.5,2
	c0,0.5,0.1,1,0.4,1.4c1.6,1.6,2.8,3.3,1,5.6c0.9-0.6,1-1.5,1.4-2.2c1.2-2.1,2.6-2.6,4.7-1.3c0.8,0.5,1.4,0.8,2.2,0.3
	c1.5-1,3.2-0.9,4.8-1.1c1.2-0.2,2.2-0.3,2.7,1.2c0.2,0.6,0.8,1,1.3,0.5c1.5-1.2,3.5-0.6,5-1.5c0.4-0.3,1-0.4,1.3,0
	c0.7,1,1.4,1.6,2.8,0.9c0.9-0.5,2-0.4,3-1.1c1.5-1,3.6-0.9,5.4-0.3c1.1,0.4,2,0.9,3.2,0.3c0.7-0.4,1.4,0.2,2,0.4
	c2.2,0.9,3.2,0.6,4.4-1.4c0.3-0.5,0.6-0.8,1.1-0.3c0,11.9,0.3,23.8,0,35.6C303.4,247.2,302.6,254.4,299.8,261.1z"/>
<path class="st3" d="M303.6,204.5c-1.6,0.1,0.2,2.1-1.4,2.5c-1.6,0.3-3.1,0.8-4.6-0.2c-0.6-0.5-0.9-1.1-1.8,0.1
	c-0.5,0.6-2.1,0.1-3-0.7c-1.1-1.1-2.4,0.4-3.3-0.1c-1.5-0.7-2-0.3-2.2,1.2c-0.1,0.7-0.7,0.4-1.1,0.2c-0.5-0.2-1-0.4-1.6-0.1
	c-2.2,0.9-2.3,0.8-3.4-1.2c-1.8,1.6-4.6,0.5-6.4,2.4c-0.4,0.4-0.9,0-1.2-0.5c-0.4-0.6,0.2-1.8-0.6-1.9c-1.6,0-3.3,0.1-4.8,0.6
	c-1.6,0.4-2.9,2.4-4.5-0.1c-0.4-0.6-2-0.7-2.7,0.4c-0.5,0.7-1,1.5-1.3,2.3c-0.3,0.7-0.2,1.6-1,2c-0.2,0.1-0.7-0.2-0.7-0.4
	c-0.4-0.9-0.6-2,0.2-2.7c1-0.9,0.9-1.3-0.1-2.1c-1-0.8-2.1-1.8-1.6-3.5c0.2-0.8-0.2-1.4-0.9-1.3c-0.7,0.1-0.7,0.8-0.5,1.4
	c0.9,2,0.1,3.2-1.7,4.1c-1.2,0.6-0.4,1,0.3,1.4c0.7,0.4,1.1,1.1,0.4,1.8c-0.7,0.7-1.1-0.3-1.5-0.6c-0.8-0.7-1.8-1.4-1.1-2.8
	c0.2-0.5,0.1-1.2-0.7-1.3c-0.7-0.1-1.2,0.2-1.1,0.9c0.4,3-1.7,2-2.8,1.6c-2.1-0.8-3.5-1.1-4.5,1.5c-0.6,1.6-1.7,0.3-2-0.4
	c-1-1.9-1.8-3-3.4-0.5c-0.6,0.9-1.3,0.8-1.8-0.2c-0.2-0.4-0.2-0.8-0.3-1.1c-0.3-1-0.5-2.6-2-2.2c-1.8,0.5,0.8,1.6-0.4,2.4
	c-1-0.3-2.3-1.6-3.8,0.5c0.5-2,0.6-3-1.4-2.3c-0.7,0.3-1.7,0-2.5-0.1c-0.3,0.3-0.1,0.6,0,0.9c0.1,0.8,0.6,2-0.3,2.4
	c-0.8,0.3-1.1-0.8-1.6-1.4c-0.9-1.1-2.2-0.9-3.1,0c-1.1,1.1-2,2.1-3.8,1c-1.2-0.7-2.6,1.6-3.6,0.8c-0.8-0.6-0.6-2.4-1.8-3.1
	c-0.2-0.1-0.5-0.4-0.5-0.4c-2.2,2.1-6.2-1.5-7.9,2.5c-0.1,0.3-0.6,0.5-0.9,0.7c-0.5,0.5-0.9,1-1.6,0.5c-0.7-0.6-0.1-1.2,0.2-1.7
	c0.7-1.2,1.6-2.3-0.4-3.1c-1-0.4-2.2,0.1-2.1,0.9c0.9,3.5-1.1,4.4-4.1,4.9c0.3-1.5-0.6-2.3-1.6-3.3c-1.6-1.6-2.6,0.2-3.9,0.3
	c-0.4-1.7-0.9-2.6-2.4-0.6c-1,1.4-2.3,2.6-3.6,0.1c-0.3-0.6-1.3-0.7-1.4-0.4c-0.6,1.3-3.6,1.4-2.2,3.9c0.3,0.4,0,0.8-0.4,1
	c-0.5,0.2-0.6-0.2-0.8-0.5c-1.4-2,0.5-3.1,1.1-4.5c-0.2-0.4-0.7-0.1-0.8-0.2c-1.9-2.3-2.6-2.3-3,1c-0.2,2-2.9,3.1-4.2,2.3
	c0.2-0.7,1-0.8,1.3-1.3c0.6-0.9,0.4-1.8-0.4-2.6c-0.7-0.7-1.4-0.5-2.1,0.1c-1.5,1.3-3,2.7-5.1,0.6c-0.6-0.6-2.9,2.1-2.8,3.3
	c0,0.4,0.3,0.8,0.3,1.1c-0.1,0.5-0.3,1-0.9,1c-0.7,0-0.6-0.5-0.7-1c-0.5-1.8-1-3.6-1.9-5.2c-0.2-0.4-0.4-1-1-0.7
	c-0.6,0.2-0.5,0.7-0.2,1.2c0.7,1.1-0.1,1-0.8,0.8c-1.7-0.5-2.7-1.7-2.3-3.7c0.1-0.1,0.1,0,0,0c0.1,0,0.2-0.1,0.4-0.2
	c0-0.1-0.1,0-0.4,0.2c-0.5,0.1-0.8,0.1-1.1,0.1c-0.8-0.7-0.8-1.7-0.8-2.6c0-4.1-0.1-8.3,0-12.4c0-1.6-0.1-3.3,0.2-4.9
	c0.3-0.6,0.8-1.3,0.1-2c-0.3-0.9-0.3-1.8,0-2.7c0.8-0.6,1.2-1.2,0.1-1.9c-0.2-0.6-0.2-1.1,0-1.7c0.4-0.6,1.1-0.9,1.6-1.4
	c1.2-1,2.4-0.9,3.1,0.6c1,2,2.3,3.1,4.7,2.7c0.8-0.1,1.3,0.4,1.8,1c1.4,1.8,3.3,3,5.4,3.8c0.2,0,0.4,0.1,0.6,0.2
	c0.7,0.4,1.4,0.6,2.1,1c1.8,1.3,4,1.9,6,2.7c0.9,0.5,1.9,0.7,2.9,0.9c0.8,0.2,1.6,0.4,2.4,0.5c0.9,0.3,1.9,0.3,2.8,0.2
	c6.3,0.3,12.4-0.3,18.2-2.8c9.8-4.3,16.5-11.4,20.3-21.4c0.4-0.9,0.4-2.1,1.5-2.6c2.4,0.6,4.9,0.8,7.4,0.5c0.5-0.1,1.5-0.1,1.5-0.5
	c0.5-2.3,2.2-2,3.8-2c1.7,0,3.4,0.1,4.7,1.2c1,0.8,1.5,0.3,2.1-0.4c0.8-1,1.7-1.2,2.6-0.1c0.4,0.5,0.9,1,1.4,0.4
	c1.5-1.9,2.8-0.5,4.2,0.1c0.8,0.4,1.5,0.9,2.5,1.2c0.2-1.5,1-2.6,1.5-3.8c0.6-1.5,1.1-1.6,2.2-0.2c1,1.3,0.5,2.8,0.8,4.1
	c0.1,0.4-0.1,1.1,0.5,1.2c0.7,0.1,1-0.5,1.1-1c0.3-1,0.3-2.2,1.3-3c0.2-0.1,0.4-0.2,0.6-0.2c1.6,0.1,2.6,0.8,2.5,2.5
	c-0.1,1.1,0.5,1.5,1.5,1.1c2.3-0.8,4.8-0.2,7.1-1c0.6-0.2,1.3-0.1,1.9,0.1c1.3,0.5,2.5,0.6,3.5-0.5c0.4-0.4,1-0.6,1.6-0.4
	c1.4,0.5,2.5,0.3,3.7-0.7c0.8-0.7,2.2-0.4,2.6,0.3c1.3,2.1,2.2,0.5,2.8-0.3c1-1.4,1.9-1.7,3.1-0.6c0.8,0.7,1.5,0.9,2.2,0
	c0.4-0.5,1.2-1,1.7-0.4c1.6,1.9,4.3,2.1,5.9,4C303.6,176.1,303.6,190.3,303.6,204.5z"/>
<path class="st4" d="M190.5,39.1c8.1,0.1,15.2,2.8,21.6,7.6c0.6,0.5,1.3,0.9,1.9,1.4c1.9,0.2,2.8,1.8,3.8,3
	c14,16.2,12.2,40.3-4,54.1c-6.3,5-13.4,7.9-21.4,8.9c-2.8,0.3-5.5,0.2-8.3,0.1c-10.6,0-21.3,0.2-31.9,0c-12.1,0.1-24.2,0.1-36.3,0
	c-0.9,0-1.8,0-2.5-0.7c0.4-1.7,1.8-1.3,2.8-1.3c5.6-0.1,11.2,0,16.8,0c4.9,0,9.7,0,14.6,0c3.7,0,3.8-0.1,3.8-3.7
	c0-20.3,0-40.6,0-60.9c0-2.2-0.1-4.5,0.1-6.7c0.1-1.1,0.4-2,1.9-2C165.8,39,178.2,38.8,190.5,39.1z"/>
<path class="st5" d="M190.5,39.1c-11.8,0-23.6,0.1-35.4,0c-2.3,0-2.9,0.6-2.9,2.9c0.1,22.6,0.1,45.2,0.1,67.7c0,3.3,0,3.3-3.2,3.3
	c-11,0-22,0-33,0c-0.9,0-1.8-0.3-2.6,0.3c-0.4,0.7-1.1,0.6-1.7,0.6c-4.5-0.6-8.9-1.7-13-3.7c-4.2-2.1-7.9-4.7-11.2-8
	c-11.8-12.5-13.7-30.9-4.9-45.7c1.8-3.1,3.6-6.2,6.5-8.4c0.8-0.5,1.6-0.8,2.2-1.5c0.3-0.2,0.5-0.4,0.9-0.3c4.3-2.5,8.6-5.1,13.6-6.3
	c2.9-0.7,5.8-1,8.8-1c24.6-0.1,49.1-0.1,73.7-0.2C189.1,38.9,189.8,39,190.5,39.1z"/>
<path class="st6" d="M213.4,104.8c5.8-5.3,10.3-11.6,12-19.4c3.1-13.6-0.1-25.5-9.8-35.6c-0.6-0.6-1.1-1.2-1.6-1.7
	c-1.1-1.8-0.4-3,1.3-3.7c0.7-0.3,1.5-0.5,2.2-0.9c0.7-0.4,1.2-1,1.9-1.5c0.8,1.9,1.6,2.8,3.6,1.2c1.4-1.2,4.5,0.2,4.9,2
	c0.2,0.8,0.5,1.5,1.2,1.6c0.8,0.1,1-0.7,1.1-1.3c0.2-1.2,1.2-0.3,1.8-0.8c-0.8-1.1-1.7-2-3.2-2.3c2.9-1.1,3.7-0.7,4.4,1.9
	c0.1,0.5,0.3,0.9,0.5,1.4c0.3,0.7,0.7,1.1,1.5,0.8c0.6-0.2,0.8-0.6,0.6-1.3c-0.3-1.4,0.5-2.2,1.8-2.6c-0.2,1.7,1.4,4,3.1,4.4
	c1.1,0.3,1.2-0.8,1.7-1.3c0.5-0.5,0.6-1.8,1.7-0.7c0.6,0.6,2.6,0.4,1.3,2.2c-0.6,0.8,0.2,1.5,0.7,2c0.1,0.1,0.7,0.1,0.8,0
	c0.6-0.5,0.7-1.4,0.2-1.9c-1.5-1.7,0.7-2.1,1.1-3c0.7-1.3,1.4-0.2,2.1,0.2c0.8,0.5,1.5,0.3,2.2-0.3c1.4-1.2,2.8-1.5,4.6-0.7
	c1.1,0.5,2.8,1.7,3.7-0.7c0.2-0.5,0.9-0.4,1.2,0c0.4,0.6,1.9,0.7,1.3,1.9c-0.2,0.5-0.7,1,0,1.4c0.7,0.3,1.4-0.2,1.6-0.8
	c0.8-2.4,1.9-1.1,3-0.3c0.2,0.1,0.3,0.4,0.5,0.5c0.9,0.4,1.9,1.2,2.6,0.5c0.6-0.5,0.6-1.7,0.8-2.5c0-0.1-0.1-0.3-0.2-0.4
	c-0.1-0.8-0.3-1.6,0.4-2.2c0.3-0.2,0.7-0.2,0.8,0.1c0.4,0.7,1,1.3,0.5,2.4c-0.8,1.8,0.3,2.9,3,3.1c0.3-1-1.1-0.7-1.1-1.5
	c0.3-0.6,1-0.8,1.4-0.4c1.3,1.4,3.3-0.2,4.7,1.4c0.4,0.5,1.8-0.9,2.4-1.9c0.4-0.7,0.3-2,1.8-1.7c1.2,0.2,2,0.4,1.9,1.8
	c0,0.4,0.4,0.7,0.6,0.6c1.7-1.3,3.3-0.1,4.9,0c0.7,0.1,1-0.7,1.3-1.2c1.2-1.8,2.1-1.8,3.2,0c0.2,0.4,0.4,0.8,0.8,0.7
	c2.3-0.3,2.3,1.5,2.7,2.9c1.3,4.6,2,9.3,2.3,14.1c0.8,13.9,0.2,27.7,0.3,41.6c-1.4,2.3-4.1,2.4-6.2,3.5c-1.1,0.6-1.9-0.4-2.7-1
	c-0.8-0.6-1.6-1.3-2.4,0.3c-0.7,1.4-2,1-3,0.1c-0.5-0.4-0.7-1.1-1.3-1.3c-0.7-0.3-1.2-0.8-1.9,0.4c-1,2-2.7,2.4-4.1,1.5
	c-2.2-1.4-2.2-1.4-0.3-3.3c-1.5,0.3-1.9,0.6-2.5,1.9c-0.4,0.9-0.4,2.3-1.9,2c-1.4-0.3-1-1.6-1.1-2.5c-1.4,0.3-1.7,1.7-2.8,2
	c-1.4,0.5-1.6-0.9-2.2-1.6c-3.9,3.7-5.1,3.4-6.8-1.5c-0.5,1.1-0.4,2.3-1.5,2.9c-1.1,0.6-2-0.2-3-0.2c-2.1,0-4.3,0.6-6.2-0.9
	c-0.3-0.2-0.7,0-0.8,0.3c-1.4,2-3,1.1-4.3,0c-1.3-1-1.9-0.8-2.3,0.7c-0.2,0.6-0.3,1.2-0.8,1.7c-0.4,0.4-0.8,0.6-1.3,0.4
	c-0.4-0.2-0.8-0.6-0.7-0.9c1.1-2.2-0.9-3-1.8-4.3c-0.4,0.3-0.5,0.6-0.6,0.9c-1.4,3.5-3.1,3.7-5.5,0.7c-1.9-2.3-4.8-1.9-6.3,0.9
	c-0.2,0.4-0.3,0.9-0.5,1.3c-0.6,0.9-1,2.1-2.1,2.1c-1.2,0.1-0.8-1.3-1.3-2c-0.8-1.2-1.5-1.8-2.4-0.1c-0.7,1.4-1.9,1.7-3,0.9
	c-1.3-1.1-2.8-1.4-4.4-1.5C214.7,105.8,213.9,105.6,213.4,104.8z"/>
<path class="st6" d="M90,48.3C75.8,61.5,73.1,84.6,87,100.7c0.4,0.4,0.7,0.9,1,1.3c-0.2,0.7-0.2,1.4-0.4,2.1c-0.3,1.3-1.2,2.4-2.5,2
	c-1.7-0.4-3.3-0.4-4.9-0.2c-0.8,0.1-1.6-0.2-2.3-0.6c-0.6-0.3-1.2-0.7-1.7,0c-1.3,1.7-2.8,1.1-4,0.1c-1.8-1.5-2.4-0.7-2.8,1
	c-0.1,0.5-0.4,1.1-0.9,1.4c-0.7,0.4-1.7,0.1-1.5-0.4c0.7-2.2-1.2-3.1-2-4.5c-0.4,0.1-0.4,0.5-0.5,0.7c-0.5,1.2-0.8,2.5-2.3,2.7
	c-1.6,0.3-2.4-0.7-3.2-1.9c-1.8-2.5-4.9-2-6.3,1c-0.5,1-1,2-1.8,2.8c-0.7,0.7-1.4,0.8-1.7-0.4c-0.1-0.5-0.3-0.9-0.6-1.3
	c-0.6-1.1-1.4-1.4-2.1-0.2c-1.1,2-2.4,1.7-3.9,0.4c-0.7-0.6-1.5-0.8-2.4-0.8c-0.8,0-1.7-0.1-2.3-0.7c-1.3-1.4-2.5-1.5-3.7,0.1
	c-0.4,0.5-1.2,0.4-1.8,0.2c-0.4-0.1-0.7-0.6-1.1-0.5c-3.2,0.4-6.6-0.5-9.7,0.9c-1,0.5-1.7,0.2-2.4-0.1c-2-0.9-3.9-1.4-5.8,0.3
	c-0.6,0.6-1.4,0.7-2-0.2c-0.9-1.4-2.2-1.2-3.3-0.6c-1.5,0.7-3.2,0.7-4.8,1.5c-0.9,0.4-1.9,0.2-2.7-0.5c0-14.2-0.2-28.4,0-42.6
	C1,58.4,1.5,53,3.2,47.7c0.5-1.5,1.7-1.2,2.5-1.9c0.9-0.7,3.1-0.7,1.3-2.7c-0.4-0.4,0-0.8,0.4-0.9c1.1-0.3,2-0.2,2.8,0.7
	c0.5,0.5-0.2,2.1,0.9,1.7c1.2-0.4,2.8-0.1,3.5-1.6c0.2-0.3,0.2-0.9,0.7-0.7c0.6,0.2,0.5,0.7,0.4,1.2c-0.3,1.5,0.7,2.5,1.7,3.2
	c1.1,0.8,1.7-0.6,2.5-1.1c0.8-0.6,1.9-1.9,3.1-0.1c0.6,0.9,2.8-0.6,3.2-2.2c0.2-0.6-0.2-1.7,0.8-1.7c0.8,0,0.9,1,1.1,1.7
	c0.2,0.5,0.4,1.1,0.5,1.6c0.8,3.3,0.8,3.3,3.5,0.9c-1.5-1.2-1.5-3.8,0-5.1c0.4-0.4,0.8-0.1,1,0.2c1,1.3,2,2.8,1.7,4.2
	c-0.6,2.3,1.2,1.5,1.5,1.2c1.9-2,4.7-2.3,6.7-4.3c0.8,1.8,1.7,2.9,3.7,1.1c1.4-1.2,4.4,0.3,4.8,2.1c0.2,0.8,0.5,1.4,1.3,1.5
	c0.7,0.1,0.9-0.7,1-1.1c0.1-1.3,1.3-0.5,1.9-0.9c-0.8-1.1-1.7-1.9-3.2-2.4c3.1-1,3.7-0.6,4.4,2c0.1,0.5,0.3,0.9,0.5,1.4
	c0.2,0.6,0.6,1,1.3,0.8c0.6-0.1,1-0.5,0.8-1.2c-0.3-1.5,0.7-2.1,2.1-3.1c-1.5,3.4,1.5,3.4,2.7,4.6c0.8,0.8,1.3-0.8,1.8-1.3
	c0.5-0.4,0.6-1.6,1.5-0.7c0.6,0.6,2.2,0.5,1.3,2.1c-0.5,0.9,0.2,1.7,0.8,2.3c0.3,0.3,0.6,0.1,0.9-0.1c0.7-0.7,0.6-1.4,0.1-2.2
	c-1.2-1.8,1.1-1.9,1.5-3c0.3-0.9,1-0.3,1.5,0.2c1,0.9,1.8,0.6,2.7-0.2c1.2-1,2.5-1.3,4.2-0.6c1.2,0.5,2.9,1.9,3.9-0.6
	c0.1-0.4,0.7-0.4,1-0.1c0.6,0.6,1.6,1,1.2,2.1c-0.2,0.5-0.3,1,0.2,1.2c0.6,0.3,1.1-0.2,1.4-0.6c1.9-2,2.7-1.7,3.9,1.2
	c-0.2,0.2-0.4,0.4-0.6,0.5C91.3,47.6,89.9,47.1,90,48.3z"/>
<path class="st7" d="M213.4,104.8c1.3,0.4,2.6,0.8,4,0.5c1.8-0.4,2,1.9,3.6,1.9c1.8,0,0.9-2.5,2.6-2.7c1.1-0.1,2.4,1.3,2.6,3.3
	c0,0.1,0.1,0.3,0.2,0.6c0.8-1.4,1.7-2.4,2.2-3.9c0.6-1.7,3-2,4.4-3.4c0.6,1.5,2.7,1.3,3.1,2.9c0.3,1,0.8,1.6,2,1.6
	c1.4,0,1.7-0.9,2-1.9c0.2-0.5,0.3-1.1,0.6-1.6c0.2-0.4,0.4-1,0.9-1c0.5,0,0.6,0.6,0.7,1.1c0,0.4-0.2,1,0.5,1.1c2,0.4,1.9,1.5,1,2.9
	c-0.2,0.4-0.4,0.7,0.1,1c0.5,0.3,0.9,0,1.1-0.5c0.2-0.4,0.1-0.8,0.3-1.2c0.9-3,1-2.9,3.4-1.1c1.2,0.9,2.7,2.2,3.6-0.5
	c0.3-0.9,0.9-0.7,1.5-0.1c1.3,1.3,2.9,1.6,4.6,0.9c0.8-0.3,1.5-0.2,2.3,0.2c1.7,0.8,2.7,0.3,2.6-1.7c0-0.8-0.1-1.4,0.9-1.5
	c1,0,1.1,0.6,1,1.5c-0.1,1.5,0.8,2.7,2,3.1c1.2,0.5,1.8-1,2.6-1.8c0.5-0.5,0.3-1.5,1.4-1.3c0.9,0.1,0.7,0.9,0.9,1.5
	c0.2,1.1,0.9,1,1.5,0.4c0.5-0.5,0.9-1.1,1.3-1.7c0.4-0.5,1-0.9,1.7-0.5c0.7,0.4,0.4,1,0.1,1.4c-0.3,0.7-0.4,1.3,0.4,1.6
	c0.9,0.3,1.1-0.3,1.1-1c0-1.5,1.3-2.1,2.1-3c0.7-0.7,1.7-0.9,2.3,0c0.7,1.1-0.5,1.2-1.1,1.7c-0.3,0.2-0.7,0.4-1.3,0.7
	c0.9,0.5,1.7,1,2.4,1.4c0.3,0.2,0.6,1.1,0.8,0c0.2-0.9,0.6-1,1.3-0.8c0.4,0.1,0.7,0,0.7-0.4c0.2-0.7-0.7-1.7,0.4-2
	c0.5-0.1,1.2,0.7,1.9,0.7c1.1,0.1,1.3,0.6,1.5,1.5c0.2,0.6,0.9,0.9,1.6,0.9c0.5,0,0.9-0.3,1.1-0.8c0.6-1.4,1.9-1.7,2.9-0.4
	c1.2,1.5,1.9,0.9,3.5,0.4c1.8-0.7,3.2-2,5.1-2.4c0,19.8,0,39.6,0,59.4c-2-1.1-4.6-1.2-6-3.5c-0.4-0.6-0.9-0.1-1.2,0.5
	c-0.9,1.7-1.8,1.4-2.9,0.1c-0.9-1.2-1.8-1.5-2.2,0.4c-0.1,0.7-0.3,1.1-0.9,1.1c-1.1-0.1-1.8,0.5-2.5,1.2c-0.9-0.7,1.2-1.7-0.5-2.2
	c-1.1-0.3-2-0.7-2.6,0.7c-0.2,0.5-0.7,1-1.1,0.7c-2-1.3-3.5-0.5-5,0.9c-0.4,0.4-1.1-0.1-1.5-0.4c-0.7-0.4-1.6-0.7-2.3-0.4
	c-2.6,1.1-5.5,0-8,1.4c-1.1,0.6-1.8-0.7-1.5-1.4c0.7-2.1-0.7-2.4-2-3c-0.1-0.3-0.1-0.4-0.1-0.3c0,0,0,0.1,0.1,0.2
	c0.1,0.3,0.1,0.3,0.1,0.1c-0.5,0.9-1.1,1.6-0.9,2.7c0.1,0.8-0.4,1.3-0.9,1.9c-0.5,0.6-1.1,0.5-1.7,0.3c-0.8-0.3-0.3-0.8-0.4-1.3
	c-0.3-1.9,0.6-4.1-1.8-5.6c0.6,2.1-2.1,3.2-1.3,5.3c0.1,0.3-0.7,0.6-1.2,0.2c-0.3-0.2-0.6-0.7-0.9-0.8c-1.8-0.2-3.2-3.6-5.4-0.5
	c-0.3,0.4-1.5,0.4-1.8-0.7c-0.5-1.7-1.2-1-1.8,0c-0.9,1.4-1.5,2.1-3,0.4c-0.7-0.8-2.3-0.9-3.4-1c-0.8-0.1-1.7,0.2-2.6-0.1
	c-0.4-0.1-0.9-0.2-1,0.3c-0.6,3.4-3,2.3-5.1,2.2c-1.6-0.1-3.4,0.9-4.7-0.9c-0.9-1.3-0.2-2.7,0-3.9c1.4-9.3-0.3-18-5.5-25.8
	c-5.6-8.6-13.6-13.9-23.7-16c-1.2-0.3-2.6-0.2-3.5-1.3c4.7-0.8,9.3-1.9,13.6-4.1C208.9,108,211.1,106.3,213.4,104.8z"/>
<path class="st7" d="M0.9,106.3c2.7,0,5.2-0.4,7.5-2.2c0.9-0.7,1.5,1,2.6,0.5c1.4-0.7,1.3-0.1,1.2,1.2c-0.1,0.7,1,0.4,1.4-0.1
	c1.6-2.4,3.6-1.2,5.4-0.6c1.2,0.4,2.1,1.5,3.1-0.4c0.7-1.3,2.2-0.4,3,0c1.3,0.7,2.2,0.8,3.4-0.2c1.1-0.9,2.4-0.8,3.5,0.1
	c1.1,1,1.9,1.2,2.7-0.4c0.6-1.2,1.9-1.6,2.8-0.2c0.6,1,1.5,1.4,2.6,1.4c1.4-0.1,2.6,0.1,3.5,1.5c0.5,0.8,1.8,0.9,2.1-0.2
	c0.4-1.5,1.5-2.3,2.5-1.9c0.9,0.4,1.8,1.8,1.7,3.2c0,0.1,0.1,0.3,0.2,0.6c0.7-1.4,1.7-2.4,2.2-3.9c0.6-1.7,3-2,4.4-3.4
	c0.7,1.3,2.5,1.4,3,2.8c0.4,1.2,1,1.9,2.4,1.8c1.5-0.1,1.5-1.3,1.9-2.1c0.2-0.4,0.3-0.9,0.5-1.3c0.2-0.4,0.4-1.1,0.9-1
	c0.7,0.1,0.7,0.8,0.7,1.3c0,0.3-0.4,1,0.1,1c2.8-0.1,1.9,1.5,1.3,2.9c-0.2,0.5-0.1,0.8,0.3,0.9c0.3,0.1,0.7,0,0.8-0.3
	c0.2-0.3,0.3-0.7,0.4-1.1c1-3.2,0.9-3.1,3.6-1.3c1.1,0.7,2.7,2.1,3.5-0.4c0.4-1.3,1-0.7,1.5-0.2c1.3,1.2,2.8,1.5,4.4,0.9
	c0.9-0.3,1.6-0.2,2.5,0.3c1.5,0.8,2.7,0,2.7-1.8c0-0.8-0.1-1.5,0.9-1.6c6.6,6.5,14.5,10.2,23.6,11.4c-0.8,1-2,1-3,1.2
	c-15.9,3.3-26.8,14.3-29.7,30.3c-0.7,3.6-0.5,7.3-0.1,11c0.2,1.5,0.8,2.9,0.3,4.5c-0.3,0.5-0.9,0.7-1.4,0.6c-1.9-0.5-3.8-1.5-5.7,0
	c-0.3,0.2-1,0-1.3-0.4c-0.6-0.7-1-0.8-1.7,0c-1,1.1-2.1,1.1-3.3,0.1c-1.6-1.3-3.6-1.1-5.5-0.9c-0.6,0-0.6,0.6-0.7,1.1
	c-0.1,0.2-0.2,0.4-0.4,0.5c-3.6,1.6-7.5,0.4-11.2,0.9c-2-2.3-3.4,0-5,0.6c-0.9,0.3-1.6,0.7-1.9-0.9c-0.3-1.7-2.2-1.5-3.3-1.1
	c-2.5,1-4.7,0-6.8-1c-0.9-0.4-1.4-0.4-2.1,0.1c-1.4,0.9-2.9,1.7-4.7,0.8c-0.3-0.2-0.7-0.2-0.9,0.1c-1.7,1.9-3.5,0.9-5.6,0.5
	c-3.6-0.6-7.5-0.9-10.9,1.6c-0.2,0.1-0.4,0.3-0.6,0.3c-1,0.3-2.1,1.1-2.7-0.2c-0.5-1.1,0.7-1.5,1.4-1.8c2.3-1.1,1.2-2.7,0.9-4.3
	c-0.9,0.4-1.3,1-1.1,1.9c0.3,1,0.5,2-0.7,2.4c-1.3,0.4-1.8-0.6-2.3-1.5c-0.2-0.3-0.4-0.7-0.6-1C0.9,141.1,0.9,123.7,0.9,106.3z"/>
<path class="st2" d="M105.4,261c-0.6,0.6-1.3,1.3-2.3,0.9c-1.8-0.6-3.4-0.9-4.6,1c-0.4,0.7-0.9,0-1.2-0.5c-1.3-2.1-1.3-2.1-3.5-1.3
	c-0.2,0.1-0.5,0-0.6-0.1c-3.5-2.1-4.5-1.6-6.6,1c0.4,0.9,2.2,0.6,1.8,2.1c-0.3,1.1-1.4,1.2-2.3,1.4c-0.6,0.1-1.1-0.2-1.5-0.6
	c-0.4-0.5,0.1-0.9,0.4-1.2c1.2-1.1,0.4-1.8-0.4-2.8c-1.8-2.2-3.8-1-5.3,0c-1.9,1.4-4,0.8-5.3,0.2c-1.9-0.8-3.5-0.6-5.2-0.2
	c-1.3,0.3-1.8-0.2-2.2-1.2c-0.3-0.7-0.1-1.9-1.2-1.6c-1,0.3-1.6,1.3-1.5,2.4c0,0.6,1.1,1.4,0.1,1.8c-1.1,0.5-1-0.9-1.4-1.4
	c-0.4-0.6-0.9-1.1-1.4-1.6c-0.3-0.4-0.5-1.1-1.3-0.8c-0.7,0.3-0.4,0.9-0.2,1.4c0.2,0.7,0,1.7-0.6,1.4c-1.2-0.6-2.6,1.6-3.3-0.2
	c-1-2.4-1.5-1-2.1,0.1c-0.2,0.3-0.3,0.8-0.6,1c-0.6,0.6-1.4,1.2-2.3,0.5c-0.8-0.5-1-1.2-0.5-2c0.2-0.4,0.6-0.9,0.1-1.3
	c-0.5-0.4-1.1-0.2-1.5,0.2c-0.6,0.5-1.3,1-1.4,1.9c0,1-0.3,1.6-1.5,1.6c-1.4,0.1,0.1,1.2-0.5,1.6c-0.6-0.4-1.1-0.8-1.7-1.1
	c-0.7-0.4-0.9-1-0.1-1.4c0.7-0.4,1.1-0.9,0.7-1.5c-0.5-0.8-1.2-0.4-1.9-0.2c-0.8,0.3-1.3,0.9-1.6,1.7c-0.3,0.7-0.3,1.6-1.4,2
	c-0.2-0.8-1-1.4-0.3-2.3c0.5-0.7,1.5-1.4,0.6-2.2c-1-0.9-2.5-0.9-3.3-0.1c-1.5,1.5-2.4,1.2-3.7-0.2c-0.8-0.8-1.6-0.6-2.4,0.3
	c-2.3,2.5-3.8,2.6-6.5,0.4c-0.4-0.3-0.6-0.8-1.2-0.5c-1.5,1-3.4,1.5-4.6,2.8c-0.3,0.3-0.4,0.7-0.6,1c-0.3,0.6,0.8,1.9-0.6,1.8
	c-1.2,0-1.6-1.1-1.6-2.3c0-0.3,0-0.6,0-1c0.3-0.3,0.7-0.6,1-0.9c-0.4,0.2-0.7,0.6-1,0.9c-2.1-0.1-4.2,0.4-5.8-2
	c-0.6-0.9-3.2,0.1-4.8,0.6c-1.4-1.7-1.4-3.8-1.9-5.7c-3.3-16.7-1.5-33.5-1.9-50.3c0.9-0.3,1.8,0.3,2.8-0.4c1-0.7,2,0.4,2.5,1.5
	c0.7,1.5,1.2,1.2,1.8,0c0.1-0.2,0.2-0.4,0.3-0.6c1-2.7,1.3-2.8,2.9-0.6c0.7,0.8,1.4,1,2.3,0.7c0.7-0.2,1.3-0.6,2-0.8
	c0.6-0.1,1.1-0.2,1.5,0.3c0.4,0.5,0.1,0.9-0.2,1.3c-1,1.3,0.9,1.9,0.7,3c0.9,0.1,1.5-0.2,2.2-1.1c-0.9-0.2-2.1,0.2-2.2-1
	c-0.1-1.2,0.7-1.8,1.8-2.2c0.6-0.2,1.2-0.5,1.8-0.7c1.6-0.5,3.1,0,4.1,1.2c1,1.1-0.9,1.6-1,2.6c0.9-0.3,1.2-1.1,1.8-1.6
	c1.2-0.9,2.4-1.7,3.9-0.9c0.5,0.3,1.1,0.3,1.6,0c2-1.1,3.4-0.1,4.3,1.6c0.6,1,1,1.2,2.2,1c1.9-0.4,3.8,0,5.4-1.7
	c0.9-0.9,2.5-0.1,3.7,0.6c-0.1-2.1,0.1-2.1,2.1-2.2c2.3-0.1,4.5,1.4,6.9-0.2c0.9-0.6,2,0.1,2.4,1.2c0.5,1.1,0.7,2.2,2.4,1.1
	c0.9-0.6,2.2-0.4,3,0.7c0.7,1,1.1,0.9,1.8,0c1-1.3,2.3-1.5,3.9-0.9c1.3,0.5,2.4,0.7,2.9-1.2c0.4-1.4,1.6-1.2,2.7-0.5
	c1.9,1.2,2.6,0.7,2.7-1.5c0-0.4-0.1-0.8,0-1.2c0-0.9,0.2-1.7,1.3-1.6c0.9,0,1.4,0.7,1.5,1.6c0.2,2.2,1,4.3,1,6.6
	c-0.8,3.5-2.4,6.7-2.8,10.3c-1.5,11.8,1.5,22,9.8,30.7c4.2,4.4,9.1,7.4,14.7,9.5C104.1,259.9,105.2,259.9,105.4,261z"/>
<path class="st3" d="M8.5,206c0,1.1-0.3,1.8-1.5,1.9c-1.4,0.1-1.2-0.7-1.2-1.7c0-0.7-0.9-0.8-1.4-1.2c-1.1-0.7-0.7,0.5-1,0.8
	c-1.2,1.2-1.5-0.9-2.5-0.8c0-15.5,0-31,0-46.5c0.6,0.3,1.2,0.6,1.5,1.4c0.2,0.7,0.7,1.1,1.5,0.7c0.6-0.4,0.7-0.9,0.2-1.6
	c-0.6-0.8,0.6-3.2,1.5-3.3c0.3,0,0.7,0.1,0.8,0.3c1.2,1.6,0.4,4.6-1.4,5.6c-0.5,0.3-1.8,0.1-1.3,1.2c0.4,0.8,1.5,0.2,1.9-0.2
	c1.4-1.3,3.5-1.2,4.6-2.7c0.1-0.1,0.3-0.3,0.4-0.2c2.7,2.1,6.5-1.1,9.1,1.8c0.8,0.8,1.4-0.3,2-0.6c1-0.6,1.6-2.2,3.3-0.5
	c0.8,0.7,2.7-0.2,3.7-1.3c0.8-0.9,1.3-0.8,2.3,0.1c1.3,1.3,3.5,1.7,5,1.4c1.4-0.3,2.6-0.5,4.1-0.4c2,0.1,2.1,0.9,0.9,2.8
	c1.6-0.8,2.9-1,3.8-2.3c0.7-0.9,1.7-2.3,2,0.3c0.1,0.6,0.5,0.9,1,0.8c3.4-1,7,0.6,10.4-0.8c0.3-0.1,0.6,0,1,0l0.2,0.2l0,0l-0.2-0.1
	c-0.6-1.3-1.2-2.5,1.3-2c1.5,0.3,3.1-0.2,4.5,0.5c0.1,0.1,0.4-0.1,0.4-0.1c1.5,2.4,2.6,1.7,3.8-0.4c0.3-0.6,1.1-0.6,1.4,0.3
	c0.7,1.8,1.7,1.6,2.6,0.2c0.5-0.8,0.9-1,1.6-0.3c1.1,1,2.5,1.3,4,1.2c1.1,0.2,1.1,1.2,1.4,2c5.2,13.4,14.7,21.8,29,24.3
	c0.7,0.1,1.5,0.1,1.7,1c-0.4,1-1.3,1-2.2,1.2c-11.5,2.1-20,8.4-25.9,18.3c-0.4,0.7-0.6,1.8-1.7,1.7c-0.2-2.1-1.2-4.1-1-6.3
	c0.1-0.8-0.3-1.3-1.1-1.3c-0.8,0-0.8,0.7-0.7,1.2c0.1,0.9,0.4,1.8,0,2.8c-0.8,1.8-1.8,2-3.2,0.7c-0.5-0.5-1-1.2-1.8-0.8
	c-0.8,0.3-0.4,1-0.5,1.6c-0.1,2.1-2,1.3-2.7,0.9c-2.3-1.1-3.7-0.8-4.9,1.5c-0.5,1-1.1,0.4-1.6-0.3c-1.3-2-2.2-2.1-3.8-0.4
	c-0.7,0.8-1,0.4-1.3-0.3c-0.3-0.7-0.6-1.3-0.8-2c-0.6-1.6-1.5-1.8-2.5-0.5c-0.4,0.5-1,1-1.3,0.6c-1.6-1.6-3.7,0.1-5.3-1
	c-0.4-0.2-0.7-0.3-1.1,0c-0.5,0.4-0.4,0.8,0,1.3c0.5,0.6,0.8,1.4,0,1.8c-1.1,0.6-0.7-0.8-1.1-1c-1.2-0.5-2.5-1.7-3.7,0
	c-0.9,1.3-2,0.9-3.2,1.2c-2.7,0.5-4.5,0.3-5.5-2.5c-0.1-0.2-0.4-0.3-0.5-0.5c-1.5-1.1-2.4,2.3-4.4,0.3c-1.1-1.1-2.7,0.6-3.8,1.8
	c-0.6,0.6-1.3,2-2.2,1.2c-0.8-0.7,0.3-1.8,1-2.5c0.2-0.2,0.6-0.2,0.7-0.5c-1.8-2.3-3.9-1.2-6-0.4c-0.8,0.3-1.5,1-1,1.8
	c0.6,1,1.2-0.1,1.7-0.4c0.2-0.1,0.4-0.2,0.8-0.4c0,1.5,0.1,2.9-1.7,3.1c-0.6,0.1-1.8,0.8-1.8,0.1c0.1-1.4-1-1.6-1.5-2.4
	c-0.9-1.4,1.2-1.1,1.4-2.1c-1.3-0.5-2.1,0.5-3,0.8c-1.5,0.5-2.7,0.5-3.4-1.1c-0.2-0.4,0.1-1.3-0.7-1.3c-0.9,0.1-0.5,1-0.6,1.5
	C9.1,205.6,8.7,205.8,8.5,206z"/>
<path class="st6" d="M2.8,255.3c0.6,1.9,1.3,3.8,1.9,5.7c0.5,2,1.8,3.7,1.8,5.9c-1.9-3.3-3.2-6.8-3.8-10.6
	C2.7,256,2.7,255.7,2.8,255.3z"/>
<path class="st2" d="M296.7,269.2c-0.2-1.2,0.5-2,1.1-2.8c0,0.2,0.1,0.4,0.1,0.5C297.9,267.9,297.6,268.7,296.7,269.2z"/>
<path class="st8" d="M81.3,208.9c3.5-6.5,8.2-11.9,14.5-15.8c4.8-2.9,10-4.3,15.5-5.3c0.9-0.9,2.1-0.8,3.1-0.8c11.5,0,23,0,34.6,0
	c1.1,0,2.3-0.1,3.2,0.8c0.1,5.1,0.1,10.2,0.2,15.3c0,6.9-0.1,13.9-0.1,20.8c0,13.3-5.3,23.9-16.2,31.7c-0.3,0.2-0.5,0.4-0.7,0.7
	c-0.3,0.6-0.8,0.9-1.4,0.9c-1.4,0.5-2.7,1.1-3.9,2c-8.1,3.2-16.3,3.8-24.8,1.9c-6.2-2.1-11.8-5-16.5-9.7
	c-10.8-10.9-14-26.8-8.1-40.9C81,209.9,81.1,209.4,81.3,208.9z"/>
<path class="st1" d="M134,257.1c0.3-0.5,0.8-0.8,1.4-0.9c0.5,0.1,1.1,0.2,0.9,0.8c-0.3,0.9-1.3,1-2.1,1
	C133.6,258.1,134,257.5,134,257.1z"/>
<path class="st1" d="M230.8,257.4c0,0.5-0.3,0.8-0.8,0.7c-0.7-0.1-1.2-0.5-1.4-1.2c-0.1-0.5,0.3-0.6,0.8-0.6
	C230.2,256.3,230.6,256.7,230.8,257.4z"/>
<path class="st1" d="M192.5,262.4c-0.5-0.1-0.8-0.4-0.8-0.8c0-0.7,0.5-1,1.1-0.9c0.4,0,0.9,0.2,0.8,0.7
	C193.5,261.9,193.1,262.3,192.5,262.4z"/>
<path class="st1" d="M288.5,258.3c0,0.4-0.2,0.6-0.5,0.6c-0.2,0-0.4-0.2-0.5-0.3c-0.1-0.3,0-0.6,0.3-0.7
	C288.2,257.8,288.4,258,288.5,258.3z"/>
<path class="st1" d="M161.3,258.1c-0.2,0.6-0.4,0.9-0.7,0.8c-0.2,0-0.3-0.3-0.4-0.5c0.2-0.2,0.4-0.4,0.7-0.5
	C161,257.9,161.2,258,161.3,258.1z"/>
<path class="st1" d="M154.6,259.4c-0.1,0.1-0.3,0.4-0.4,0.4c-0.3,0.1-0.4-0.2-0.3-0.4c0.1-0.2,0.3-0.3,0.5-0.4
	C154.4,259.1,154.5,259.3,154.6,259.4z"/>
<path class="st9" d="M152.2,187.8c-13.6,0-27.2,0-40.9,0c-1.8-0.4-3.6-0.6-5.3-1.1c-13-3.6-21.7-11.8-26.2-24.5
	c-0.2-0.6-0.5-1.2-0.7-1.7c-1.3-6.2-1.8-12.5-0.1-18.7c4.3-15.3,14.3-24.6,29.9-27.8c0.9-0.2,1.9-0.3,2.8-0.5c0.6,0,1.2,0,1.8,0
	c9.2,0,18.3,0.1,27.5,0.1c3.7,0,7.5,0,11.2,0c1,1.1,0.8,2.4,0.8,3.6c0,8,0.1,16-0.1,23.9c0,1-0.1,1.9,0.2,2.8
	c-0.3,4.5-0.1,9-0.2,13.6c-0.1,4.6,0.1,9.3,0,13.9c0,1.2,0.1,2.4-0.7,3.4c0,0.6,0,1.3,0,1.9c0.3,0.5,0.3,1,0,1.4c0,1.1,0,2.2,0,3.4
	c0.2,0.3,0.2,0.6,0,1C152.3,184.2,152.2,186,152.2,187.8z"/>
<path class="st10" d="M152.3,157c0-1.9-0.1-3.7-0.1-5.6c0-2.4-0.2-4.9,0.4-7.3c-0.3-3.5,1.1-6.7,2.6-9.7c4.9-10,12.7-16.7,23.3-20.1
	c1.9-0.6,3.9-0.4,5.9-0.8c2.8,0,5.6-0.1,8.4-0.1c11.5,1.5,20.9,6.7,27.4,16.4c6,8.8,7.7,18.6,5.5,29c-0.1,0.5-0.2,1.1-0.2,1.7
	c-2.2,6.5-5.4,12.4-10.4,17.1c-6.9,6.4-15,9.8-24.3,10.2c-1.7,0.1-3.5,0-5.3,0c-0.9-0.5-2.1,0.2-3-0.5c-0.7-0.3-1.6,0.3-2.3-0.5
	c-1-0.3-2.1-0.4-3-0.9c-2.3-0.7-4.6-1.3-6.4-2.9c-0.5-0.5-1.3-0.4-1.7-1.1l0,0c-5.1-2.3-8.4-6.5-11.4-10.9
	C154.8,166.8,153.1,162.1,152.3,157z"/>
<path class="st3" d="M152.3,157c0.6,0.2,0.7,0.9,0.8,1.4c2.1,9.6,7.3,17.1,15.3,22.8c0.3,0.2,0.5,0.4,0.7,0.6
	c-2.8,0.1-4.7-1.6-6.3-3.6c-0.7-0.9-1.1-1.1-2.1-0.8c-1.9,0.6-3.3-0.5-3.9-2c-0.9-2.3-1.8-3-3.6-0.9c-0.2,0.2-0.6,0.1-0.9,0.2
	C152.3,168.9,152.3,163,152.3,157z"/>
<path class="st2" d="M164.4,203.6c-1,0.4-1.6,1.6-2.8,1.8c-0.6,0.1-0.8-0.6-0.6-1c0.4-1.4,1.7-1.2,2.7-1.6
	C164,202.6,164.4,202.9,164.4,203.6z"/>
<path class="st2" d="M217.7,203.7c-0.6,1.6-1.7,2.3-2.9,2.4c-0.8,0.1-0.6-0.9,0.6-1.5C216,204.3,216.7,204.1,217.7,203.7z"/>
<path class="st2" d="M277.3,206.2c0.5-1.4,0.5-2.5,1.7-2.4c0.4,0,1,0.5,0.9,0.9C279.5,205.9,278.4,205.4,277.3,206.2z"/>
<path class="st3" d="M152.3,178.2c0-0.5,0-1,0-1.4c0.7,0.2,1.4,0.5,2.2,0.8C153.9,178.5,153,178,152.3,178.2z"/>
<path class="st2" d="M196.1,206.2c-0.2,0.6-0.5,1-1.1,1c-0.1,0-0.3-0.4-0.3-0.5C194.8,206.2,195.2,205.9,196.1,206.2z"/>
<path class="st2" d="M153.1,203.1c0.7-1,1.3-1.3,2.2-0.4C154.7,203.4,153.9,203,153.1,203.1z"/>
<path class="st3" d="M177.2,185.8c1.1,0.1,2.1,0.4,3,0.9C179,186.9,178,186.8,177.2,185.8z"/>
<path class="st3" d="M152.3,182.5c0-0.3,0-0.6,0-1c0.4,0.1,1.1-0.2,1.1,0.5C153.4,182.6,152.7,182.4,152.3,182.5z"/>
<path class="st3" d="M182.4,187.3c1,0,2.1-0.1,3,0.5C184.4,187.6,183.3,188.2,182.4,187.3z"/>
<path class="st3" d="M169.1,181.9c0.7,0.2,1.3,0.4,1.7,1.1C170,183,169.3,182.8,169.1,181.9z"/>
<path class="st11" d="M184.5,113.5c-2.5,0.7-5.2,1.1-7.6,2.1c-12.5,4.8-20.5,13.7-23.7,26.8c-0.2,0.6-0.3,1.2-0.5,1.9
	c-0.8-0.7-0.4-1.6-0.4-2.5c0-9.4,0-18.8-0.1-28.2C163,113.5,173.7,113.5,184.5,113.5z"/>
<path class="st0" d="M90,48.3c-0.2-0.5-1.2-0.7-0.8-1.4c0.5-0.9,1,0.2,1.5,0.2c0.4,0,0.7-0.1,1.1-0.2C91.4,47.7,90.7,48.1,90,48.3z"
	/>
<path class="st0" d="M223.9,47.6c0.8-1.1,0.7-2.2,1.9-2.4c0.2,0,0.6,0.4,0.5,0.6C226.2,46.9,225.4,47.3,223.9,47.6z"/>
<path class="st0" d="M256.8,47.2c0.4-0.1,0.5,0.3,0.6,0.6c0.1,0.3,0,0.6-0.3,0.8c-0.4,0.2-0.6,0-0.7-0.3
	C256.2,47.8,256.4,47.4,256.8,47.2z"/>
<path class="st7" d="M293.5,101.3c-0.2,0.2-0.4,0.4-0.7,0.5c-0.3,0.1-0.4-0.2-0.2-0.4c0.2-0.2,0.5-0.4,0.7-0.6
	C293.3,101,293.4,101.1,293.5,101.3z"/>
<path class="st0" d="M47.7,47.6c0.7-0.7,0.1-2.4,1.7-2.5c0.2,0,0.6,0.4,0.6,0.6C49.9,47.1,48.7,47.2,47.7,47.6z"/>
<path class="st0" d="M8.5,47.8c-0.8,0-1.2-0.1-1.2-0.6c0-0.4,0.4-0.7,0.8-0.7c0.5-0.1,0.8,0.1,0.8,0.6C8.9,47.6,8.5,47.8,8.5,47.8z"
	/>
<path class="st7" d="M28.7,101.2c0-0.2,0.1-0.4,0.5-0.5c0.5-0.1,0.8,0.1,0.8,0.6c0,0.3,0.2,0.9-0.4,0.8
	C29.2,102.1,28.8,101.8,28.7,101.2z"/>
<path class="st0" d="M81.1,47.8c0,0.5-0.2,0.7-0.6,0.8c-0.4,0-0.5-0.2-0.5-0.6c0-0.4,0.2-0.8,0.6-0.8C80.8,47.3,80.9,47.7,81.1,47.8
	z"/>
<path class="st0" d="M26.7,46.3c-0.4,0-0.7,0-0.7-0.4c0-0.2,0.3-0.3,0.5-0.4c0.3-0.1,0.7-0.1,0.8,0.3C27.3,46.1,26.9,46.2,26.7,46.3
	z"/>
<path class="st0" d="M13.6,46.7c0,0.4-0.2,0.6-0.5,0.6c-0.2,0-0.5-0.2-0.5-0.3c-0.1-0.3,0.1-0.6,0.4-0.7
	C13.3,46.1,13.5,46.4,13.6,46.7z"/>
<path class="st3" d="M229,158.3c0.5-0.1,0.8,0.1,0.8,0.4c0,0.5-0.2,0.7-0.7,0.7c-0.3,0-0.5-0.1-0.8-0.2
	C228.6,158.9,228.8,158.5,229,158.3z"/>
<path class="st3" d="M263,157.4c0.1-0.6,0.2-1,0.7-1c0.4,0,0.6,0.3,0.4,0.6c-0.2,0.4-0.4,0.7-0.6,1
	C263.3,157.8,263.1,157.6,263,157.4z"/>
<path class="st1" d="M15.2,262.5c0-1.3,0.4-1.9,1.5-1.9c0.4,0,0.9,0.3,0.8,0.7C17.2,262.5,16.1,262.4,15.2,262.5z"/>
<path class="st1" d="M53,261.2c-0.3,0-0.5,0.1-0.6,0c-0.1-0.1-0.2-0.4-0.2-0.6c0.1-0.3,0.3-0.3,0.5-0.1
	C52.8,260.7,52.8,260.9,53,261.2z"/>
<path class="st2" d="M41.5,203c-0.1,2.2-1.4,2.8-2.8,3.3c-0.4,0.2-0.8-0.1-0.8-0.6c-0.1-0.5,0.2-1,0.7-1.1
	C39.6,204.6,40.4,203.9,41.5,203z"/>
<path class="st7" d="M61,161.1c-0.2,0.4-0.5,0.7-0.9,0.6c-0.3-0.1-0.6-0.5-0.8-0.8c0.4-0.1,0.8-0.2,1.2-0.3
	C60.8,160.6,61,160.7,61,161.1z"/>
<path class="st2" d="M16.4,202.6c0,0-0.3,0.2-0.5,0.2c-0.4,0.1-0.6-0.1-0.5-0.5c0.1-0.2,0.4-0.5,0.6-0.6
	C16.3,201.7,16.4,201.9,16.4,202.6z"/>
<path class="st2" d="M7.2,205.5c0.2-0.1,0.3-0.3,0.5-0.4c0.3-0.1,0.6,0.1,0.7,0.4c0,0.1,0.4,0.4-0.1,0.4C7.9,206,7.5,206,7.2,205.5z
	"/>
</svg>
