<svg xmlns="http://www.w3.org/2000/svg" width="72" height="80" viewBox="0 0 72 80">
  <path fill="#430098" d="M64.8,-36 L7.2,-36 C3.224,-36 0,-32.776 0,-28.8 L0,36.8 C0,40.776 3.224,44 7.2,44 L64.8,44 C68.776,44 72,40.776 72,36.8 L72,-28.8 C72,-32.776 68.776,-36 64.8,-36 Z M18,32 L18,16 L27,24 L18,32 Z M46,32 L46,8.11 C45.961,6.243 45.062,4 41,4 C32.866,4 23.742,8.091 23.651,8.132 L18,10.692 L18,-24 L26,-24 L26,-1.289 C29.994,-2.589 35.577,-4 41,-4 C45.945,-4 48.905,-2.056 50.517,-0.425 C53.958,3.055 54.005,7.488 54,8 L54,32 L46,32 Z M48,-11 L40,-11 C43.144,-15.125 45.118,-19.466 46,-24 L54,-24 C53.46,-19.456 51.618,-15.1 48,-11 Z" transform="translate(0 36)"/>
</svg>
