<svg width="1113" height="300" viewBox="0 0 1113 300" fill="none" xmlns="http://www.w3.org/2000/svg">
<path d="M134.44 120.34C119.13 52.8 87.22 34.82 79.08 22.11C75.7234 16.5109 72.7499 10.691 70.18 4.69C69.75 10.69 68.96 14.47 63.86 19.02C53.62 28.15 10.13 63.59 6.46998 140.33C3.05998 211.88 59.07 256 66.47 260.56C72.16 263.36 79.09 260.62 82.47 258.05C109.47 239.52 146.36 190.12 134.47 120.34" fill="#10AA50"/>
<path d="M72.5 222.46C71.09 240.17 70.08 250.46 66.5 260.58C66.5 260.58 68.85 277.44 70.5 295.3H76.34C77.733 282.723 79.86 270.239 82.71 257.91C75.15 254.19 72.79 238 72.5 222.46Z" fill="#B8C4C2"/>
<path d="M82.7 257.92C75.06 254.39 72.85 237.86 72.51 222.46C74.3994 197.057 74.9502 171.571 74.16 146.11C73.76 132.75 74.35 22.37 70.87 6.20999C73.2505 11.6832 75.9933 16.9917 79.08 22.1C87.22 34.82 119.14 52.8 134.44 120.34C146.36 190 109.67 239.27 82.7 257.92Z" fill="#12924F"/>
<path d="M1089.7 233.5C1086.43 233.5 1083.23 232.532 1080.51 230.719C1077.78 228.906 1075.66 226.329 1074.4 223.311C1073.13 220.293 1072.79 216.969 1073.41 213.757C1074.04 210.545 1075.59 207.589 1077.89 205.26C1080.19 202.931 1083.12 201.333 1086.32 200.667C1089.53 200.001 1092.86 200.297 1095.89 201.518C1098.93 202.738 1101.53 204.829 1103.38 207.527C1105.23 210.224 1106.24 213.409 1106.29 216.68C1106.35 218.886 1105.96 221.08 1105.15 223.133C1104.34 225.185 1103.13 227.053 1101.58 228.624C1100.03 230.195 1098.18 231.436 1096.14 232.274C1094.1 233.112 1091.91 233.529 1089.7 233.5V233.5ZM1089.7 201.82C1086.71 201.8 1083.78 202.668 1081.29 204.313C1078.79 205.959 1076.84 208.308 1075.68 211.063C1074.52 213.818 1074.21 216.855 1074.78 219.789C1075.34 222.724 1076.77 225.424 1078.87 227.547C1080.98 229.671 1083.66 231.122 1086.59 231.717C1089.52 232.312 1092.56 232.025 1095.33 230.891C1098.09 229.758 1100.46 227.828 1102.13 225.348C1103.8 222.868 1104.69 219.949 1104.7 216.96C1104.74 214.973 1104.38 212.998 1103.64 211.153C1102.9 209.308 1101.8 207.629 1100.4 206.218C1099 204.806 1097.34 203.689 1095.5 202.934C1093.66 202.178 1091.69 201.8 1089.7 201.82V201.82ZM1093.7 227.4L1089.42 218.17H1085.97V227.4H1083.46V206.4H1089.65C1094.26 206.4 1096.18 208.4 1096.18 212.27C1096.18 215.35 1094.73 217.27 1092.03 217.86L1096.45 227.37L1093.7 227.4ZM1086.07 216H1089.7C1092.64 216 1093.76 215 1093.76 212.32C1093.76 209.64 1092.69 208.73 1089.38 208.73H1086.07V216Z" fill="white"/>
<path d="M842.79 218.38C847.28 221.97 856.25 223.45 864.16 223.45C874.41 223.45 884.46 221.55 894.28 212.68C904.28 203.59 911.16 189.68 911.16 167.47C911.16 146.13 903.04 128.81 886.38 118.67C876.98 112.76 864.8 110.43 850.91 110.43C846.91 110.43 842.79 110.64 840.45 111.7C839.491 112.457 838.811 113.513 838.52 114.7C838.1 118.5 838.1 147.44 838.1 164.55C838.1 182.09 838.1 206.55 838.52 209.55C838.74 212.09 840.02 216.55 842.79 218.42V218.38ZM800.15 100.93C803.78 100.93 817.58 101.56 824 101.56C836 101.56 844.29 100.93 866.72 100.93C885.52 100.93 901.34 106 912.65 115.71C926.33 127.55 933.65 144.02 933.65 164.09C933.65 192.61 920.65 209.09 907.58 218.38C894.58 228.1 877.67 233.59 853.58 233.59C840.76 233.59 818.75 233.17 800.38 232.96H800C799.14 231.27 801.57 224.68 803.07 224.51C808.07 223.95 809.39 223.75 811.69 222.8C815.57 221.21 816.48 219.23 816.91 212.26C817.55 199.16 817.34 183.53 817.34 165.78C817.34 153.11 817.55 128.39 817.13 120.57C816.48 114.03 813.72 112.34 808.13 111.07C804.166 110.228 800.16 109.594 796.13 109.17C795.71 107.9 798.99 102.17 800.06 100.93" fill="white"/>
<path d="M986.6 111.65C985.75 111.86 984.68 113.98 984.68 115.03C984.46 122.64 984.25 142.49 984.25 156.22C984.304 156.482 984.435 156.723 984.625 156.912C984.815 157.1 985.057 157.228 985.32 157.28C988.09 157.49 994.93 157.71 1000.7 157.71C1008.82 157.71 1013.52 156.65 1016.08 155.38C1022.92 152 1026.08 144.6 1026.08 136.58C1026.08 118.2 1013.26 111.23 994.25 111.23C991.68 111.198 989.111 111.338 986.56 111.65H986.6ZM1035.06 196.15C1035.06 177.56 1021.38 167 996.38 167C995.32 167 987.38 166.79 985.49 167.21C984.85 167.42 984.21 167.84 984.21 168.27C984.21 181.58 983.99 202.91 984.64 211.36C985.07 214.95 987.64 220.02 990.83 221.5C994.25 223.4 1001.94 223.82 1007.28 223.82C1022.02 223.82 1035.06 215.59 1035.06 196.15V196.15ZM948 101.3C949.93 101.3 955.61 101.93 970.14 101.93C983.81 101.93 994.92 101.51 1008.14 101.51C1024.59 101.51 1047.23 107.43 1047.23 131.93C1047.23 143.93 1038.69 153.69 1027.58 158.34C1026.94 158.55 1026.94 158.97 1027.58 159.18C1043.39 163.18 1057.27 172.91 1057.27 191.5C1057.27 209.67 1045.95 221.08 1029.5 228.26C1019.5 232.7 1007.07 234.17 994.5 234.17C984.89 234.17 959.13 233.17 944.81 233.33C943.31 232.7 946.18 225.93 947.46 224.88C950.741 224.779 953.996 224.268 957.15 223.36C962.27 222.1 962.88 220.45 963.52 212.84C963.95 206.29 963.95 182.84 963.95 166.15C963.95 143.33 964.17 127.92 963.95 120.31C963.74 114.4 961.6 112.49 957.54 111.44C954.34 110.8 949 110.17 944.73 109.54C943.66 108.48 946.95 102.14 948.01 101.3" fill="white"/>
<path d="M181.75 233.5C181.2 232.148 180.977 230.685 181.1 229.23C181.052 228.238 181.277 227.253 181.75 226.38C184.513 225.982 187.251 225.424 189.95 224.71C193.73 223.77 195.15 221.71 195.37 216.89C195.99 205.5 196.03 184.13 195.81 169.11V168.67C195.81 167.05 195.81 164.85 193.81 163.3C190.295 161.095 186.478 159.41 182.48 158.3C180.69 157.77 179.7 156.83 179.75 155.73C179.8 154.63 180.93 153.33 183.26 152.87C189.45 152.24 205.67 148.37 212.04 145.43C212.696 146.285 213 147.358 212.89 148.43C212.89 149.09 212.79 149.79 212.72 150.51C212.54 152.63 212.34 155.04 212.34 157.44C212.379 157.732 212.499 158.006 212.686 158.234C212.873 158.461 213.119 158.631 213.398 158.726C213.676 158.82 213.976 158.835 214.262 158.769C214.549 158.702 214.811 158.557 215.02 158.35C227.15 148.84 238.02 145.45 243.59 145.45C252.76 145.45 259.9 149.83 265.43 158.85C265.557 159.068 265.737 159.249 265.955 159.377C266.172 159.505 266.418 159.575 266.67 159.58C266.899 159.578 267.124 159.52 267.326 159.412C267.528 159.304 267.701 159.149 267.83 158.96C278.98 150.5 290.03 145.45 297.43 145.45C314.91 145.45 325.36 158.54 325.36 180.45C325.36 186.75 325.3 194.74 325.24 202.19C325.19 208.73 325.14 214.86 325.14 219.1C325.14 220.1 326.52 222.98 328.59 223.55C331.15 224.8 334.84 225.44 339.51 226.24H339.69C340.04 227.5 339.3 232.39 338.59 233.39C337.43 233.39 335.83 233.29 333.83 233.19C330.2 233.01 325.22 232.76 319.43 232.76C307.81 232.76 301.74 232.98 295.94 233.36C295.5 231.91 295.35 227.23 295.88 226.25C298.282 225.874 300.659 225.357 303 224.7C306.7 223.48 307.77 221.8 308 216.89C308.09 213.4 308.76 182.65 307.57 175.35C306.47 167.78 300.77 158.92 288.3 158.92C283.67 158.92 276.2 160.85 269.08 166.25C268.638 166.751 268.39 167.393 268.38 168.06V168.21C269.22 172.15 269.22 176.75 269.22 183.7C269.22 187.7 269.22 191.87 269.17 196.04C269.12 204.52 269.08 212.52 269.22 218.57C269.22 222.69 271.71 223.68 273.72 224.47C274.81 224.71 275.67 224.92 276.54 225.12C278.21 225.53 279.95 225.95 282.54 226.36C282.923 228.117 282.889 229.939 282.44 231.68C282.334 232.333 282.077 232.953 281.69 233.49C275.23 233.27 268.6 233.08 259.03 233.08C256.13 233.08 251.4 233.2 247.22 233.31C243.83 233.4 240.63 233.49 238.81 233.5C238.318 232.338 238.099 231.079 238.17 229.82C238.068 228.633 238.3 227.442 238.84 226.38L241.41 225.91C243.65 225.51 245.59 225.17 247.41 224.71C250.57 223.71 251.76 221.99 251.99 217.96C252.61 208.56 253.09 181.47 251.76 174.69C249.5 163.81 243.31 158.29 233.35 158.29C227.52 158.29 220.15 161.1 214.13 165.61C213.551 166.174 213.095 166.851 212.79 167.6C212.486 168.349 212.339 169.152 212.36 169.96C212.36 173.19 212.36 177.03 212.36 181.15C212.36 194.75 212.27 211.68 212.6 219C212.8 221.26 213.6 223.94 217.83 224.92C218.76 225.19 220.36 225.45 222.22 225.76C223.29 225.94 224.46 226.13 225.67 226.35C226.055 228.745 225.859 231.197 225.1 233.5C223.24 233.5 220.95 233.38 218.33 233.27C214.33 233.09 209.33 232.87 203.68 232.87C197 232.87 192.35 233.09 188.62 233.27C186.11 233.39 183.94 233.49 181.77 233.5" fill="white"/>
<path d="M396.2 154.49C392.591 154.415 389.041 155.414 386 157.36C378.58 161.87 374.8 170.88 374.8 184.12C374.8 208.9 387.21 226.21 404.98 226.21C409.745 226.361 414.392 224.716 418 221.6C423.46 217.15 426.36 208.05 426.36 195.31C426.36 170.9 414.23 154.49 396.18 154.49H396.2ZM399.6 235.4C367.5 235.4 356.07 211.85 356.07 189.82C356.07 174.43 362.36 162.4 374.77 154.05C383.462 148.669 393.439 145.72 403.66 145.51C428.15 145.51 445.26 163.12 445.26 188.35C445.26 205.49 438.43 219.03 425.5 227.49C419.29 231.29 408.5 235.4 399.6 235.4" fill="white"/>
<path d="M723 154.49C719.384 154.408 715.825 155.407 712.78 157.36C705.36 161.87 701.58 170.88 701.58 184.12C701.58 208.9 713.99 226.21 731.76 226.21C736.538 226.371 741.202 224.725 744.82 221.6C750.28 217.15 753.17 208.05 753.17 195.31C753.17 170.9 741.05 154.49 723 154.49V154.49ZM726.42 235.4C694.32 235.4 682.89 211.85 682.89 189.83C682.89 174.42 689.18 162.4 701.6 154.05C710.287 148.666 720.262 145.716 730.48 145.51C754.97 145.51 772.08 163.13 772.08 188.34C772.08 205.5 765.25 219.03 752.32 227.48C746.11 231.29 735.32 235.4 726.42 235.4" fill="white"/>
<path d="M614.92 153.65C605.03 153.65 598.63 161.46 598.63 173.55C598.63 185.64 604.14 200.01 619.63 200.01C622.29 200.01 627.11 198.83 629.5 196.2C633.1 192.89 635.5 186.05 635.5 178.83C635.5 163.06 627.82 153.65 614.97 153.65H614.92ZM613.69 237.09C610.896 237.06 608.141 237.748 605.69 239.09C597.86 244.09 594.23 249.09 594.23 254.9C594.23 260.34 596.34 264.67 600.88 268.51C606.38 273.17 613.8 275.44 623.55 275.44C642.74 275.44 651.34 265.12 651.34 254.9C651.34 247.78 647.77 243.01 640.42 240.31C634.76 238.24 625.3 237.1 613.72 237.1L613.69 237.09ZM615 286.1C603.48 286.1 595.18 283.67 588.09 278.21C581.19 272.89 578.09 264.99 578.09 259.53C578.165 256.011 579.507 252.638 581.87 250.03C583.87 247.75 588.52 243.48 599.27 236.09C599.437 236.019 599.579 235.901 599.678 235.749C599.778 235.598 599.831 235.421 599.83 235.24C599.834 235.038 599.768 234.841 599.644 234.681C599.521 234.521 599.347 234.408 599.15 234.36C590.3 230.97 587.63 225.36 586.82 222.36C586.82 222.25 586.82 222.08 586.73 221.89C586.48 220.71 586.24 219.59 587.85 218.44C589.09 217.56 591.07 216.38 593.19 215.13C596.183 213.473 599.053 211.605 601.78 209.54C601.927 209.382 602.035 209.194 602.098 208.988C602.16 208.782 602.174 208.564 602.139 208.352C602.105 208.139 602.022 207.938 601.897 207.762C601.772 207.587 601.609 207.443 601.42 207.34C588.32 202.94 581.72 193.21 581.72 178.34C581.68 173.703 582.759 169.125 584.865 164.994C586.972 160.863 590.043 157.301 593.82 154.61C599.09 150.44 612.32 145.43 620.89 145.43H621.39C630.2 145.64 635.17 147.49 642.05 150.03C645.964 151.445 650.111 152.103 654.27 151.97C661.56 151.97 664.75 149.66 667.49 146.97C667.934 148.182 668.171 149.46 668.19 150.75C668.357 153.825 667.522 156.871 665.81 159.43C664.32 161.5 660.81 163 657.6 163C657.27 163 656.95 163 656.6 162.95C654.911 162.831 653.237 162.553 651.6 162.12L650.78 162.41C650.52 162.79 650.69 163.21 650.9 163.75C650.951 163.856 650.992 163.966 651.02 164.08C651.605 166.749 652.003 169.456 652.21 172.18C652.21 187.73 646.08 194.5 639.45 199.52C633.04 204.33 625.428 207.278 617.45 208.04V208.04C617.28 208.04 616.45 208.11 614.89 208.25C613.89 208.34 612.59 208.46 612.4 208.46H612.21C610.77 208.86 607.01 210.65 607.01 213.98C607.01 216.74 608.71 220.17 616.84 220.79L622.1 221.16C632.82 221.91 646.21 222.84 652.51 224.97C656.689 226.44 660.298 229.189 662.825 232.829C665.351 236.468 666.665 240.811 666.58 245.24C666.58 259.19 656.66 272.31 640.05 280.33C632.217 284.071 623.641 285.996 614.96 285.96" fill="white"/>
<path d="M565.86 226.06C561.16 225.43 557.73 224.79 553.68 222.89C552.885 222.067 552.362 221.02 552.18 219.89C551.75 213.34 551.75 194.33 551.75 181.89C551.75 171.74 550.05 162.89 545.75 156.54C540.62 149.35 533.36 145.13 523.96 145.13C515.63 145.13 504.52 150.83 495.34 158.65C495.12 158.86 493.71 160.2 493.74 158.12C493.77 156.04 494.09 151.82 494.29 149.12C494.379 148.403 494.298 147.675 494.055 146.994C493.812 146.313 493.413 145.699 492.89 145.2C486.89 148.2 470.06 152.2 463.83 152.81C459.29 153.69 458.14 158.06 462.99 159.57H463.06C466.942 160.641 470.648 162.271 474.06 164.41C475.98 165.89 475.77 168 475.77 169.69C475.98 183.84 475.98 205.6 475.34 217.43C475.13 222.08 473.84 223.77 470.42 224.62L470.74 224.51C468.136 225.163 465.494 225.657 462.83 225.99C461.76 227.04 461.76 233.17 462.83 234.44C464.97 234.44 475.83 233.81 484.83 233.81C497.21 233.81 503.62 234.44 506.83 234.44C508.12 232.96 508.54 227.26 507.69 225.99C504.732 225.856 501.794 225.431 498.92 224.72C495.51 223.88 494.65 222.18 494.44 218.39C494.02 208.45 494.02 187.33 494.02 172.96C494.02 168.96 495.08 167.05 496.36 165.96C500.63 162.16 507.69 159.63 513.88 159.63C519.88 159.63 523.88 161.53 526.88 164.06C530.374 167.109 532.565 171.383 533 176C533.85 184 533.63 200.09 533.63 214C533.63 221.61 533 223.52 530.22 224.36C528.94 224.99 525.52 225.63 521.46 226.05C520.18 227.32 520.6 233.23 521.46 234.5C527.01 234.5 533.46 233.87 542.82 233.87C554.57 233.87 562.05 234.5 565.04 234.5C566.32 233.02 566.75 227.5 565.9 226.05" fill="white"/>
</svg>
