<svg width="2280" height="1184" viewBox="0 0 2280 1184" fill="none" xmlns="http://www.w3.org/2000/svg">
<path fill-rule="evenodd" clip-rule="evenodd" d="M0 1078.22H75.2246V780.21L192.705 1040.03C206.012 1071.26 225.116 1082.85 262.145 1082.85C299.187 1082.85 317.124 1071.26 331.014 1040.03L447.911 780.21V1078.22H523.719V780.21C523.719 751.287 512.137 737.371 487.832 729.848C430.544 712.495 392.348 727.54 374.995 766.306L259.849 1023.25L148.737 766.306C131.954 727.553 93.1748 712.508 35.3167 729.848C11.595 737.371 0.012975 751.274 0.012975 780.21V1078.22H0V1078.22ZM586.207 835.759H662.016V999.529C661.445 1008.78 664.908 1029.62 705.996 1030.18C727.409 1030.76 869.182 1030.18 870.336 1030.18V834.592H946.144V1102.52C946.144 1168.49 864.552 1182.95 826.356 1183.53H587.932V1133.19H826.926C875.537 1127.98 869.753 1103.69 869.753 1095.58V1075.89H709.459C634.805 1075.31 586.778 1042.33 586.207 1004.72C586.207 1001.25 587.932 836.901 586.207 835.759ZM2212.28 645.947C2166 644.793 2130.1 649.423 2100.01 662.159C2091.35 665.648 2077.45 665.648 2076.3 676.633C2080.93 681.238 2081.49 688.773 2085.55 695.154C2092.49 706.736 2104.66 722.339 2115.64 730.445C2127.81 739.718 2139.96 748.966 2152.67 757.072C2175.24 770.95 2200.7 779.056 2222.68 792.946C2235.42 801.052 2248.14 811.467 2260.88 820.157C2267.23 824.787 2271.29 832.322 2279.4 835.202V833.451C2275.35 828.263 2274.18 820.74 2270.15 814.93C2264.35 809.158 2258.57 803.932 2252.77 798.16C2236 775.593 2215.16 755.905 2192.58 739.718C2174.06 726.982 2133.55 709.628 2126.03 688.215L2124.89 687.048C2137.6 685.881 2152.66 681.251 2164.81 677.775C2184.5 672.587 2202.42 673.728 2222.67 668.527C2231.94 666.206 2241.19 663.313 2250.46 660.421V655.22C2240.05 644.806 2232.52 630.915 2221.54 621.084C2192.03 595.624 2159.61 570.735 2126.04 549.906C2108.11 538.337 2084.95 530.801 2065.88 520.983C2058.91 517.507 2047.36 515.769 2043.31 509.985C2032.87 497.261 2027.1 480.479 2019.57 465.421C2002.8 433.593 1986.59 398.302 1972.13 364.736C1961.72 342.169 1955.33 319.602 1942.62 298.772C1883.02 200.396 1818.19 140.787 1718.66 82.3457C1697.26 70.1931 1671.8 64.9792 1644.59 58.624C1630.13 58.0404 1615.67 56.8861 1601.2 56.3024C1591.92 52.2559 1582.67 41.2575 1574.57 36.0437C1541.59 15.2142 1456.52 -29.9206 1432.2 29.6755C1416.57 67.2878 1455.35 104.317 1468.66 123.421C1478.51 136.728 1491.22 151.773 1498.19 166.818C1502.22 176.649 1503.38 187.077 1507.44 197.491C1516.68 222.951 1525.37 251.303 1537.53 275.038C1543.88 287.19 1550.82 299.927 1558.93 310.925C1563.56 317.293 1571.66 320.185 1573.39 330.6C1565.28 342.182 1564.72 359.536 1560.09 374.01C1539.25 439.403 1547.36 520.413 1576.86 568.44C1586.14 582.901 1608.12 614.729 1637.64 602.576C1663.68 592.161 1657.89 559.179 1665.41 530.244C1667.16 523.305 1665.99 518.675 1669.46 514.044V515.199C1677.56 531.398 1685.67 547.027 1693.19 563.226C1711.13 591.578 1742.38 621.097 1768.43 640.772C1782.31 651.187 1793.3 669.137 1810.66 675.492V673.741H1809.52C1806.04 668.553 1800.83 666.232 1796.2 662.172C1785.78 651.757 1774.21 639.021 1766.11 627.452C1741.81 595.054 1720.41 559.166 1701.31 522.137C1692.04 504.2 1683.93 484.525 1676.43 466.588C1672.93 459.636 1672.93 449.221 1667.16 445.759C1658.47 458.482 1645.76 469.493 1639.37 485.109C1628.37 509.985 1627.23 540.658 1623.18 572.486C1620.84 573.07 1622.01 572.486 1620.84 573.64C1602.35 569.023 1595.97 549.919 1589.03 533.72C1571.68 492.631 1568.77 426.667 1583.82 379.211C1587.86 367.058 1605.24 328.862 1598.3 317.293C1594.8 306.295 1583.26 299.94 1576.88 291.25C1569.35 280.251 1561.27 266.374 1556.06 254.221C1542.18 221.81 1535.24 185.935 1520.19 153.524C1513.22 138.479 1501.08 122.85 1491.24 108.973C1480.24 93.3441 1468.11 82.3458 1459.42 63.8379C1456.53 57.4697 1452.48 47.055 1457.11 40.1162C1458.26 35.486 1460.59 33.748 1465.19 32.5937C1472.72 26.2256 1494.14 34.3316 1501.67 37.7946C1523.07 46.4713 1541 54.5775 1558.94 66.7172C1567.05 72.5017 1575.74 83.5 1586.15 86.4053H1598.32C1616.84 90.4518 1637.65 87.5596 1655.01 92.7605C1685.68 102.605 1713.45 117.066 1738.35 132.694C1814.15 180.721 1876.66 249.007 1918.89 330.6C1925.83 343.907 1928.72 356.06 1935.1 369.95C1947.27 398.315 1962.31 427.238 1974.44 455.019C1986.61 482.217 1998.17 509.998 2015.53 532.565C2024.22 544.718 2058.92 551.073 2074.55 557.441C2086.13 562.642 2104.06 567.285 2114.5 573.64C2134.16 585.793 2153.84 599.684 2172.36 612.991C2181.61 619.917 2210.55 634.378 2212.28 645.947V645.947Z" fill="#00678C"/>
<path fill-rule="evenodd" clip-rule="evenodd" d="M1622.02 143.083C1612.19 143.083 1605.25 144.237 1598.32 145.975V147.13H1599.46C1604.09 156.39 1612.19 162.758 1617.98 170.851C1622.61 180.112 1626.67 189.372 1631.3 198.633L1632.44 197.478C1640.55 191.694 1644.61 182.433 1644.61 168.543C1641.13 164.496 1640.56 160.437 1637.67 156.39C1634.19 150.605 1626.67 147.713 1622.02 143.083V143.083Z" fill="#00678C"/>
<path fill-rule="evenodd" clip-rule="evenodd" d="M1004.02 1078.22H1221.6C1247.06 1078.22 1271.37 1073.03 1291.04 1063.75C1324.02 1048.71 1339.65 1028.46 1339.65 1001.85V946.301C1339.65 924.9 1321.71 904.629 1285.85 890.751C1267.33 883.812 1244.18 879.753 1221.61 879.753H1130.19C1099.51 879.753 1085.05 870.479 1080.99 850.247C1080.42 847.938 1080.42 845.616 1080.42 843.308V809.158C1080.42 807.407 1080.42 805.112 1080.99 802.803C1085.04 787.175 1093.14 783.115 1119.77 780.236H1342.55V729.874H1130.74C1100.07 729.874 1083.87 731.625 1069.41 736.255C1024.85 750.133 1005.17 772.13 1005.17 810.883V854.89C1005.17 889.013 1043.37 917.962 1108.18 924.9C1115.11 925.484 1122.64 925.484 1130.16 925.484H1208.29C1211.18 925.484 1214.06 925.484 1216.37 926.068C1240.1 928.376 1250.52 932.423 1257.46 941.087C1262.09 945.717 1263.26 949.776 1263.26 954.99V998.971C1263.26 1004.16 1259.78 1011.14 1252.84 1016.91C1245.88 1022.68 1234.88 1026.74 1220.42 1027.32C1217.52 1027.32 1215.81 1027.91 1212.89 1027.91H1004.02V1078.22V1078.22ZM1810.67 990.852C1810.67 1042.35 1849.45 1071.28 1927 1077.07C1934.52 1077.66 1941.46 1078.22 1948.98 1078.22H2145.73V1027.88H1947.25C1903.25 1027.88 1886.48 1016.88 1886.48 990.268V729.861H1810.66V990.852H1810.67V990.852ZM1387.66 993.147V813.776C1387.66 768.057 1420.06 740.263 1483.16 731.599C1490.1 731.015 1497.04 730.432 1503.4 730.432H1646.9C1654.42 730.432 1660.8 731.015 1668.33 731.599C1731.4 740.263 1763.21 768.057 1763.21 813.776V993.147C1763.21 1030.18 1749.92 1049.86 1718.65 1063.18L1792.72 1130.29H1705.36L1645.16 1075.91L1584.39 1079.38H1503.38C1490.08 1079.38 1475.03 1077.66 1459.4 1073.61C1411.4 1060.28 1387.66 1034.82 1387.66 993.147V993.147ZM1469.25 989.127C1469.25 991.435 1470.42 993.731 1471 996.649C1475.05 1017.47 1494.71 1029.05 1524.8 1029.05H1593.1L1530.61 972.331H1617.98L1672.94 1022.11C1683.38 1016.31 1689.74 1008.21 1692.05 997.791C1692.63 995.482 1692.63 992.603 1692.63 990.268V818.393C1692.63 816.084 1692.63 813.789 1692.05 811.454C1688 791.792 1668.34 780.806 1638.82 780.806H1524.8C1491.24 780.806 1469.25 795.268 1469.25 818.393V989.127ZM2180.46 1078.8H2191.46V1036.57H2205.92V1027.88H2165.42V1036.57H2180.46V1078.8V1078.8ZM2264.37 1078.8H2274.78V1027.88H2259.18L2246.44 1062.61L2232.56 1027.88H2217.52V1078.8H2227.35V1040.05H2227.93L2242.39 1078.8H2249.92L2264.38 1040.05V1078.8H2264.37V1078.8Z" fill="#CE8B2C"/>
</svg>
