<?xml version="1.0" encoding="utf-8"?>
<!-- Generator: Adobe Illustrator 24.0.2, SVG Export Plug-In . SVG Version: 6.00 Build 0)  -->
<svg version="1.1" id="Capa_1" xmlns="http://www.w3.org/2000/svg" xmlns:xlink="http://www.w3.org/1999/xlink" x="0px" y="0px"
	 viewBox="0 0 512 512" style="enable-background:new 0 0 512 512;" xml:space="preserve">
<style type="text/css">
	.st0{fill:#539E43;}
</style>
<g>
	<path class="st0" d="M256,511.7c-7.1,0-13.6-1.9-19.8-5.2l-62.6-37.2c-9.4-5.2-4.7-7.1-1.9-8c12.7-4.2,15.1-5.2,28.2-12.7
		c1.4-0.9,3.3-0.5,4.7,0.5l48,28.7c1.9,0.9,4.2,0.9,5.6,0L446,369.2c1.9-0.9,2.8-2.8,2.8-5.2V147.2c0-2.4-0.9-4.2-2.8-5.2
		L258.3,33.8c-1.9-0.9-4.2-0.9-5.6,0L65,142c-1.9,0.9-2.8,3.3-2.8,5.2V364c0,1.9,0.9,4.2,2.8,5.2l51.3,29.6
		c27.8,14.1,45.2-2.4,45.2-18.8V166c0-2.8,2.4-5.6,5.6-5.6h24c2.8,0,5.6,2.4,5.6,5.6v214c0,37.2-20.2,58.8-55.5,58.8
		c-10.8,0-19.3,0-43.3-11.8l-49.4-28.2c-12.2-7.1-19.8-20.2-19.8-34.3V147.7c0-14.1,7.5-27.3,19.8-34.3L236.2,4.7
		c11.8-6.6,27.8-6.6,39.5,0l187.7,108.7c12.2,7.1,19.8,20.2,19.8,34.3v216.8c0,14.1-7.5,27.3-19.8,34.3L275.8,507.5
		C269.6,510.3,262.6,511.7,256,511.7L256,511.7z M313.9,362.6c-82.3,0-99.2-37.6-99.2-69.6c0-2.8,2.4-5.6,5.6-5.6h24.5
		c2.8,0,5.2,1.9,5.2,4.7c3.8,24.9,14.6,37.2,64.4,37.2c39.5,0,56.4-8.9,56.4-30.1c0-12.2-4.7-21.2-66.3-27.3
		c-51.3-5.2-83.3-16.5-83.3-57.4c0-38.1,32-60.7,85.6-60.7c60.2,0,89.8,20.7,93.6,65.9c0,1.4-0.5,2.8-1.4,4.2
		c-0.9,0.9-2.4,1.9-3.8,1.9h-24.5c-2.4,0-4.7-1.9-5.2-4.2c-5.6-25.9-20.2-34.3-58.8-34.3c-43.3,0-48.4,15.1-48.4,26.3
		c0,13.6,6.1,17.9,64.4,25.4c57.9,7.5,85.1,18.3,85.1,58.8C407.5,339.1,373.6,362.6,313.9,362.6L313.9,362.6z"/>
</g>
</svg>
