<svg width="502" height="500" viewBox="0 0 502 500" fill="none" xmlns="http://www.w3.org/2000/svg">
<path d="M463.917 35.8936H89.9172C60.9172 35.8936 42.3472 66.7236 55.9172 92.3536L93.3272 163.194H25.5072C21.2123 163.195 16.9904 164.305 13.2506 166.417C9.51086 168.529 6.37988 171.571 4.16098 175.249C1.94208 178.926 0.71045 183.114 0.585404 187.407C0.460357 191.701 1.44612 195.953 3.44722 199.754L123.777 427.504C125.899 431.509 129.071 434.861 132.955 437.198C136.838 439.536 141.285 440.771 145.817 440.771C150.35 440.771 154.797 439.536 158.68 437.198C162.563 434.861 165.736 431.509 167.857 427.504L200.537 365.984L241.537 443.604C255.967 470.904 295.057 470.954 309.537 443.684L496.997 90.9236C510.247 65.9736 492.167 35.8936 463.917 35.8936ZM295.917 186.614L215.087 338.754C213.674 341.417 211.563 343.646 208.979 345.2C206.396 346.754 203.437 347.576 200.422 347.576C197.407 347.576 194.449 346.754 191.865 345.2C189.282 343.646 187.17 341.417 185.757 338.754L105.707 187.254C104.369 184.728 103.706 181.899 103.782 179.042C103.858 176.184 104.671 173.395 106.142 170.944C107.612 168.493 109.691 166.463 112.176 165.051C114.661 163.638 117.469 162.892 120.327 162.884H281.657C284.444 162.884 287.184 163.605 289.609 164.977C292.035 166.35 294.064 168.326 295.499 170.715C296.935 173.104 297.728 175.823 297.801 178.609C297.874 181.395 297.225 184.153 295.917 186.614V186.614Z" fill="#F71963"/>
</svg>
