<?xml version="1.0" encoding="utf-8"?>
<!-- Generator: Adobe Illustrator 24.0.2, SVG Export Plug-In . SVG Version: 6.00 Build 0)  -->
<svg version="1.1" id="GraphQL_Logo" xmlns="http://www.w3.org/2000/svg" xmlns:xlink="http://www.w3.org/1999/xlink" x="0px"
	 y="0px" viewBox="0 0 512 512" style="enable-background:new 0 0 512 512;" xml:space="preserve">
<style type="text/css">
	.st0{fill:#E535AB;}
</style>
<g>
	<g>
		<g>
			
				<rect x="-44.5" y="192.6" transform="matrix(0.5 -0.866 0.866 0.5 -93.7683 244.5142)" class="st0" width="418.8" height="21.7"/>
		</g>
	</g>
	<g>
		<g>
			<rect x="46.5" y="350.4" class="st0" width="418.8" height="21.7"/>
		</g>
	</g>
	<g>
		<g>
			
				<rect x="154.1" y="292.7" transform="matrix(0.5 -0.866 0.866 0.5 -275.7756 349.6522)" class="st0" width="21.7" height="241.9"/>
		</g>
	</g>
	<g>
		<g>
			<rect x="336" y="-22.5" transform="matrix(0.5 -0.866 0.866 0.5 88.1696 349.6403)" class="st0" width="21.7" height="241.9"/>
		</g>
	</g>
	<g>
		<g>
			<rect x="44" y="87.5" transform="matrix(0.866 -0.5 0.5 0.866 -27.0862 95.6739)" class="st0" width="241.9" height="21.7"/>
		</g>
	</g>
	<g>
		<g>
			<rect x="336.2" y="-5.9" transform="matrix(0.866 -0.5 0.5 0.866 -55.2401 200.7824)" class="st0" width="21.7" height="418.8"/>
		</g>
	</g>
	<g>
		<g>
			<rect x="63.1" y="135.1" class="st0" width="21.7" height="241.9"/>
		</g>
	</g>
	<g>
		<g>
			<rect x="427.1" y="135.1" class="st0" width="21.7" height="241.9"/>
		</g>
	</g>
	<g>
		<g>
			<rect x="241.7" y="404.1" transform="matrix(0.866 -0.5 0.5 0.866 -160.2973 228.8528)" class="st0" width="210.4" height="19"/>
		</g>
	</g>
	<path class="st0" d="M477.5,384c-12.6,21.8-40.5,29.3-62.4,16.7c-21.8-12.6-29.3-40.5-16.7-62.4c12.6-21.8,40.5-29.3,62.4-16.7
		C482.8,334.3,490.2,362.2,477.5,384"/>
	<path class="st0" d="M113.3,173.6c-12.6,21.8-40.5,29.3-62.4,16.7c-21.8-12.6-29.3-40.5-16.7-62.4s40.5-29.3,62.4-16.7
		C118.4,123.9,125.8,151.8,113.3,173.6"/>
	<path class="st0" d="M34.3,384c-12.6-21.8-5.1-49.7,16.7-62.4c21.8-12.6,49.7-5.1,62.4,16.7c12.6,21.8,5.1,49.7-16.7,62.4
		C74.7,413.3,46.9,405.8,34.3,384"/>
	<path class="st0" d="M398.6,173.6c-12.6-21.8-5.1-49.7,16.7-62.4c21.8-12.6,49.7-5.1,62.4,16.7c12.6,21.8,5.1,49.7-16.7,62.4
		C439.1,202.9,411.1,195.5,398.6,173.6"/>
	<path class="st0" d="M255.9,512c-25.2,0-45.6-20.4-45.6-45.6s20.4-45.6,45.6-45.6c25.2,0,45.6,20.4,45.6,45.6
		C301.6,491.5,281.2,512,255.9,512"/>
	<path class="st0" d="M255.9,91.3c-25.2,0-45.6-20.4-45.6-45.6S230.7,0,255.9,0c25.2,0,45.6,20.4,45.6,45.6S281.2,91.3,255.9,91.3"
		/>
</g>
</svg>
