<?xml version="1.0" encoding="utf-8"?>
<!-- Generator: Adobe Illustrator 24.0.2, SVG Export Plug-In . SVG Version: 6.00 Build 0)  -->
<svg version="1.1" id="Capa_1" xmlns="http://www.w3.org/2000/svg" xmlns:xlink="http://www.w3.org/1999/xlink" x="0px" y="0px"
	 viewBox="0 0 512 512" style="enable-background:new 0 0 512 512;" xml:space="preserve">
<style type="text/css">
	.st0{fill:#F7DF1E;}
</style>
<rect y="0" class="st0" width="512" height="512"/>
<path d="M343.9,400c10.3,16.8,23.7,29.2,47.5,29.2c19.9,0,32.7-10,32.7-23.7c0-16.5-13.1-22.3-35-31.9l-12-5.2
	c-34.7-14.8-57.8-33.3-57.8-72.5c0-36.1,27.5-63.6,70.5-63.6c30.6,0,52.6,10.6,68.4,38.5l-37.5,24.1c-8.2-14.8-17.1-20.6-31-20.6
	c-14.1,0-23,8.9-23,20.6c0,14.4,8.9,20.3,29.6,29.2l12,5.2c40.9,17.5,64,35.4,64,75.6c0,43.3-34,67-79.7,67
	c-44.7,0-73.5-21.3-87.7-49.2L343.9,400z M174,404.2c7.6,13.4,14.4,24.7,31,24.7c15.8,0,25.8-6.2,25.8-30.2V235.1h48.1v164.2
	c0,49.8-29.2,72.5-71.8,72.5c-38.5,0-60.8-19.9-72.2-43.9L174,404.2z"/>
</svg>
