<?xml version="1.0" encoding="utf-8"?>
<!-- Generator: Adobe Illustrator 24.0.2, SVG Export Plug-In . SVG Version: 6.00 Build 0)  -->
<svg version="1.1" id="Capa_1" xmlns="http://www.w3.org/2000/svg" xmlns:xlink="http://www.w3.org/1999/xlink" x="0px" y="0px"
	 viewBox="0 0 315.2 228.3" style="enable-background:new 0 0 315.2 228.3;" xml:space="preserve">
<style type="text/css">
	.st0{fill:#01B1EC;}
	.st1{fill:#292C6F;}
	.st2{fill:#FFFFFF;}
</style>
<title>MercadoPago</title>
<g>
	<path class="st0" d="M157.6,16.4C73.9,16.4,6.1,59.7,6.1,113.3s67.8,96.9,151.5,96.9s151.5-43.4,151.5-96.9S241.3,16.4,157.6,16.4z
		"/>
	<path class="st1" d="M157.6,10.3C70.6,10.3,0,56.6,0,113.3c0,1.5,0,5.5,0,6c0,60.2,61.7,109,157.6,109c96.5,0,157.6-48.8,157.6-109
		v-6C315.1,56.6,244.6,10.3,157.6,10.3z M157.6,210.2c-83.7,0-151.5-43.4-151.5-96.9s67.8-96.9,151.5-96.9s151.5,43.4,151.5,96.9
		S241.3,210.2,157.6,210.2L157.6,210.2z"/>
	<path class="st2" d="M308.7,105.5l-4.1,0.6l-19-0.9l-40.4,4.8l-36.4,13.3l2.1-53.9l8-22.5l7.6-0.5l7.6-2.1l15.8-5.5l10.8-1.1
		l4.6-2.1l-1.8-8l-6.4-2.3l2.3-8.3l-5.7-5.7l-15.1-9.3h-4.1l-14.5,12.3L203,33.9L183,72l-26.9,61.3l-11.9-24.1l-32.4-70.5l-4.4-3.7
		L83.6,7.3l-8.4-5.4l-5.8,1.7L53.6,15.7l-0.3,9l-3.2,1.4l-4.9,6.4l4.6,4.1l12.9,2.1l30.1,9l1.5,0.9l2.8,8.5l6.4,21.7v42l-5.3,1.1
		l-10.8-4L49,108.3l-19-1.6l-24,1.4c0.1,34.8,17.8,50.8,17.8,50.8l7.7-3.6l34.8,6.1l54.3-1.3l28.2-4.8l7.3-9.4l4.6,8.3l28,7.2h41
		l34.6-4.3l15.3-1.7l10,5.4C311.5,139,308.7,105.5,308.7,105.5z"/>
	<path class="st1" d="M153.1,148.1c-5.1,7.4-13,8.9-20.9,9.4c-3.7,0.2-7.3,0.5-11,0.8c-12.8,1-26.1,2-39.1,0.9l-1.2-0.1
		c-13.9-1.1-28.3-2.3-42-5.4c-6.5-1.5-10-0.6-13.7,3.6c-0.5,0.5-2.8,3-3.3,4.6c-0.2,0.6,0.9,1,1.1,1.1c0.7,0.6,4.1-2.7,4.8-3.4
		c2.9-3.2,5.1-3.7,10.4-2.5c13.9,3.1,28.4,4.3,42.4,5.4l1.2,0.1c4,0.3,8.1,0.5,12.1,0.5c9.3,0,18.5-0.7,27.5-1.4
		c3.7-0.3,7.3-0.5,10.9-0.8c8.3-0.5,17.6-2.2,23.5-10.9c0.5-0.8,0.3-1.9-0.5-2.4C154.6,147.2,153.6,147.4,153.1,148.1L153.1,148.1z"
		/>
	<path class="st1" d="M309.6,104.7c-0.5-0.8-1.5-1.1-2.3-0.7c-2.6,1.5-5.1,0.7-8-0.1c-2.1-0.8-4.4-1.1-6.6-1.1
		c-22.9,1.3-46.2,5.9-71.3,13.9c-2.8,0.9-5.6,1.9-8.2,2.9l-2.4,0.9l0.2-5.9c0.4-10.5,0.8-21.4,0.5-32.1c-0.3-11.2,3.1-21.5,6.9-31.8
		c0.9-2.3,1.4-3.4,5-2.8c5.1,0.9,10.9-1.3,15.3-3.3c6.2-2.8,11.8-5,18.1-4.8c5.2,0.2,8.5-2.4,9.4-7.4c1.1-6.3-3.9-7.8-7.2-8.8
		c-0.1,0-0.1,0-0.2,0c1-1.9,1.8-4,2.4-6.1c0.2-0.5,0-1.1-0.3-1.6c-3.6-4.5-8.5-7.6-13.2-10.7c-1.8-1.1-3.6-2.3-5.3-3.5
		c-3.8-2.7-8.5-2.1-13.1,1.6c-20.3,16.6-36,38.9-48.3,68.1c-2.2,5.2-4.3,10.4-6.4,15.6c-5.9,14.4-12,29.2-18.9,43.5l-4.7-10.7
		c-3.7-8.5-7.5-16.9-11.2-25.3c-1.9-4.3-3.8-8.6-5.7-12.9c-5.3-12-10.8-24.5-16.6-36.6C111.4,31.9,101,22.2,91,12.7
		c-3.4-3.2-7-6.6-10.3-10s-8.5-3.2-10.7-1.6c-1.8,1.3-3.7,2.6-5.6,3.8c-4,2.5-8.1,5.1-11.2,9.1c-2.5,3.3-3,6.9-1.6,9.9
		c-3.3,0.9-6.6,2.6-7.8,8.2c-0.1,0.6,0.1,1.2,0.6,1.6c0.5,0.4,0.9,0.9,1.3,1.4c1.5,1.6,3.1,3.5,5.3,3.6c6,0.3,11.5,2.2,17.3,4.2
		s12,4.2,18.5,4.4c3.7,0.1,5.2,1,6.1,3.3c0.4,1.1,0.8,2.3,1.2,3.4c1.9,4.9,3.5,10,4.6,15.1c1.5,8.1,1.3,16.5,1,24.6
		c-0.3,8.7-0.5,17.7,1.4,26.5c-2.5,0.7-4.4-0.3-6.5-1.4c-1-0.5-2-1-3-1.4c-18.8-6.5-39-12.8-60.6-12.8h-0.6c-5.6,0-11.3,0-17,0H5.9
		c-0.9,0-1.7,0.8-1.7,1.7c0,0.9,0.8,1.7,1.7,1.7h7.8c5.7,0,11.3,0,17,0h0.5c21,0,40.9,6.2,59.5,12.6c0.9,0.3,1.7,0.7,2.5,1.2
		c1.9,1.2,4.2,1.9,6.4,2c1.5,0,3-0.3,4.4-1c0.7-0.3,1.1-1.2,0.9-2c-2.2-8.8-1.9-17.7-1.6-27.1c0.2-8.3,0.5-16.8-1.1-25.3
		c-1.2-5.4-2.7-10.6-4.8-15.7c-0.4-1.1-0.8-2.3-1.2-3.4c-1.7-4.7-5.8-5.5-9.2-5.6c-6-0.2-11.6-2.1-17.5-4.2s-11.8-4.1-18.3-4.4
		c-0.7,0-2-1.5-2.9-2.4c-0.3-0.3-0.6-0.7-0.9-1c1-3.6,3.3-4.3,6.2-4.9c0.1,0,0.2-0.1,0.2-0.1c0.2,0.2,0.3,0.4,0.6,0.5
		c3.8,3,11.5,9.1,20.2,3c2.7,3.5,6,6.6,9.7,9.1c0.8,0.5,1.8,0.3,2.4-0.5c0,0,0,0,0,0c0.5-0.8,0.3-1.8-0.5-2.4
		c-5.2-3.4-8.8-8.2-12.7-13.3c-1.3-1.7-2.6-3.5-4-5.2c-0.6-0.8-1.6-0.9-2.4-0.3c-0.8,0.6-0.9,1.6-0.3,2.4c0,0,0.1,0.1,0.1,0.1
		c1.3,1.6,2.7,3.4,3.9,5.1l1.7,2.3c-5.5,3.6-10.2,1.5-16-3.1c-3.9-3.1-2.1-6.7-0.6-8.6c2.7-3.5,6.4-5.8,10.3-8.3
		c1.9-1.2,4-2.5,5.8-3.9c0.8-0.6,4-1,6.1,1.2c3.4,3.5,6.9,6.8,10.4,10.1c9.8,9.2,19.9,18.8,25.9,31.4C120.1,58.6,125.6,71,131,83
		c1.9,4.3,3.8,8.6,5.7,12.9c3.8,8.4,7.5,16.9,11.2,25.3l5,11.4c0.3,0.6,0.8,1,1.4,1c-1.3,3.5-1.2,7.3,0.1,10.8
		c1.9,5.6,5.9,10.3,11.2,13.1c4,1.9,8.3,3,12.7,3.3l2.4,0.2c12.9,1,26.2,2,39.4,2c4.9,0,9.8-0.1,14.7-0.5
		c12.2-0.9,25.3-2.1,37.8-5.4c6.8-1.8,10.1,0.1,13.8,4.2c0.6,0.7,3.1,3.5,3.8,1.7c1.1-2.7-0.7-3.3-1.3-4c-4.2-4.8-8.8-7.5-17.2-5.2
		c-12.2,3.3-25.1,4.5-37.1,5.3c-17.8,1.3-36-0.2-53.6-1.6l-2.4-0.2c-4-0.2-7.8-1.2-11.4-2.9c-4.5-2.4-7.9-6.3-9.5-11.1
		c-1.1-3.4-1.1-6.5,0.1-8.9c7.5-15,13.9-30.8,20.1-46c2.1-5.2,4.2-10.4,6.4-15.6c12-28.6,27.5-50.5,47.3-66.8
		c2.3-1.9,5.8-3.8,8.9-1.5c1.8,1.3,3.6,2.4,5.4,3.6c4.4,2.8,8.6,5.5,11.8,9.2c-1.8,5.6-4.1,9-7.2,10.5c-2.8,1.4-6.5,1.3-11.3-0.4
		c2.3-3,4.4-6.1,6.3-9.1c0.5-0.8,0.2-1.9-0.6-2.3c-0.8-0.5-1.8-0.2-2.3,0.5c-4.6,7.1-9.9,15.1-18.2,19.9c-0.8,0.5-1.1,1.5-0.6,2.3
		c0.3,0.5,0.9,0.9,1.5,0.9c0.3,0,0.6-0.1,0.9-0.2c4.1-2.4,7.7-5.5,10.8-9.2c6.2,2.3,11.2,2.6,15.1,0.6c2.1-1.1,3.9-2.7,5.2-4.7
		c0.2,0.3,0.5,0.5,0.8,0.6c3.9,1.2,5.3,1.9,4.8,4.9c-0.6,3.3-2.4,4.7-5.9,4.6c-7-0.3-13,2.2-19.6,5.1c-3.7,1.6-9.1,3.8-13.4,3
		c-5.4-0.9-7.4,1.3-8.7,5c-3.9,10.7-7.4,21.2-7.1,33c0.2,10.6-0.2,21.4-0.5,31.9c-0.1,2.6-0.2,5.2-0.3,7.8c-0.3,0.3-0.6,0.5-0.9,0.7
		c-0.4,0.3-0.8,0.6-1.1,1c-0.7,0.7-0.7,1.7,0,2.4c0,0,0,0,0,0c0.7,0.7,1.7,0.7,2.4,0c0,0,0,0,0,0c0.2-0.2,0.5-0.4,0.8-0.7
		c0.6-0.4,1.1-0.9,1.5-1.4c0.2,0,0.3,0,0.5-0.1c1.3-0.5,2.5-0.9,3.8-1.4c2.6-1,5.4-2,8.1-2.9c24.7-8,47.8-12.5,70.4-13.8
		c1.9,0,3.7,0.4,5.5,1c3.2,0.9,6.8,2,10.6-0.1C309.7,106.6,310,105.5,309.6,104.7z"/>
</g>
</svg>
