<?xml version="1.0" encoding="utf-8"?>
<!-- Generator: Adobe Illustrator 24.0.2, SVG Export Plug-In . SVG Version: 6.00 Build 0)  -->
<svg version="1.1" id="Layer_2_1_" xmlns="http://www.w3.org/2000/svg" xmlns:xlink="http://www.w3.org/1999/xlink" x="0px" y="0px"
	 viewBox="0 0 512 512" style="enable-background:new 0 0 512 512;" xml:space="preserve">
<style type="text/css">
	.st0{fill:#61DAFB;}
</style>
<g>
	<path class="st0" d="M512,254.8c0-33.9-42.5-66.1-107.6-86c15-66.4,8.3-119.2-21.1-136.1c-6.8-4-14.7-5.8-23.4-5.8v23.3
		c4.8,0,8.7,0.9,11.9,2.7c14.2,8.1,20.4,39.1,15.5,79c-1.1,9.8-3,20.1-5.3,30.7c-20.5-5-42.8-8.9-66.3-11.4
		c-14.1-19.3-28.7-36.8-43.4-52.2c34-31.6,66-48.9,87.7-48.9V26.8l0,0c-28.7,0-66.3,20.5-104.3,55.9c-38-35.3-75.6-55.5-104.3-55.5
		v23.3c21.6,0,53.6,17.2,87.7,48.6c-14.6,15.3-29.2,32.8-43.1,52.1c-23.6,2.5-45.9,6.4-66.4,11.5c-2.4-10.4-4.2-20.6-5.4-30.3
		c-4.9-39.9,1.1-70.9,15.2-79.1c3.1-1.9,7.2-2.7,12-2.7V27.3l0,0c-8.8,0-16.7,1.9-23.6,5.8C98.7,50.1,92.1,102.8,107.2,169
		C42.3,189,0.1,221,0.1,254.8c0,33.9,42.5,66.1,107.6,86c-15,66.4-8.3,119.2,21.1,136.1c6.8,4,14.7,5.8,23.5,5.8
		c28.7,0,66.3-20.5,104.3-55.9c38,35.3,75.6,55.5,104.3,55.5c8.8,0,16.7-1.9,23.6-5.8c29.3-16.9,35.9-69.6,20.8-135.8
		C469.8,320.8,512,288.7,512,254.8z M376.2,185.2c-3.9,13.5-8.7,27.3-14.1,41.2c-4.3-8.3-8.8-16.7-13.7-25
		c-4.8-8.3-9.9-16.5-15-24.4C348.2,179.2,362.5,181.9,376.2,185.2z M328.4,296.4c-8.1,14.1-16.5,27.4-25.2,39.9
		c-15.5,1.4-31.3,2.1-47.2,2.1c-15.8,0-31.5-0.7-47-2c-8.7-12.4-17.1-25.7-25.3-39.7c-7.9-13.7-15.1-27.6-21.7-41.5
		c6.5-14,13.8-28,21.6-41.6c8.1-14.1,16.5-27.4,25.2-39.9c15.5-1.4,31.3-2.1,47.2-2.1c15.8,0,31.5,0.7,47,2
		c8.7,12.4,17.1,25.7,25.3,39.7c7.9,13.7,15.1,27.6,21.7,41.5C343.4,268.7,336.2,282.7,328.4,296.4z M362.1,282.8
		c5.6,14,10.4,28,14.4,41.5c-13.7,3.3-28.1,6.2-43,8.3c5.1-8,10.2-16.3,15-24.7C353.3,299.6,357.8,291.2,362.1,282.8z M256.3,394.2
		c-9.7-10-19.4-21.2-29-33.4c9.4,0.4,19,0.7,28.7,0.7c9.8,0,19.5-0.2,29-0.7C275.6,373,265.9,384.2,256.3,394.2z M178.6,332.7
		c-14.8-2.2-29.1-4.9-42.8-8.2c3.9-13.5,8.7-27.3,14.1-41.2c4.3,8.3,8.8,16.7,13.7,25C168.5,316.6,173.5,324.8,178.6,332.7z
		 M255.7,115.5c9.7,10,19.4,21.2,29,33.4c-9.4-0.4-19-0.7-28.7-0.7c-9.8,0-19.5,0.2-29,0.7C236.4,136.7,246.1,125.5,255.7,115.5z
		 M178.5,177c-5.1,8-10.2,16.3-15,24.7c-4.8,8.3-9.3,16.7-13.6,25c-5.6-14-10.4-28-14.4-41.5C149.2,182,163.6,179.2,178.5,177z
		 M84.1,307.7c-36.9-15.8-60.8-36.4-60.8-52.8s23.9-37.2,60.8-52.8c9-3.9,18.8-7.3,28.9-10.5c5.9,20.5,13.8,41.7,23.5,63.6
		c-9.6,21.7-17.3,42.9-23.2,63.2C102.9,315.1,93.1,311.5,84.1,307.7z M140.2,456.8c-14.2-8.1-20.4-39.1-15.5-79
		c1.1-9.8,3-20.1,5.3-30.7c20.5,5,42.8,8.9,66.3,11.4c14.1,19.3,28.7,36.8,43.4,52.2c-34,31.6-66,48.9-87.7,48.9
		C147.3,459.5,143.3,458.6,140.2,456.8z M387.8,377.3c4.9,39.9-1.1,70.9-15.2,79.1c-3.1,1.9-7.2,2.7-12,2.7
		c-21.6,0-53.6-17.2-87.7-48.6c14.6-15.3,29.2-32.8,43.1-52.1c23.6-2.5,45.9-6.4,66.4-11.5C384.7,357.4,386.6,367.6,387.8,377.3z
		 M427.9,307.7c-9,3.9-18.8,7.3-28.9,10.5c-5.9-20.5-13.8-41.7-23.5-63.6c9.6-21.7,17.3-42.9,23.2-63.2c10.3,3.2,20.1,6.8,29.3,10.6
		c36.9,15.8,60.8,36.4,60.8,52.8C488.8,271.2,464.9,292,427.9,307.7z"/>
	<path class="st0" d="M151.5,27.2L151.5,27.2L151.5,27.2z"/>
	<circle class="st0" cx="255.9" cy="254.8" r="47.7"/>
	<path class="st0" d="M359.9,26.9L359.9,26.9L359.9,26.9z"/>
</g>
</svg>
