<svg id="Capa_1" data-name="Capa 1" xmlns="http://www.w3.org/2000/svg" viewBox="0 0 209.95 213.93"><defs><style>.cls-1{fill:#121413;}</style></defs><title>Icon</title><path class="cls-1" d="M37.34,75.58,55.28,91.8a.92.92,0,0,0,1.17,0,71.85,71.85,0,0,1,13-8.16c19.86-9.72,38.83-7.5,45.75-6.61a88.68,88.68,0,0,1,19.32,4.79.9.9,0,0,0,1.08-.36L149.08,60a.91.91,0,0,0-.3-1.25l-.11-.06a111.1,111.1,0,0,0-29-8.09C111.38,49.43,84.18,46.07,56.28,61A96.45,96.45,0,0,0,37.34,74.24a.89.89,0,0,0-.08,1.26h0Z" transform="translate(0 -0.04)"/><path class="cls-1" d="M178.59,38.81l-26.5,4a.9.9,0,0,0-.76,1,102.73,102.73,0,0,1,1.07,15.38c0,2.19-.06,14.11-2.88,23.88-5,17.41-19,28.63-26.16,33.58a.9.9,0,0,0-.26,1.22A180,180,0,0,0,138,138.55a.92.92,0,0,0,1.21.16,99.43,99.43,0,0,0,34.72-42.43c10.47-24.46,7.35-47.47,5.73-56.74A.89.89,0,0,0,178.59,38.81Z" transform="translate(0 -0.04)"/><path class="cls-1" d="M133.27,172.67l9.56-26.39a.87.87,0,0,0-.49-1.13h0a82,82,0,0,1-24.21-14.54A70.24,70.24,0,0,1,104,114.05c-2.19-3.63-4.6-7.61-5.38-12.59-.14-.94-.73-2.68-1.34-6.67-.25-1.65-.41-3.82-.48-5A.9.9,0,0,0,95.9,89l-28-.11a.9.9,0,0,0-.9.86,46.29,46.29,0,0,0,.51,9.41A48.79,48.79,0,0,0,71,110.75a128.91,128.91,0,0,0,17.64,29.52A116.79,116.79,0,0,0,110.31,160a142.42,142.42,0,0,0,21.84,13.24.9.9,0,0,0,1.16-.49h0Z" transform="translate(0 -0.04)"/><path class="cls-1" d="M72.53,125.12l12.22,24.09a.89.89,0,0,1-.4,1.19.91.91,0,0,1-.43.1,93,93,0,0,1-29.73-5.9,94.24,94.24,0,0,1-37.53-26.19A71.83,71.83,0,0,1,2.31,86V86a73.24,73.24,0,0,1-1-32,57,57,0,0,1,2.74-9.5c.39-1,.8-2,1.21-2.93A1.13,1.13,0,0,1,6.75,41h0a1.13,1.13,0,0,1,.65,1.09,106.51,106.51,0,0,0,1.1,24,104.26,104.26,0,0,0,3.67,15.38.29.29,0,0,0,0,.13A65.4,65.4,0,0,0,32.9,107a87.12,87.12,0,0,0,38.87,17.5A1.11,1.11,0,0,1,72.53,125.12Z" transform="translate(0 -0.04)"/><path class="cls-1" d="M104.69,43.15H74.19a.89.89,0,0,1-.89-.89h0a1,1,0,0,1,.06-.34,47.6,47.6,0,0,1,2.94-6c4.57-7.73,10.4-12.2,16.4-16.72A104.27,104.27,0,0,1,120.83,4.45a72.91,72.91,0,0,1,32.67-4,87.2,87.2,0,0,1,18.36,3,81.81,81.81,0,0,1,12.87,4.77,83.82,83.82,0,0,1,11.88,6.92,62.05,62.05,0,0,1,7.56,5.76,48.41,48.41,0,0,1,5.51,5.94,1.22,1.22,0,0,1-.17,1.7,1.2,1.2,0,0,1-1.47.05,104.71,104.71,0,0,0-9.72-5.8,70.14,70.14,0,0,0-15.75-6.57,60.06,60.06,0,0,0-16.56-2,69.45,69.45,0,0,0-19.18,2.56,75.36,75.36,0,0,0-11.52,4.41,101.39,101.39,0,0,0-14.94,8.73c-3.08,2.16-5.46,4.08-6.93,5.31A104.56,104.56,0,0,0,105.15,43,.54.54,0,0,1,104.69,43.15Z" transform="translate(0 -0.04)"/><path class="cls-1" d="M169.4,115.94,187,93.08a.9.9,0,0,1,1.26-.16l.07.06a32.17,32.17,0,0,1,6.11,8.08c2.91,5.49,3.44,10.46,4.12,16.81a85,85,0,0,1,.38,13.25,69.94,69.94,0,0,1-4,24.66,100.56,100.56,0,0,1-11.64,24.48,78.3,78.3,0,0,1-21.86,21.48,60.84,60.84,0,0,1-22.92,10.14,71.51,71.51,0,0,1-8.72,1.6l-4.08.48a.9.9,0,0,1-.42-1.74c3-1.14,6.24-2.48,9.56-4.06,3.63-1.73,6.94-3.53,9.92-5.31l.08-.06a73.56,73.56,0,0,0,17.52-17.64v-.06a42.67,42.67,0,0,0,9.69-21.28v-.1a69.49,69.49,0,0,0,2-11.89c.38-4.73.77-8.67.42-12.12a52.22,52.22,0,0,0-.72-8.46,44,44,0,0,0-1-5.46q-.67-2.37-1.56-4.92C170.66,119.13,170,117.48,169.4,115.94Z" transform="translate(0 -0.04)"/><path class="cls-1" d="M120.9,85.84A10,10,0,1,0,129.07,94,10,10,0,0,0,120.9,85.84Z" transform="translate(0 -0.04)"/></svg>
