<?xml version="1.0" encoding="utf-8"?>
<!-- Generator: Adobe Illustrator 24.0.2, SVG Export Plug-In . SVG Version: 6.00 Build 0)  -->
<svg version="1.1" id="Capa_1" xmlns="http://www.w3.org/2000/svg" xmlns:xlink="http://www.w3.org/1999/xlink" x="0px" y="0px"
	 viewBox="0 0 171.9 30" style="enable-background:new 0 0 171.9 30;" xml:space="preserve">
<style type="text/css">
	.st0{fill:#FFFFFF;}
</style>
<path class="st0" d="M1.9,17.1V3.7H0v22.8h23L1.9,17.1z M14.8,24.7L2,24.7V19L14.8,24.7z"/>
<path class="st0" d="M19.6,3.7v13.5l0.1,0.8c0.1,1.6,1,3.2,0.9,3.2c1.7,2.6,1.8,2.3,2.2,2.8c0.8,0.8,1.6,1.3,2.6,1.8
	c1.2,0.5,2.4,0.8,3.7,0.8c0.8-0.1,1.8,0.1,2.8-0.3c1.2-0.4,2.3-1,3.3-1.7c0.9-0.7,1.8-1.8,2.3-2.7c0.6-1.1,0.9-2.3,1.1-3.5V3.7H19.6
	z M37,18.1c-0.1,0.6-0.2,1.1-0.4,1.7c-0.2,0.5-0.4,1.1-0.8,1.5c-1.9,2.7-4,3.1-4.8,3.4c-0.8,0.2-2.4,0.3-3.4-0.1
	c-0.9-0.3-1.4-0.3-2.2-0.8c-1.6-1.1-3.3-2.8-3.9-5c-0.3-1-0.1-0.4-0.3-1.4c-0.1-0.6,0-12.1,0-12.1H37L37,18.1z"/>
<path class="st0" d="M29.2,16.2c0.7,0,1.2-0.5,1.2-1.2c0-0.7-0.5-1.2-1.2-1.2c-0.7,0-1.2,0.5-1.2,1.2C28,15.7,28.5,16.2,29.2,16.2z"
	/>
<path class="st0" d="M53.4,19.8v-9.3l10.9-6.7l-3.4,0l-7.4,4.5V3.7h-1.8v5.6l-2.6,1.5V3.7h-1.8v8.2L42.4,15l4.9,3.1l0.1,8.4h1.8
	l0.1-7.2l2.4,1.5l0,5.7h1.7v-4.5l7.7,4.5h3.3L53.4,19.8z M47.4,15.9l-1.5-0.8l1.5-0.9L47.4,15.9z M51.7,18.7L49.2,17l0-3.9l2.5-1.6
	L51.7,18.7z"/>
<path class="st0" d="M68.5,3.7l11.4,22.8l3.6-6.7l3.6,6.7L98.6,3.7H68.5z M80,22.9L71.3,5.2h5.3l6.1,12.3L80,22.9z M78.5,5.2h10
	l-5,10.4L78.5,5.2z M87.2,23l-2.7-5.4c-0.1,0,6.1-12.4,6.1-12.4H96L87.2,23z"/>
<path class="st0" d="M97.8,15.1l-5.6,11.4h11.4L97.8,15.1z M95,24.9l2.9-5.9l2.9,5.9L95,24.9z"/>
<path class="st0" d="M103.6,3.7l-4.5,8.7l6.9,14.1h9.1L103.6,3.7z M107.2,24.9l-6.1-12.6l2.6-5.1l8.7,17.7H107.2z"/>
<path class="st0" d="M110,3.7l9,11.1l0,11.6h1.7l0.1-11.6l9-11.1H110z M119.9,13.1l-6.5-7.9h13L119.9,13.1z"/>
<path class="st0" d="M147.7,10.6l2.5,2.3c0,0,0.1,0,0.1,0s0.1,0,0.1,0c0.6-0.4,1.2-0.8,1.8-1.1c2.8-1.4,5.4-1.1,6.4-0.9
	c0.9,0.1,1.8,0.3,2.7,0.7c0,0,0.1,0,0.1,0c0,0,0.1,0,0.1-0.1l1.9-3c0,0,0-0.1,0-0.1c0,0,0-0.1-0.1-0.1h0c-1.3-0.6-2.7-0.9-4.1-1.1
	c-1.2-0.2-5-0.6-8.9,1.5c-1,0.5-1.8,1.1-2.7,1.9C147.7,10.4,147.6,10.5,147.7,10.6C147.6,10.5,147.6,10.6,147.7,10.6L147.7,10.6z"/>
<path class="st0" d="M167.5,5.4L163.8,6c0,0,0,0,0,0c0,0,0,0,0,0c0,0,0,0,0,0c0,0,0,0,0,0c0.1,0.7,0.2,1.4,0.2,2.2
	c0,0.3,0,2-0.4,3.3c-0.7,2.4-2.7,4-3.7,4.7c0,0,0,0-0.1,0.1c0,0,0,0.1,0,0.1c0.6,1,1.3,2,2.1,2.9c0,0,0,0,0.1,0c0,0,0.1,0,0.1,0
	c2.1-1.5,3.8-3.6,4.9-5.9c1.5-3.4,1-6.7,0.8-8C167.6,5.5,167.6,5.5,167.5,5.4C167.5,5.4,167.5,5.4,167.5,5.4z"/>
<path class="st0" d="M161.1,24.2l1.3-3.7c0,0,0-0.1,0-0.1s0-0.1-0.1-0.1c-1.2-0.5-2.4-1.2-3.4-2c-0.8-0.7-1.4-1.4-2-2.3
	c-0.3-0.5-0.6-1.1-0.8-1.8c0-0.1-0.1-0.4-0.2-0.9c0-0.2-0.1-0.5-0.1-0.7c0,0,0-0.1,0-0.1c0,0-0.1,0-0.1,0l-3.9,0c0,0-0.1,0-0.1,0
	c0,0,0,0.1,0,0.1c0,0.4,0,0.9,0.1,1.3c0.1,0.6,0.3,1.1,0.5,1.6c0.6,1.5,1.5,2.9,2.5,4.1c0.9,1,1.9,2,3,2.8c1,0.7,2,1.3,3.1,1.9
	c0,0,0,0,0,0C161,24.3,161,24.3,161.1,24.2C161.1,24.3,161.1,24.3,161.1,24.2C161.1,24.2,161.1,24.2,161.1,24.2L161.1,24.2z"/>
<path class="st0" d="M152.6,17.5l1.7,3.4c0,0,0,0,0,0c0,0,0,0,0,0s0,0,0,0c0,0,0,0,0,0c0,0,0,0-0.1,0c-1.4,0-2.8-0.3-4.2-0.8
	c-2-0.8-3.8-2-5.3-3.7c-1-1.3-1.7-2.9-2-4.5v0c-0.4-1.5-0.4-3-0.1-4.5c0.1-0.5,0.2-0.9,0.4-1.3c0.1-0.1,0.1-0.3,0.2-0.4
	c0,0,0-0.1,0.1-0.1c0,0,0.1,0,0.1,0c0,0,0.1,0,0.1,0.1c0,0,0,0.1,0,0.1c-0.1,1.9,0.1,3.7,0.7,5.5c0,0,0,0,0,0
	c0.7,1.4,1.7,2.6,2.9,3.6c0.8,0.6,1.7,1.2,2.6,1.6c0.9,0.4,1.9,0.7,2.9,0.9C152.5,17.5,152.6,17.5,152.6,17.5
	C152.6,17.5,152.6,17.5,152.6,17.5z"/>
<path class="st0" d="M157.1,6.1h-4.3c0,0-0.1,0-0.1,0c0,0,0-0.1,0-0.1c0,0,0,0,0,0c0.1-0.3,0.3-0.6,0.4-0.8c0.6-1.1,1.5-1.7,2.3-2.3
	c1.2-0.9,2.5-1.6,3.9-2.1c1.5-0.5,3-0.7,4.6-0.6c0.9,0,1.7,0.2,2.6,0.4c0.6,0.2,1.2,0.4,1.8,0.7c0.6,0.3,1.1,0.6,1.7,1
	c0.4,0.2,0.7,0.5,1.1,0.8c0.3,0.3,0.5,0.5,0.8,0.8c0,0,0,0.1,0,0.1c0,0,0,0.1-0.1,0.1c0,0-0.1,0-0.1,0c0,0-0.1,0-0.1,0
	c-0.4-0.3-0.9-0.6-1.4-0.8c-0.7-0.4-1.4-0.7-2.2-0.9c-0.8-0.2-1.5-0.3-2.3-0.3c-0.9,0-1.8,0.1-2.7,0.4c-0.6,0.2-1.1,0.4-1.6,0.6
	c-0.7,0.3-1.4,0.8-2.1,1.2c-0.4,0.3-0.8,0.6-1,0.7C157.9,5.3,157.5,5.6,157.1,6.1C157.2,6,157.2,6,157.1,6.1
	C157.1,6,157.1,6,157.1,6.1z"/>
<path class="st0" d="M166.2,16.3l2.5-3.2c0,0,0,0,0,0c0,0,0,0,0,0c0,0,0,0,0,0c0,0,0,0,0,0l0,0c0.3,0.3,0.6,0.7,0.9,1.1
	c0.4,0.8,0.5,1.5,0.6,2.4c0.1,0.6,0.1,1.2,0.1,1.9c0,1.2-0.2,2.3-0.6,3.5c-0.4,1.2-0.9,2.4-1.6,3.4c-0.8,1.2-1.9,2.2-3.1,3
	c-1,0.7-2.1,1.2-3.2,1.4c-0.4,0.1-0.8,0.2-1.2,0.2l-0.6,0.1c0,0-0.1,0-0.1,0c0,0,0-0.1,0-0.1c0,0,0-0.1,0-0.1c0,0,0,0,0.1-0.1
	c0.4-0.2,0.9-0.3,1.3-0.6c0.5-0.2,1-0.5,1.4-0.7l0,0c1-0.7,1.8-1.5,2.5-2.5v0c0.7-0.8,1.2-1.9,1.4-3v0c0.1-0.5,0.2-1.1,0.3-1.7
	c0.1-0.7,0.1-1.2,0.1-1.7c0-0.4,0-0.8-0.1-1.2c0-0.3-0.1-0.5-0.1-0.8c-0.1-0.2-0.1-0.5-0.2-0.7C166.4,16.7,166.3,16.5,166.2,16.3z"
	/>
<path class="st0" d="M159.4,12c-0.3-0.1-0.6,0-0.9,0.1c-0.3,0.1-0.5,0.3-0.6,0.6c-0.1,0.3-0.2,0.6-0.1,0.9c0,0.3,0.2,0.6,0.4,0.8
	c0.2,0.2,0.5,0.3,0.8,0.4c0.3,0,0.6,0,0.9-0.1c0.3-0.1,0.5-0.4,0.6-0.6c0.1-0.3,0.2-0.6,0.1-0.9c-0.1-0.3-0.2-0.5-0.4-0.8
	C159.9,12.2,159.7,12.1,159.4,12z"/>
</svg>
