<svg width="127" height="128" viewBox="0 0 127 128" fill="none" xmlns="http://www.w3.org/2000/svg">
<ellipse cx="65.7048" cy="66.0599" rx="41.6959" ry="41.1987" fill="#222831"/>
<path d="M63.6448 0C28.4981 0 0 28.4981 0 63.6448C0 98.7916 28.4981 127.29 63.6448 127.29C98.7916 127.29 127.29 98.7916 127.29 63.6448C127.29 28.4981 98.7916 0 63.6448 0ZM63.6448 100.582C60.5052 100.582 57.9623 98.0386 57.9623 94.899C57.9623 91.7594 60.5052 89.2164 63.6448 89.2164C66.7845 89.2164 69.3274 91.7594 69.3274 94.899C69.3274 98.0386 66.7845 100.582 63.6448 100.582ZM72.5807 69.3984C71.2941 69.8953 70.1871 70.7683 69.4041 71.9036C68.621 73.0389 68.1982 74.3838 68.1909 75.7629V78.9878C68.1909 79.6129 67.6795 80.1243 67.0544 80.1243H60.2353C59.6102 80.1243 59.0988 79.6129 59.0988 78.9878V75.9334C59.0988 72.6517 60.0506 69.4127 61.9259 66.7134C63.7585 64.071 66.3157 62.0537 69.3274 60.903C74.1576 59.042 77.283 54.9931 77.283 50.5749C77.283 44.3099 71.16 39.2098 63.6448 39.2098C56.1296 39.2098 50.0067 44.3099 50.0067 50.5749V51.6546C50.0067 52.2797 49.4952 52.7911 48.8701 52.7911H42.0511C41.426 52.7911 40.9145 52.2797 40.9145 51.6546V50.5749C40.9145 44.9918 43.358 39.778 47.7905 35.8997C52.0524 32.1634 57.6781 30.1176 63.6448 30.1176C69.6115 30.1176 75.2373 32.1776 79.4992 35.8997C83.9316 39.778 86.3751 44.9918 86.3751 50.5749C86.3751 58.7862 80.9625 66.1736 72.5807 69.3984Z" fill="#F0DB4F"/>
<path d="M112.396 127.023L91.323 120.053C89.8106 119.553 89.4614 117.571 90.7117 116.584L109.407 101.825C110.64 100.851 112.463 101.615 112.634 103.177L115.012 124.906C115.171 126.354 113.779 127.48 112.396 127.023Z" fill="#F0DB4F"/>
</svg>
