<svg width="560" height="560" viewBox="0 0 560 560" fill="none" xmlns="http://www.w3.org/2000/svg">
<circle cx="280" cy="280" r="280" fill="white"/>
<circle cx="280.326" cy="280.215" r="17.6063" fill="url(#paint0_radial_546_5518)"/>
<path d="M180.111 277.659C179.063 278.238 178.475 279.402 178.621 280.591C188.207 358.897 246.038 420.331 319.417 437.432C321.167 437.839 322.863 436.595 323.028 434.805L327.787 383.296C327.897 382.1 327.282 380.956 326.233 380.37C285.148 357.411 255.779 315.143 251.369 264.686C251.335 264.291 251.302 263.898 251.27 263.504C251.148 261.968 249.908 260.748 248.368 260.718C223.611 260.235 200.34 266.496 180.111 277.659Z" fill="url(#paint1_linear_546_5518)"/>
<path d="M274.384 169.18C275.463 169.259 276.504 168.76 277.122 167.872C301.159 133.324 339.765 109.301 384.942 105.344C425.882 101.759 464.367 115.341 493.303 140.133C493.922 140.663 494.728 140.927 495.54 140.856L496.781 140.747C499.195 140.536 500.364 137.707 498.756 135.895C461.434 93.8532 405.41 69.4029 345.136 74.6814C280.03 80.383 225.826 119.381 197.804 173.448C196.583 175.805 198.879 178.399 201.417 177.617C224.847 170.4 249.672 167.379 274.384 169.18Z" fill="url(#paint2_linear_546_5518)"/>
<path d="M188.534 344.764C188.031 343.786 187.04 343.154 185.941 343.105C143.616 341.252 102.417 321.184 74.9303 284.672C50.197 251.818 41.3104 211.95 46.9812 174.249C47.1023 173.444 46.8995 172.622 46.4099 171.972L45.6617 170.978C44.2035 169.041 41.1821 169.549 40.4993 171.876C24.661 225.835 33.6347 286.345 70.0459 334.711C109.29 386.842 170.868 412.192 231.394 407.472C234.02 407.267 235.026 403.989 233.064 402.231C214.992 386.038 199.733 366.553 188.534 344.764Z" fill="url(#paint3_linear_546_5518)"/>
<path d="M330.873 368.437C329.912 369.195 328.579 369.285 327.532 368.651C307.806 356.711 290.808 339.728 278.897 318.172C278.172 316.859 278.564 315.219 279.769 314.325C280.083 314.092 280.397 313.857 280.71 313.621C321.121 283.139 341.369 235.809 339.048 188.766C338.988 187.566 339.632 186.437 340.705 185.897L386.861 162.643C388.467 161.835 390.421 162.613 391.003 164.314C415.647 236.385 393.563 318.959 330.873 368.437Z" fill="url(#paint4_linear_546_5518)"/>
<path d="M378.522 330.075C377.944 330.975 377.879 332.113 378.348 333.075C396.742 370.806 398.953 416.116 380.559 457.472C363.843 495.053 333.317 522.161 297.627 535.474C296.863 535.759 296.243 536.335 295.912 537.08L295.403 538.223C294.418 540.437 296.327 542.831 298.692 542.301C353.518 530.007 402.04 492.815 426.649 437.489C453.297 377.578 445.396 311.038 411.529 260.246C410.05 258.027 406.652 258.803 406.129 261.418C401.283 285.639 392.019 309.078 378.522 330.075Z" fill="url(#paint5_linear_546_5518)"/>
<path d="M326.691 191.572C327.793 192.013 328.529 193.073 328.544 194.26C328.833 217.452 323.331 240.998 311.17 262.61C310.407 263.967 308.719 264.476 307.303 263.83C306.9 263.646 306.495 263.463 306.089 263.282C259.865 242.682 208.695 247.9 168.716 272.738C167.694 273.373 166.393 273.356 165.4 272.678L122.702 243.542C121.219 242.529 120.952 240.445 122.156 239.112C172.494 183.354 253.817 162.457 326.691 191.572Z" fill="url(#paint6_linear_546_5518)"/>
<defs>
<radialGradient id="paint0_radial_546_5518" cx="0" cy="0" r="1" gradientUnits="userSpaceOnUse" gradientTransform="translate(280.326 280.215) rotate(90) scale(17.6063)">
<stop stop-color="#00360E"/>
<stop offset="1"/>
</radialGradient>
<linearGradient id="paint1_linear_546_5518" x1="381.827" y1="64.4961" x2="319.827" y2="437.996" gradientUnits="userSpaceOnUse">
<stop/>
<stop offset="0.364583" stop-color="#017B1F"/>
<stop offset="0.521822" stop-color="#017B1F"/>
<stop offset="0.969867"/>
</linearGradient>
<linearGradient id="paint2_linear_546_5518" x1="381.827" y1="64.4961" x2="319.827" y2="437.996" gradientUnits="userSpaceOnUse">
<stop/>
<stop offset="0.364583" stop-color="#017B1F"/>
<stop offset="0.521822" stop-color="#017B1F"/>
<stop offset="0.969867"/>
</linearGradient>
<linearGradient id="paint3_linear_546_5518" x1="388.328" y1="166.496" x2="48.8276" y2="300.496" gradientUnits="userSpaceOnUse">
<stop/>
<stop offset="0.458657" stop-color="#017B1F"/>
<stop offset="0.64316" stop-color="#017B1F"/>
<stop offset="1"/>
</linearGradient>
<linearGradient id="paint4_linear_546_5518" x1="388.328" y1="166.496" x2="48.8276" y2="300.496" gradientUnits="userSpaceOnUse">
<stop/>
<stop offset="0.458657" stop-color="#017B1F"/>
<stop offset="0.64316" stop-color="#017B1F"/>
<stop offset="1"/>
</linearGradient>
<linearGradient id="paint5_linear_546_5518" x1="120.329" y1="237.996" x2="421.329" y2="458.996" gradientUnits="userSpaceOnUse">
<stop/>
<stop offset="0.467924" stop-color="#017B1F"/>
<stop offset="0.646565" stop-color="#017B1F"/>
<stop offset="1"/>
</linearGradient>
<linearGradient id="paint6_linear_546_5518" x1="120.329" y1="237.996" x2="421.329" y2="458.996" gradientUnits="userSpaceOnUse">
<stop/>
<stop offset="0.467924" stop-color="#017B1F"/>
<stop offset="0.646565" stop-color="#017B1F"/>
<stop offset="1"/>
</linearGradient>
</defs>
</svg>
