<svg width="41" height="50" viewBox="0 0 41 50" fill="none" xmlns="http://www.w3.org/2000/svg">
<path d="M38.6614 0V13.6884H15.7519C15.4749 13.6843 15.1999 13.7354 14.9429 13.8388C14.7082 13.9599 14.4972 14.1224 14.3201 14.3184C14.1589 14.4773 14.0279 14.6641 13.9335 14.8697C14.1398 11.4022 15.4463 8.09082 17.6634 5.41673C19.8804 2.74263 22.8924 0.845144 26.2617 0L38.6614 0Z" fill="url(#paint0_linear_302_309)"/>
<path d="M26.6771 34.5146C26.4869 38.001 25.1842 41.3346 22.9603 44.0262C20.7363 46.7179 17.7082 48.6259 14.3203 49.4702H2.49329V35.7961H24.7298C25.0146 35.8015 25.2973 35.7479 25.5603 35.6386C25.8102 35.5376 26.0368 35.3865 26.2261 35.1947C26.4185 34.9989 26.5716 34.7681 26.6771 34.5146Z" fill="url(#paint1_linear_302_309)"/>
<path d="M40.5159 33.6913C40.523 35.8015 40.1016 37.8913 39.2774 39.8339C39.1056 40.2277 38.9266 40.6143 38.7261 40.9865C37.0241 44.1981 34.2686 46.7261 30.9226 48.1458C28.9767 48.9854 26.8778 49.412 24.7585 49.3986H14.3204H14.4421C17.7979 48.5388 20.7927 46.6327 22.9926 43.9566C25.1924 41.2805 26.4829 37.9734 26.6772 34.5146C26.8704 33.9975 26.8704 33.428 26.6772 32.9109V32.868C26.5744 32.619 26.4236 32.3928 26.2333 32.2022C26.0293 32.0028 25.7853 31.849 25.5174 31.7511C25.2599 31.65 24.9849 31.6013 24.7084 31.608H15.7522C15.2988 31.608 14.8549 31.5865 14.4206 31.5435H14.3919C12.7475 31.4155 11.136 31.0138 9.62391 30.3551C5.86089 28.7284 2.86535 25.7201 1.25478 21.9502C0.426761 20.0019 0 17.9066 0 15.7897C0 13.6727 0.426761 11.5775 1.25478 9.62915C2.87776 5.87602 5.87078 2.883 9.62391 1.26002C10.72 0.779151 11.8721 0.437617 13.0532 0.243413H13.1462H13.182C14.0307 0.0920807 14.8903 0.0106695 15.7522 0L26.2619 0C22.8905 0.834666 19.8734 2.7234 17.6497 5.39137C15.426 8.05933 14.1116 11.3673 13.898 14.8339C13.8759 14.8755 13.8568 14.9185 13.8407 14.9628C13.7354 15.2119 13.6818 15.4798 13.6832 15.7503C13.6769 16.0451 13.733 16.3378 13.8478 16.6094C13.8533 16.6417 13.8683 16.6716 13.8908 16.6953C13.9847 16.9136 14.1182 17.1126 14.2846 17.2824C14.4909 17.4787 14.7343 17.632 15.0005 17.7334C15.2396 17.8316 15.494 17.8874 15.7522 17.8981H24.7012C27.8107 17.886 30.8542 18.7947 33.4481 20.5095C36.0421 22.2244 38.0704 24.6687 39.2774 27.5344C39.4897 28.0246 39.6738 28.5265 39.8287 29.0378C40.2889 30.5459 40.5205 32.1145 40.5159 33.6913Z" fill="url(#paint2_linear_302_309)"/>
<g opacity="0.16">
<g opacity="0.16">
<path opacity="0.16" d="M26.677 34.5146C26.4867 38.001 25.184 41.3346 22.9601 44.0262C20.7361 46.7179 17.7081 48.6259 14.3201 49.4702H11.0341C13.8068 48.1706 16.2546 46.2687 18.199 43.9031C20.1435 41.5376 21.5357 38.7679 22.274 35.7961H24.7296C25.0124 35.8056 25.2937 35.7518 25.553 35.6386C25.805 35.5377 26.034 35.3867 26.2259 35.1947C26.4184 34.9989 26.5715 34.7681 26.677 34.5146Z" fill="black"/>
</g>
</g>
<g opacity="0.16">
<g opacity="0.16">
<path opacity="0.16" d="M29.2327 0C26.1757 2.27663 19.9687 7.5315 18.408 13.6884H15.7519C15.4749 13.6843 15.1999 13.7354 14.9429 13.8388C14.7082 13.9599 14.4972 14.1224 14.3201 14.3184C14.1589 14.4773 14.0279 14.6641 13.9335 14.8697C14.1398 11.4022 15.4463 8.09082 17.6634 5.41673C19.8804 2.74263 22.8924 0.845144 26.2617 0L29.2327 0Z" fill="black"/>
</g>
</g>
<g opacity="0.25">
<g opacity="0.25">
<path opacity="0.25" d="M38.6612 4.09508V13.6884H19.5532C21.1426 13.5309 22.7391 13.4235 24.3284 13.3448C25.9178 13.266 27.5214 13.2016 29.1108 13.1801C30.7001 13.1587 32.2966 13.1372 33.8931 13.1229C35.325 13.1229 36.7568 13.1229 38.1887 13.1658C38.1887 12.543 38.1887 11.9201 38.2388 11.2901C38.2388 10.4883 38.2961 9.69359 38.3462 8.89176C38.4106 7.29525 38.518 5.72738 38.6612 4.09508Z" fill="black"/>
</g>
</g>
<g opacity="0.7">
<g opacity="0.7">
<path opacity="0.7" d="M40.5158 33.6913C40.5229 35.8016 40.1015 37.8913 39.2772 39.8339C39.1054 40.2277 38.9264 40.6143 38.726 40.9866C38.7761 40.8434 38.9551 40.3709 39.2271 39.6549C39.636 38.4361 39.9073 37.1754 40.0361 35.8964C40.1161 35.0469 40.1353 34.1927 40.0934 33.3405C40.0435 32.4006 39.9142 31.4665 39.7068 30.5484C39.6 30.064 39.4662 29.586 39.3059 29.1166C39.1269 28.6369 38.9408 28.1572 38.7546 27.6847C38.3382 26.7384 37.8273 25.8365 37.2297 24.9929C36.6466 24.1347 35.9747 23.3404 35.2251 22.6232C34.4983 21.9323 33.7099 21.3092 32.8697 20.7618C32.0757 20.2467 31.2427 19.7943 30.3783 19.4087C29.599 19.0801 28.7946 18.8143 27.9728 18.614C26.7203 18.3019 25.4395 18.1172 24.1498 18.0627L22.6678 17.8981H24.7297C27.8343 17.8917 30.8716 18.803 33.4599 20.5175C36.0482 22.232 38.0721 24.6732 39.2772 27.5344C39.4861 28.0252 39.6677 28.5271 39.8213 29.0378C40.2839 30.5456 40.518 32.1142 40.5158 33.6913Z" fill="white"/>
</g>
</g>
<g opacity="0.25">
<g opacity="0.25">
<path opacity="0.25" d="M12.6309 49.4702H2.49341V39.1252C2.62227 39.9914 2.69387 40.8434 2.77978 41.7096C2.86569 42.5759 2.90148 43.435 2.93728 44.2941C2.97308 45.1532 3.00887 46.0195 3.03751 46.8857V48.9046H5.00629C5.85108 48.9046 6.69587 48.9476 7.54066 49.0049C9.25171 49.1123 10.9413 49.234 12.6309 49.4702Z" fill="black"/>
</g>
</g>
<g opacity="0.7">
<g opacity="0.7">
<path opacity="0.7" d="M14.3919 31.5006C12.7475 31.3725 11.136 30.9709 9.62391 30.3121C5.86878 28.6958 2.87437 25.7039 1.25478 21.9502C0.426761 20.0019 0 17.9066 0 15.7897C0 13.6727 0.426761 11.5775 1.25478 9.62915C2.87776 5.87602 5.87078 2.88299 9.62391 1.26002C10.72 0.779145 11.8721 0.437612 13.0532 0.243408C10.768 0.794422 8.62729 1.82832 6.77498 3.27559C4.92267 4.72287 3.4017 6.54996 2.31435 8.63401C1.05169 11.0444 0.456018 13.7484 0.588974 16.4662C0.63673 17.8297 0.877774 19.1796 1.3049 20.4754L1.6557 21.4777L1.74161 21.7211V21.7783C1.74499 21.79 1.74499 21.8024 1.74161 21.8141L1.79888 21.9358L2.0065 22.394C2.27778 22.993 2.59118 23.5719 2.94436 24.1266C3.60921 25.1852 4.39484 26.1631 5.28542 27.0404C6.09232 27.8298 6.97747 28.535 7.92717 29.1452C8.73386 29.6601 9.5815 30.1079 10.4615 30.484C11.1581 30.7773 11.8761 31.0166 12.6093 31.1999C13.1977 31.3322 13.7927 31.4326 14.3919 31.5006V31.5006Z" fill="white"/>
</g>
</g>
<g opacity="0.7">
<g opacity="0.7">
<path opacity="0.7" d="M26.2611 0C22.8897 0.837081 19.873 2.72747 17.6495 5.39644C15.426 8.06541 14.1115 11.3739 13.8971 14.8411C13.8738 14.8795 13.8546 14.9203 13.8398 14.9628L13.8828 14.8268C13.8828 14.3972 13.8828 13.9676 13.8828 13.5309C13.8828 13.0942 13.9616 12.6647 14.0045 12.2208C14.0475 11.7769 14.1763 11.3617 14.2551 10.9321C14.3338 10.5026 14.5128 10.0873 14.6345 9.66495C14.7562 9.24256 14.9567 8.84164 15.1285 8.42641C15.3003 8.01117 15.5294 7.63889 15.7299 7.24513C15.9303 6.85138 16.2024 6.52921 16.4458 6.11398C16.6892 5.69874 16.9756 5.39805 17.2476 5.05441C17.5197 4.71077 17.849 4.40292 18.1497 4.0736C18.4504 3.74427 18.794 3.46506 19.1305 3.17154L20.1758 2.36254C20.548 2.11913 20.8917 1.89003 21.2998 1.64662C21.7078 1.40321 22.0801 1.2457 22.481 1.05241L23.7053 0.579897C24.1348 0.45819 24.55 0.329324 24.9796 0.221936C25.4091 0.114548 25.8315 0.064433 26.2611 0Z" fill="white"/>
</g>
</g>
<g opacity="0.7">
<g opacity="0.7">
<path opacity="0.7" d="M26.7767 34.5074C26.7767 34.9513 26.7767 35.388 26.7767 35.8247C26.7767 36.2615 26.698 36.7053 26.6479 37.142C26.5977 37.5788 26.4832 38.0083 26.383 38.445C26.2827 38.8817 26.1324 39.297 26.0107 39.7194C25.889 40.1418 25.6814 40.5498 25.5095 40.9579C25.3377 41.366 25.1158 41.7597 24.9082 42.1535C24.7006 42.5473 24.4357 42.9124 24.1922 43.2918C23.9488 43.6713 23.6625 44.0077 23.3904 44.3585C23.1184 44.7093 22.789 45.0243 22.4884 45.3537C22.1877 45.683 21.844 45.9694 21.5075 46.2629L20.448 47.079C20.0757 47.3225 19.7321 47.5659 19.324 47.795L18.1427 48.4107L16.9113 48.9046L15.6441 49.2769C15.322 49.3414 14.9998 49.4058 14.6776 49.4559H14.7492L14.377 49.4989V49.3986H14.5058C17.8481 48.5241 20.8268 46.6121 23.0138 43.9376C25.2007 41.2631 26.4831 37.964 26.6765 34.5146V34.5146C26.7834 34.2561 26.8346 33.978 26.8268 33.6985C26.8666 33.9687 26.8496 34.2442 26.7767 34.5074V34.5074Z" fill="white"/>
</g>
</g>
<defs>
<linearGradient id="paint0_linear_302_309" x1="38.6757" y1="7.41696" x2="14.9143" y2="7.41696" gradientUnits="userSpaceOnUse">
<stop stop-color="#EE0979"/>
<stop offset="0.32" stop-color="#F32555"/>
<stop offset="1" stop-color="#FF6A00"/>
</linearGradient>
<linearGradient id="paint1_linear_302_309" x1="54.9722" y1="435.475" x2="825.953" y2="435.475" gradientUnits="userSpaceOnUse">
<stop stop-color="#EE0979"/>
<stop offset="0.32" stop-color="#F32555"/>
<stop offset="1" stop-color="#FF6A00"/>
</linearGradient>
<linearGradient id="paint2_linear_302_309" x1="20.2553" y1="-0.400916" x2="20.2553" y2="50.8018" gradientUnits="userSpaceOnUse">
<stop stop-color="#FCC400"/>
<stop offset="0.16" stop-color="#FBC000"/>
<stop offset="0.31" stop-color="#FBB500"/>
<stop offset="0.45" stop-color="#FBA300"/>
<stop offset="0.58" stop-color="#FA8900"/>
<stop offset="0.71" stop-color="#FA6800"/>
<stop offset="0.84" stop-color="#F93F00"/>
<stop offset="0.97" stop-color="#F81000"/>
<stop offset="1" stop-color="#F80300"/>
</linearGradient>
</defs>
</svg>
