<svg width="117" height="117" viewBox="0 0 117 117" fill="none" xmlns="http://www.w3.org/2000/svg">
<path d="M58.365 2.32433e-06C46.8208 2.78389e-06 35.5359 3.42347 25.9375 9.83742C16.339 16.2514 8.85825 25.3677 4.44123 36.0335C0.0242062 46.6993 -1.13067 58.4354 1.1227 69.7575C3.37606 81.0797 8.93643 91.4793 17.1006 99.6411C25.2647 107.803 35.6659 113.36 46.9887 115.611C58.3115 117.861 70.0473 116.703 80.7118 112.282C91.3763 107.862 100.491 100.379 106.902 90.7789C113.313 81.1786 116.733 69.8927 116.73 58.3485C116.73 50.6847 115.22 43.096 112.287 36.0157C109.354 28.9355 105.054 22.5024 99.6343 17.0841C94.2144 11.6657 87.7802 7.36811 80.6991 4.43679C73.618 1.50547 66.0288 -0.00216076 58.365 2.32433e-06Z" fill="white"/>
<path d="M58.365 2.32433e-06C46.8208 2.78389e-06 35.5359 3.42347 25.9375 9.83742C16.339 16.2514 8.85826 25.3677 4.44123 36.0335C0.0242089 46.6993 -1.13067 58.4354 1.12269 69.7575C3.37606 81.0797 8.93644 91.4793 17.1006 99.6411C25.2647 107.803 35.6659 113.36 46.9887 115.611C58.3115 117.861 70.0473 116.703 80.7118 112.282C91.3763 107.862 100.49 100.379 106.902 90.7789C113.313 81.1786 116.733 69.8927 116.73 58.3485C116.73 50.6847 115.22 43.096 112.287 36.0157C109.354 28.9355 105.054 22.5024 99.6343 17.0841C94.2144 11.6657 87.7802 7.36811 80.6991 4.43679C73.618 1.50547 66.0288 -0.00216076 58.365 2.32433e-06V2.32433e-06ZM53.6879 88.7497C51.842 90.5892 49.3441 91.6251 46.7381 91.6317C46.2803 91.6261 45.8235 91.5875 45.3712 91.5164H45.0913C44.6519 91.4374 44.2175 91.3329 43.7902 91.2035H43.6585C43.255 91.0657 42.8592 90.9063 42.4728 90.726H42.2916C41.889 90.5118 41.4986 90.2754 41.1223 90.0178V90.0178C40.6648 89.7039 40.235 89.3512 39.8378 88.9638L13.3232 62.4492L27.0745 48.3356L44.696 65.8747C44.9576 66.1366 45.2682 66.3444 45.6101 66.4862C45.952 66.628 46.3186 66.7009 46.6887 66.7009C47.0589 66.7009 47.4254 66.628 47.7673 66.4862C48.1093 66.3444 48.4199 66.1366 48.6814 65.8747L89.5238 25.0324L98.8121 34.3372L103.407 38.9155L53.6879 88.7497Z" fill="url(#paint0_radial_321_8)"/>
<defs>
<radialGradient id="paint0_radial_321_8" cx="0" cy="0" r="1" gradientUnits="userSpaceOnUse" gradientTransform="translate(47.3475 47.1334) scale(58.3485)">
<stop stop-color="#3CB187"/>
<stop offset="1" stop-color="#1F705C"/>
</radialGradient>
</defs>
</svg>
